<svg width="107" height="45" viewBox="0 0 107 45" fill="none" xmlns="http://www.w3.org/2000/svg">
<path fill-rule="evenodd" clip-rule="evenodd" d="M101.594 0.437012H74.192C71.6559 0.437012 69.5982 2.46643 69.5982 4.97101V10.4463C69.5982 12.9496 71.6559 14.979 74.192 14.979H101.596C104.134 14.979 106.189 12.9496 106.189 10.4463V4.96972C106.188 2.46643 104.131 0.437012 101.594 0.437012ZM101.594 29.5223H74.192C71.6559 29.5223 69.5982 31.553 69.5982 34.0563V39.5303C69.5982 42.0349 71.6559 44.063 74.192 44.063H101.596C104.134 44.063 106.189 42.0349 106.189 39.5303V34.0576C106.189 31.553 104.134 29.5223 101.596 29.5223M65.0057 14.9803H41.2809C38.7435 14.9803 36.6871 12.9483 36.6871 10.445V4.96972C36.6871 2.46643 34.6321 0.437012 32.0972 0.437012H4.69144C2.15403 0.437012 0.0976562 2.46514 0.0976562 4.96972V10.4424C0.0976562 12.947 2.15403 14.979 4.69144 14.979H32.0972C34.6346 14.979 36.6884 17.0084 36.6884 19.5117V24.9857C36.6884 27.4916 34.6334 29.521 32.0972 29.521H4.69144C2.15403 29.5223 0.0976562 31.553 0.0976562 34.0563V39.5303C0.0976562 42.0349 2.15403 44.063 4.69144 44.063H32.0972C34.6334 44.063 36.6884 42.0349 36.6884 39.5303V34.0576C36.6884 31.553 38.7448 29.5223 41.2822 29.5223H65.007C67.5431 29.5223 69.5995 27.4903 69.5995 24.987V19.513C69.5995 17.0097 67.5418 14.9803 65.0057 14.9803Z" fill="black"/>
</svg>
