<svg width="113" height="40" viewBox="0 0 113 40" fill="none" xmlns="http://www.w3.org/2000/svg">
<path fill-rule="evenodd" clip-rule="evenodd" d="M92.9445 0.16055C88.5302 0.153473 84.2438 1.63254 80.7848 4.35637C77.3259 1.63236 73.0393 0.153272 68.625 0.16055C64.2108 0.153766 59.9247 1.63281 56.4658 4.35637C53.0072 1.63223 48.7209 0.153115 44.3066 0.16055C39.8925 0.153766 35.6064 1.63281 32.1475 4.35637C28.6886 1.63272 24.4025 0.153666 19.9883 0.16055C9.15614 0.16055 0.37793 8.87802 0.37793 19.6367C0.37793 30.394 9.1555 39.1128 19.9883 39.1128C24.4024 39.1195 28.6886 37.6405 32.1475 34.9169C35.6063 37.6406 39.8925 39.1197 44.3066 39.1128C48.7208 39.1201 53.0072 37.641 56.4658 34.9169C59.9247 37.6405 64.2108 39.1196 68.625 39.1128C73.0393 39.12 77.3258 37.6409 80.7848 34.9169C84.2437 37.6409 88.5302 39.12 92.9445 39.1128C103.777 39.1128 112.554 30.3947 112.554 19.6367C112.554 8.87865 103.777 0.16055 92.9445 0.16055ZM28.9389 31.7354C26.44 33.5458 23.3182 34.6507 19.9883 34.6507C11.632 34.6507 4.87012 27.9357 4.87012 19.6367C4.87012 11.3376 11.632 4.62198 19.9883 4.62198C23.3182 4.62198 26.4381 5.72751 28.9389 7.53857C26.1836 10.9764 24.6877 15.2427 24.6969 19.6367C24.699 24.0289 26.1936 28.2918 28.9389 31.7354ZM32.1481 28.5576C30.221 25.9777 29.1834 22.849 29.1897 19.6367C29.1816 16.424 30.2193 13.2948 32.1481 10.7157C34.0766 13.295 35.1142 16.4241 35.1065 19.6367C35.1126 22.849 34.0751 25.9776 32.1481 28.5576ZM53.2578 31.7354C50.6616 33.6337 47.5203 34.654 44.2964 34.6463C41.0792 34.6528 37.945 33.6323 35.3561 31.7354C38.1016 28.2922 39.5963 24.0294 39.5981 19.6373C39.6073 15.2434 38.1114 10.977 35.3561 7.53921C37.9448 5.64173 41.0791 4.62101 44.2964 4.62768C47.6506 4.62768 50.7494 5.70532 53.2578 7.53921C50.5025 10.977 49.0066 15.2434 49.0158 19.6373C49.0177 24.0293 50.5124 28.2922 53.2578 31.7354ZM56.4658 28.5576C54.5386 25.9777 53.5011 22.849 53.5074 19.6367C53.4996 16.4241 54.5373 13.2949 56.4658 10.7157C58.3947 13.2948 59.4326 16.424 59.4248 19.6367C59.431 22.8491 58.3932 25.9778 56.4658 28.5576ZM77.5761 31.7354C75.0677 33.5699 71.9689 34.6463 68.6154 34.6463C65.2619 34.6463 62.1828 33.568 59.6744 31.7354C62.4202 28.2924 63.9149 24.0294 63.9164 19.6373C63.9256 15.2434 62.4297 10.977 59.6744 7.53921C62.1828 5.70595 65.2619 4.62768 68.6154 4.62768C71.9689 4.62768 75.0677 5.70532 77.5761 7.53921C74.8212 10.9772 73.3253 15.2434 73.3342 19.6373C73.3364 24.0293 74.831 28.292 77.5761 31.7354ZM80.7854 28.5576C78.8582 25.9777 77.8207 22.849 77.827 19.6367C77.8186 16.424 78.8563 13.2947 80.7854 10.7157C82.7138 13.295 83.7515 16.4241 83.7438 19.6367C83.7496 22.8489 82.7121 25.9774 80.7854 28.5576ZM92.9445 34.6507C89.6134 34.6507 86.4922 33.5458 83.994 31.7354C86.7393 28.2921 88.2339 24.0293 88.236 19.6373C88.2449 15.2434 86.749 10.9772 83.994 7.53921C86.4948 5.72877 89.614 4.62261 92.9445 4.62261C101.3 4.62261 108.063 11.3382 108.063 19.6373C108.063 27.9351 101.3 34.6507 92.9445 34.6507Z" fill="black"/>
</svg>
