<svg width="34" height="34" viewBox="0 0 34 34" fill="none" xmlns="http://www.w3.org/2000/svg">
<path fill-rule="evenodd" clip-rule="evenodd" d="M24.5514 12.596C23.6224 12.5945 22.7202 12.9058 21.9922 13.479C21.2642 12.9057 20.3621 12.5944 19.433 12.596C18.504 12.5945 17.6019 12.9058 16.8739 13.479C16.146 12.9057 15.2439 12.5944 14.3148 12.596C13.3858 12.5945 12.4837 12.9058 11.7557 13.479C11.0278 12.9058 10.1257 12.5945 9.19665 12.596C6.91685 12.596 5.06934 14.4307 5.06934 16.695C5.06934 18.9591 6.91672 20.7941 9.19665 20.7941C10.1257 20.7955 11.0278 20.4842 11.7557 19.911C12.4837 20.4842 13.3858 20.7955 14.3148 20.7941C15.2439 20.7956 16.146 20.4843 16.8739 19.911C17.6019 20.4842 18.504 20.7955 19.433 20.7941C20.3621 20.7956 21.2642 20.4843 21.9922 19.911C22.7202 20.4843 23.6224 20.7956 24.5514 20.7941C26.8312 20.7941 28.6786 18.9592 28.6786 16.695C28.6786 14.4308 26.8312 12.596 24.5514 12.596ZM11.0804 19.2414C10.5545 19.6224 9.89748 19.855 9.19665 19.855C7.43794 19.855 6.01479 18.4417 6.01479 16.695C6.01479 14.9483 7.43794 13.5349 9.19665 13.5349C9.89748 13.5349 10.5541 13.7676 11.0804 14.1488C10.5005 14.8723 10.1857 15.7702 10.1876 16.695C10.1881 17.6194 10.5027 18.5166 11.0804 19.2414ZM11.7559 18.5726C11.3503 18.0296 11.1319 17.3711 11.1332 16.695C11.1315 16.0189 11.3499 15.3603 11.7559 14.8175C12.1617 15.3603 12.3801 16.0189 12.3785 16.695C12.3798 17.3711 12.1614 18.0296 11.7559 18.5726ZM16.1987 19.2414C15.6523 19.6409 14.9912 19.8557 14.3127 19.854C13.6356 19.8554 12.9759 19.6406 12.431 19.2414C13.0089 18.5167 13.3235 17.6195 13.3238 16.6951C13.3258 15.7704 13.0109 14.8725 12.431 14.1489C12.9759 13.7496 13.6355 13.5347 14.3127 13.5361C15.0186 13.5361 15.6708 13.7629 16.1987 14.1489C15.6189 14.8725 15.304 15.7704 15.306 16.6951C15.3063 17.6195 15.6209 18.5167 16.1987 19.2414ZM16.8739 18.5726C16.4683 18.0296 16.2499 17.3711 16.2513 16.695C16.2496 16.0189 16.468 15.3603 16.8739 14.8175C17.2799 15.3603 17.4983 16.0188 17.4967 16.695C17.498 17.3711 17.2796 18.0296 16.8739 18.5726ZM21.3169 19.2414C20.789 19.6275 20.1368 19.854 19.431 19.854C18.7252 19.854 18.0772 19.6271 17.5492 19.2414C18.1271 18.5167 18.4417 17.6195 18.442 16.6951C18.444 15.7704 18.1291 14.8725 17.5492 14.1489C18.0772 13.7631 18.7252 13.5361 19.431 13.5361C20.1368 13.5361 20.789 13.7629 21.3169 14.1489C20.7371 14.8725 20.4223 15.7704 20.4241 16.6951C20.4246 17.6195 20.7392 18.5167 21.3169 19.2414ZM21.9924 18.5726C21.5868 18.0296 21.3684 17.3711 21.3697 16.695C21.3679 16.0188 21.5864 15.3602 21.9924 14.8175C22.3982 15.3603 22.6166 16.0189 22.615 16.695C22.6162 17.3711 22.3979 18.0295 21.9924 18.5726ZM24.5514 19.855C23.8503 19.855 23.1934 19.6224 22.6677 19.2414C23.2454 18.5167 23.56 17.6195 23.5605 16.6951C23.5623 15.7704 23.2475 14.8725 22.6677 14.1489C23.194 13.7679 23.8505 13.5351 24.5514 13.5351C26.3099 13.5351 27.7333 14.9485 27.7333 16.6951C27.7333 18.4415 26.3099 19.855 24.5514 19.855Z" fill="#2E3548"/>
</svg>
