<svg width="93" height="72" viewBox="0 0 93 72" fill="none" xmlns="http://www.w3.org/2000/svg">
<path fill-rule="evenodd" clip-rule="evenodd" d="M73.3887 18.3453C78.0852 17.5076 81.8906 20.9764 83.6686 23.1866C85.4031 25.3339 87.2484 30.9538 87.284 34.7451C87.3355 39.8498 86.4366 43.4916 84.5002 47.1373C84.2864 47.5424 84.0765 47.9632 83.831 48.3682C83.1301 49.5323 81.5739 50.0593 80.2473 50.4919C74.0619 52.5055 67.7657 49.9571 64.6492 44.4433C63.2197 41.9185 61.4338 36.3182 60.5547 33.3607C60.0003 31.4966 59.038 29.3493 59.2519 27.0761C59.5845 23.4815 62.5703 22.3253 64.871 21.2949C65.7263 20.9095 66.6054 20.5398 67.5004 20.119C68.3359 19.7257 69.2704 19.3443 70.2287 19.0336C72.074 18.4318 71.6979 18.6481 73.3927 18.3493L73.3887 18.3453ZM17.7481 18.3257C21.4783 17.5863 26.9074 20.587 29.5605 21.7118C31.5325 22.5455 32.8314 23.3754 33.6946 25.1844C34.8034 27.5087 34.1975 29.1644 33.5362 31.4651C32.9779 33.4118 32.3126 35.2799 31.6949 37.2109C31.3979 38.143 31.0455 39.1026 30.7366 40.0465C29.2754 44.518 26.7371 48.7969 22.0446 50.3582C20.1478 50.9914 17.5857 51.3926 15.2573 50.9717C13.408 50.6414 10.8064 49.788 9.90353 48.7143C9.47982 48.2109 8.86207 46.8856 8.55716 46.2603C7.38503 43.8534 6.26042 39.9953 6.22874 37.2149C6.19706 34.5366 6.29606 32.6646 6.86232 30.2617C7.33751 28.2599 8.05426 26.3761 8.91751 24.7204C10.05 22.5455 12.5091 20.1701 14.7307 19.1397C16.0374 18.538 16.5126 18.5695 17.7481 18.3257ZM27.7033 8.61167C28.3725 8.16726 30.9227 7.40037 31.881 7.10148C42.0659 3.91592 54.9316 4.25414 64.9264 8.18693C65.1403 8.26951 65.1838 8.28524 65.4016 8.37177C65.5244 8.42289 65.5521 8.42683 65.6669 8.48975C65.7936 8.56054 65.7936 8.56841 65.8411 8.61167C65.465 8.94989 64.6651 9.41002 64.178 9.72071C61.0615 11.7028 55.5375 15.203 53.5971 17.7751C49.5699 23.1119 50.2827 27.6542 51.5301 35.1226C52.0409 38.1823 52.6507 41.1752 53.2407 44.1248C53.8426 47.1333 54.4287 49.8509 55.5969 52.3915C56.2819 53.8781 57.6045 56.1119 58.7212 57.2524C62.5109 61.1262 64.9264 61.7673 66.2965 62.9668C65.9006 63.0847 65.6036 63.2578 65.2115 63.4033C52.7735 68.0479 39.3533 67.9653 27.2281 62.955L30.4911 60.8391C34.0471 58.5266 36.0706 56.167 37.9674 52.2538C39.6187 48.8441 41.2818 39.138 41.9906 34.9456C43.238 27.6149 43.8716 23.0961 39.9117 17.7751L38.6128 16.3199C35.9241 13.7754 28.1191 9.11506 27.6993 8.6156L27.7033 8.61167ZM43.4479 0.730355C42.7074 0.820809 41.8362 0.789347 41.064 0.879801C35.2509 1.57197 32.2414 2.14616 26.5708 4.19121C17.3838 7.50262 8.81456 13.9013 4.14979 22.459C0.0829664 29.9156 -0.50706 38.5992 3.04498 47.0075C4.35174 50.1026 6.78709 53.764 9.09571 56.1552C13.6813 60.8981 17.9065 63.828 24.1473 66.581C29.2873 68.8463 34.5737 70.0576 40.3354 70.7694C44.4339 71.2767 50.4292 71.1863 54.7019 70.5885C56.2107 70.3761 57.5847 70.1441 59.0103 69.8491C66.4708 68.3036 74.4579 64.8112 79.9622 60.2571C81.855 58.6918 83.5617 57.2131 85.1615 55.2939C90.444 48.9542 93.5288 42.0797 92.6101 32.6803C92.0755 27.2138 89.3472 21.7826 86.7138 18.3689L84.4171 15.6278C83.3875 14.5305 83.0034 14.1097 81.8352 13.0715C81.3521 12.6428 80.9957 12.3242 80.5086 11.9231C79.9701 11.4826 79.5662 11.1955 79.0712 10.7904C74.6084 7.13687 67.7696 4.24627 61.8179 2.5591C59.24 1.83154 56.1077 1.26128 53.217 0.96239C50.7975 0.710691 45.7486 0.447194 43.44 0.730355H43.4479Z" fill="black"/>
</svg>
