<svg width="34" height="34" viewBox="0 0 34 34" fill="none" xmlns="http://www.w3.org/2000/svg">
<path d="M16.9179 8.02832C12.1241 8.02832 8.23779 11.8881 8.23779 16.649C8.23779 21.41 12.1241 25.2697 16.9179 25.2697C21.7117 25.2697 25.598 21.41 25.598 16.649C25.598 11.8881 21.7117 8.02832 16.9179 8.02832ZM25.0336 16.649C25.0336 21.1003 21.4004 24.7091 16.9179 24.7091C12.4355 24.7091 8.80225 21.1003 8.80225 16.649C8.80225 12.1978 12.436 8.58891 16.9179 8.58891C21.3999 8.58891 25.0336 12.1978 25.0336 16.649Z" fill="#2E3548"/>
<path d="M21.1247 12.9915C21.2426 13.1172 21.4126 13.32 21.508 13.4431L23.2657 12.3351C23.1779 12.2211 23.038 12.0477 22.9334 11.9256L21.8203 12.6565L21.7443 12.7214L21.8009 12.6393L22.2924 11.6651L21.9449 11.3199L20.9635 11.808L20.8808 11.8643L20.9466 11.7887L21.6831 10.6838C21.5534 10.5743 21.4289 10.4739 21.2702 10.3523L20.1545 12.0964C20.2959 12.2044 20.4822 12.363 20.6011 12.471L21.6514 11.9296L21.7188 11.8805L21.6693 11.9474L21.1247 12.9915Z" fill="#2E3548"/>
<path d="M17.1363 10.781L17.6166 9.71257L17.6472 9.61779L17.6385 9.71662L17.6891 11.1445C17.8575 11.1602 18.0315 11.1835 18.203 11.2119L18.1249 9.09724C17.885 9.07088 17.6462 9.05213 17.4073 9.04199L16.9342 10.2083L16.9174 10.295L16.9006 10.2083L16.428 9.04199C16.1891 9.05213 15.9503 9.07088 15.7104 9.09724L15.6323 11.2119C15.8038 11.1835 15.9778 11.1607 16.1463 11.1445L16.1968 9.71662L16.1881 9.61779L16.2187 9.71257L16.699 10.781H17.1363Z" fill="#2E3548"/>
<path d="M13.2522 12.4663C13.5299 12.1759 13.6871 11.8403 13.4094 11.52C13.2584 11.3461 13.0047 11.3081 12.7944 11.3938L12.7735 11.4019L12.7802 11.3837C12.8113 11.301 12.8312 11.0375 12.6051 10.8555C12.4949 10.7668 12.3566 10.7339 12.2167 10.748C11.9559 10.7744 11.7554 10.9513 11.2093 11.556C11.0444 11.7385 10.8046 12.0264 10.6606 12.2129L12.1606 13.626C12.6577 13.0796 12.8603 12.8764 13.2522 12.4663ZM11.295 12.1206C11.5971 11.7537 11.9182 11.4207 12.0636 11.2889C12.1095 11.2473 12.1596 11.2057 12.2203 11.1895C12.3188 11.1627 12.4204 11.2321 12.4433 11.3325C12.4663 11.4333 12.4025 11.5291 12.3315 11.6082C12.1718 11.7871 11.5859 12.3959 11.5859 12.3959L11.295 12.1206ZM11.8824 12.6741C11.8824 12.6741 12.453 12.075 12.6393 11.8834C12.7133 11.8074 12.7608 11.7613 12.8118 11.7364C12.8776 11.7045 12.9496 11.6979 13.0139 11.7405C13.0772 11.7826 13.1063 11.855 13.0904 11.927C13.0716 12.0127 13.0011 12.0943 12.943 12.1566C12.8644 12.2402 12.1876 12.9595 12.1866 12.9605L11.8824 12.6741Z" fill="#2E3548"/>
<path d="M22.0657 16.6488H16.9182V11.5366C19.7629 11.5366 22.0657 13.8236 22.0657 16.6488Z" fill="#2E3548"/>
<path d="M16.918 16.6489V21.7611C14.0732 21.7611 11.7705 19.4742 11.7705 16.6489H16.918Z" fill="#2E3548"/>
</svg>
