<svg width="83" height="83" viewBox="0 0 83 83" fill="none" xmlns="http://www.w3.org/2000/svg">
<path d="M41.2561 0.457275C18.4792 0.457275 0.0136719 18.7963 0.0136719 41.4173C0.0136719 64.0383 18.4792 82.3773 41.2561 82.3773C64.0331 82.3773 82.4986 64.0383 82.4986 41.4173C82.4986 18.7963 64.0331 0.457275 41.2561 0.457275ZM79.8166 41.4173C79.8166 62.5668 62.5539 79.7138 41.2561 79.7138C19.9584 79.7138 2.69559 62.5668 2.69559 41.4173C2.69559 20.2678 19.9608 3.12083 41.2561 3.12083C62.5515 3.12083 79.8166 20.2678 79.8166 41.4173Z" fill="black"/>
<path d="M61.2447 24.0392C61.8049 24.6365 62.6124 25.5998 63.0658 26.185L71.4171 20.9205C71 20.3787 70.3356 19.555 69.8385 18.9746L64.5498 22.4474L64.1885 22.7556L64.4577 22.3655L66.7929 17.7368L65.1415 16.0967L60.4785 18.4159L60.0856 18.6832L60.3984 18.3244L63.8975 13.0743C63.2816 12.5542 62.6899 12.0773 61.9358 11.4993L56.635 19.7862C57.3067 20.2992 58.1918 21.053 58.7568 21.5659L63.7472 18.9939L64.0673 18.7603L63.8321 19.0782L61.2447 24.0392Z" fill="black"/>
<path d="M42.2941 13.5368L44.5759 8.46014L44.7214 8.00979L44.6802 8.47941L44.9202 15.2635C45.7204 15.3382 46.5473 15.449 47.3621 15.5838L46.9911 5.53649C45.8514 5.41126 44.7165 5.32215 43.5817 5.27399L41.3338 10.8154L41.2538 11.2273L41.1738 10.8154L38.9283 5.27399C37.7935 5.32215 36.6587 5.41126 35.519 5.53649L35.1479 15.5838C35.9627 15.449 36.7896 15.3406 37.5898 15.2635L37.8299 8.47941L37.7887 8.00979L37.9341 8.46014L40.216 13.5368H42.2941Z" fill="black"/>
<path d="M23.8385 21.5444C25.1576 20.1645 25.9045 18.5702 24.5853 17.0481C23.8676 16.2221 22.6624 16.0415 21.6633 16.4485L21.5639 16.487L21.5955 16.4003C21.7434 16.0078 21.8379 14.7555 20.7637 13.8909C20.2399 13.4694 19.5828 13.3129 18.9184 13.3803C17.6793 13.5056 16.7263 14.346 14.1317 17.2191C13.3484 18.0861 12.2087 19.454 11.5249 20.3403L18.6516 27.0545C21.0135 24.4584 21.9762 23.4927 23.8385 21.5444ZM14.539 19.9019C15.9746 18.1584 17.4998 16.5761 18.1909 15.95C18.4092 15.7525 18.6468 15.555 18.9354 15.4779C19.4034 15.3503 19.8859 15.6802 19.995 16.1571C20.1041 16.6363 19.801 17.0915 19.464 17.4672C18.705 18.3173 15.9212 21.2096 15.9212 21.2096L14.539 19.9019ZM17.3301 22.5318C17.3301 22.5318 20.0411 19.6852 20.9262 18.7749C21.2778 18.4136 21.5033 18.1945 21.7458 18.0765C22.0586 17.9247 22.4005 17.8934 22.706 18.0957C23.0067 18.2956 23.145 18.64 23.0698 18.982C22.9801 19.389 22.6454 19.7767 22.369 20.0729C21.9956 20.4703 18.7802 23.8877 18.7753 23.8925L17.3301 22.5318Z" fill="black"/>
<path d="M65.7137 41.4175H41.2563V17.1276C54.7727 17.1276 65.7137 27.9937 65.7137 41.4175Z" fill="black"/>
<path d="M41.2562 41.4175V65.7074C27.7399 65.7074 16.7988 54.8412 16.7988 41.4175H41.2562Z" fill="black"/>
</svg>
