<svg width="81" height="81" viewBox="0 0 81 81" fill="none" xmlns="http://www.w3.org/2000/svg">
<path d="M73.0569 64.3829C73.2527 64.1312 73.4038 63.8779 73.5939 63.6245C75.2942 61.3565 76.8207 58.2437 77.9906 55.486C80.0728 50.5788 81.0793 44.2064 80.7097 38.3311C80.1459 29.3623 76.8329 21.6966 71.4021 15.1322C71.0373 14.6908 70.6165 14.1833 70.2354 13.7831L68.3791 11.9185C68.1565 11.6951 67.9884 11.5724 67.7 11.307C67.4709 11.0964 67.2856 10.9431 67.0508 10.7325C66.9168 10.6115 66.8843 10.551 66.7348 10.4065C66.5967 10.2734 66.5017 10.2363 66.3668 10.1201C63.1148 7.31637 59.3217 5.21698 55.3312 3.57427C50.5113 1.59026 43.9016 0.432457 38.0629 0.861693C29.3304 1.50393 22.5827 4.24475 16.1127 9.03815C14.5196 10.2185 12.1856 12.3083 10.8776 13.8453L8.61186 16.5167C6.81646 18.6677 4.02344 23.6225 3.14849 26.0946C1.96482 29.4406 1.63174 30.2756 0.931453 33.8967C-0.415502 40.8613 0.467575 48.9434 3.14117 55.4868C3.64324 56.7164 4.18592 57.8089 4.6961 58.9497C5.35739 60.4286 7.67598 63.9005 8.59805 65.0768C10.5437 67.5603 12.3838 69.3434 14.7658 71.4548L16.5067 72.7982C16.6668 72.9088 16.7488 72.9878 16.8683 73.079C19.0763 74.7653 23.2464 77.0333 25.8201 77.9854C37.0612 82.1422 48.0992 81.65 58.818 76.3822C60.8433 75.3866 62.4811 74.3167 64.2611 73.075L65.0036 72.5215C65.6381 72.0487 67.3506 70.6714 67.7471 70.2422L70.2647 67.7402C70.6953 67.3497 72.6767 64.8711 73.0569 64.3821V64.3829ZM68.6456 63.2259L67.0923 64.9953C66.6828 65.3616 66.3636 65.7481 65.9582 66.1265L62.3617 69.2538C59.9042 71.0692 59.589 71.2475 56.8285 72.7151C48.0009 77.4061 36.3512 77.6215 27.206 73.9496C23.7151 72.5481 19.0406 69.7702 16.2346 67.014C15.8048 66.5921 15.5359 66.2693 15.0964 65.8877C14.9282 65.7417 14.6975 65.4907 14.5334 65.3132C13.6065 64.3071 12.8428 63.5616 11.9532 62.3102C11.1279 61.1492 10.9158 60.9499 10.0953 59.6347C6.96675 54.6186 5.15429 49.3371 4.70423 42.7541C4.33052 37.2959 5.44676 31.9353 7.2584 27.4364C8.06511 25.4322 9.15292 23.2965 10.3358 21.5384C11.3513 20.0288 12.8713 17.8496 14.2198 16.5207C15.0144 15.7373 14.743 15.8107 15.9039 14.8038L17.4174 13.4814C17.5417 13.3765 17.5702 13.3095 17.7018 13.2038C17.9008 13.0441 18.1348 12.8722 18.3476 12.7101C19.5817 11.7725 20.1966 11.2916 21.633 10.4065C26.8079 7.21632 31.9992 5.52842 38.6795 5.04271C43.8764 4.66511 49.7777 5.80678 54.0858 7.55761C56.2549 8.43867 58.238 9.52306 60.0244 10.6171C60.5232 10.9229 60.8588 11.215 61.3706 11.5369C62.5274 12.2655 65.1945 14.5335 66.2165 15.6001C72.2591 21.9072 76.1798 29.5681 76.5908 38.8152C76.9978 47.9744 74.2032 56.3985 68.6464 63.2276L68.6456 63.2259Z" fill="black"/>
<path d="M47.2786 16.9113L47.2835 22.1929L47.229 22.4551L31.5311 22.4381C31.4767 23.362 31.6676 27.451 31.4629 27.8996C31.3507 28.0263 30.7479 27.9867 30.5749 27.9875L19.8513 27.9932C18.9731 27.9932 16.6553 27.8786 15.9518 28.019C15.8356 28.4805 15.9054 35.4048 15.9071 36.4738C15.9119 39.2969 15.9184 42.1225 15.9103 44.9456C15.8981 49.2541 15.9859 52.2983 17.3036 56.3494C17.5481 57.1005 18.0745 58.8546 18.4093 59.3879C18.6692 60.3561 19.4361 61.8463 19.8756 62.7524C20.4078 63.8505 20.9415 64.8808 21.524 65.8773C22.0464 66.7713 24.4559 70.8183 25.2805 71.6389C25.6867 71.0031 26.1067 70.4407 26.5284 69.8114C28.916 66.2468 32.5312 59.6275 33.3403 55.5966C33.5856 55.1077 33.5938 54.1516 33.9049 53.7417C34.1495 54.0426 34.6255 55.6216 34.8765 55.8386C35.3542 57.6008 40.3066 65.6949 40.9907 66.1476L42.864 63.2825C43.1874 62.7839 43.475 62.3095 43.7885 61.7818L44.4352 60.6466C44.6091 60.3723 44.5628 60.511 44.5888 60.248C44.9811 59.9341 45.3865 58.8756 45.6416 58.3737C45.969 57.7299 46.2899 57.1231 46.571 56.4736C47.0195 55.4385 47.9976 53.5287 48.2121 52.3975C48.5979 51.8835 49.3551 48.3181 49.503 48.0325C49.6833 48.1673 50.8296 50.9557 51.0489 51.397C52.1343 53.5844 53.2546 55.7305 54.5479 57.7686L56.0379 59.9971C56.2483 60.2948 56.3336 60.5231 56.5984 60.7111C56.6626 60.4788 57.674 59.1305 57.9267 58.7182C58.9576 57.0392 60.775 54.1717 61.5817 52.4249C65.9889 42.8841 65.7704 40.5064 65.7875 30.0998C65.7907 27.8948 65.798 25.6889 65.7923 23.4838C65.7866 21.3739 65.7013 19.0042 65.8289 16.9121H47.277L47.2786 16.9113ZM30.3807 55.4844C29.202 59.1862 28.0443 61.1153 26.1083 64.3112C25.9093 64.6404 25.4389 65.3996 25.2131 65.6215C24.9815 65.4642 25.0904 65.5263 24.9133 65.2504L23.4721 63.0534C22.7296 61.8439 22.0935 60.4408 21.4631 59.2419C21.3046 58.9409 21.2177 58.4883 20.9521 58.2842C20.935 57.9824 20.1852 56.1041 20.0202 55.5861C18.7976 51.7407 18.7756 49.8035 18.774 45.6709C18.7724 40.7525 18.6887 35.7315 18.7821 30.8276L31.588 30.8292V48.6602C31.5092 51.1114 31.2451 51.7238 30.8503 53.924C30.7593 54.154 30.5156 55.0576 30.3791 55.4844H30.3807ZM45.3394 52.0231C44.7025 53.6715 43.7195 55.6047 42.8445 57.1328C42.518 57.7032 41.8827 58.4762 41.7015 59.0337L40.8923 60.0713C40.4268 59.7397 38.4267 56.1977 38.131 55.6749C37.9645 55.3804 37.5185 54.342 37.2877 54.1411C37.2861 54.1395 37.2861 54.137 37.2877 54.1338C37.2902 54.1265 37.3007 54.1161 37.3089 54.1064C37.3227 54.091 37.3284 54.0789 37.2812 54.0862C37.2146 53.6933 36.6606 52.5944 36.4851 52.1466C35.5858 49.8519 35.0699 48.1495 34.6905 45.6193C34.3314 43.2254 34.4736 30.0272 34.489 26.4683C34.4915 25.8341 34.4094 25.4202 34.7198 25.3661L47.2965 25.5009C47.2242 30.0079 47.2729 34.5447 47.2697 39.0549C47.268 41.2325 47.346 43.386 47.0934 45.537C46.883 47.333 45.8 50.8193 45.8 50.9347C45.5742 51.1647 45.4727 51.677 45.3394 52.0223V52.0231ZM37.2219 54.0999C37.226 54.0991 37.2309 54.0975 37.2341 54.0967C37.2301 54.0975 37.226 54.0983 37.2219 54.0999ZM37.2585 54.0919C37.2585 54.0919 37.2601 54.0919 37.2609 54.0919C37.2601 54.0919 37.2593 54.0919 37.2585 54.0919ZM62.9164 33.8121C62.9026 38.971 62.9099 41.264 60.9537 46.4729C60.1486 48.6159 58.0672 52.6387 56.5732 54.5405C56.2694 54.4477 56.2718 54.3347 56.1224 54.1072C54.2872 51.2978 53.0807 49.3573 51.8207 45.9557C49.8466 40.6242 50.1399 38.0601 50.0798 32.6018C50.0659 31.3206 49.9969 20.3057 50.1423 19.9337C50.5355 19.7304 61.2218 19.8329 62.8986 19.8918C63.0091 23.5984 62.927 29.8804 62.9173 33.8121H62.9164Z" fill="black"/>
<path d="M31.0056 31.5473L19.5159 31.5449C19.6044 31.8822 24.4707 40.5282 25.0914 41.5126L27.9055 46.4665C28.3791 47.3468 28.8463 48.0955 29.3085 48.9451C29.5831 49.4494 30.4735 51.1171 30.8074 51.3842C31.0397 47.4847 31.0405 45.4491 31.0405 41.5569C31.0405 38.2465 31.1039 34.8247 31.0056 31.5473Z" fill="black"/>
<path d="M50.8597 20.4517C50.906 20.7599 52.8046 24.0058 53.1222 24.5706L61.1625 38.854C62.0895 40.4725 62.044 40.7275 62.1683 39.4551C62.4169 36.92 62.4884 21.073 62.2828 20.4735L50.8589 20.4517H50.8597Z" fill="black"/>
<path d="M46.566 26.0011L35.2039 25.9866C35.2607 26.3012 36.303 28.0698 36.5411 28.4498L42.1255 38.2311C42.591 39.0516 43.0695 39.8875 43.5293 40.7161C44.4619 42.3976 45.4693 44.0459 46.3264 45.6749C46.5799 45.399 46.553 44.079 46.5734 43.4933C46.7017 39.7713 46.5969 34.8472 46.6115 30.9873C46.6164 29.6649 46.761 27.1944 46.566 26.0019V26.0011Z" fill="black"/>
<path d="M40.097 42.6686C39.3082 41.2268 38.4592 39.8262 37.6354 38.419L35.3623 34.4599C35.1674 34.1807 35.3892 34.3825 35.1243 34.2534C35.1243 41.4527 34.5556 45.0746 36.9676 51.5075C37.5258 52.9953 39.9166 57.9114 40.92 58.9586C41.5609 58.3495 44.7626 52.3289 44.9949 51.159L43.7471 48.9692C42.5691 46.8747 41.249 44.7737 40.0978 42.6703L40.097 42.6686Z" fill="black"/>
<path d="M59.7003 43.9364C59.1162 42.8972 58.5329 41.929 57.9431 40.918C56.7465 38.867 55.5929 36.8508 54.4108 34.8288L51.7413 30.2194C51.5967 29.9451 51.4578 29.7038 51.3058 29.4376C50.9971 28.8962 51.0719 28.8938 50.7981 28.7897C50.963 37.142 50.0767 41.1875 53.7455 48.6434C54.1923 49.5519 54.5831 50.3184 55.0591 51.1269C55.4889 51.8571 55.9714 52.7769 56.4914 53.4014C56.6595 53.315 56.4646 53.5038 56.6685 53.2723C56.7164 53.2174 56.753 53.1415 56.7928 53.0746C56.8878 52.9156 56.909 52.8745 57.0073 52.7188L58.3656 50.437C58.9091 49.4519 59.4843 48.3441 59.9546 47.1726C60.0903 46.8345 60.6484 45.7146 60.5818 45.4774C60.5241 45.2725 59.8474 44.197 59.7012 43.9364H59.7003Z" fill="black"/>
<path d="M19.9694 40.3901C19.8719 40.2344 19.8386 40.1916 19.7614 40.0351C19.6355 39.7777 19.7151 39.789 19.4446 39.6769L19.4738 48.5763C19.4828 52.9824 21.2814 57.5087 23.1889 61.0798L24.9299 64.0255C25.0802 64.274 25.0509 64.3007 25.3336 64.3951L27.1087 61.4332C27.4231 60.8837 29.4606 57.1037 29.1641 56.5187L19.9678 40.3901H19.9694Z" fill="black"/>
</svg>
