<svg width="126" height="26" viewBox="0 0 126 26" fill="none" xmlns="http://www.w3.org/2000/svg">
<mask id="mask0_225_1534" style="mask-type:luminance" maskUnits="userSpaceOnUse" x="0" y="0" width="126" height="26">
<path d="M0.519531 0.737305H125.677V25.8952H0.519531V0.737305Z" fill="white"/>
</mask>
<g mask="url(#mask0_225_1534)">
<path d="M28.7522 1.18891C26.8026 1.15297 18.3425 1.12901 13.4084 1.12901H0.519531V5.74128C10.8932 5.74128 23.2044 5.71732 28.5958 5.80118C29.5585 5.81316 30.5092 5.909 31.2674 6.57987C31.9774 7.20283 32.2181 8.18518 31.9052 9.03576C31.3998 10.4135 29.9917 10.7489 28.5958 10.7728C26.4536 10.8088 20.5929 10.8208 16.2124 10.8208C5.46566 10.8327 10.123 10.8208 0.519531 10.8208V15.4211C10.8932 15.4211 23.2284 15.3971 28.5958 15.481C30.2685 15.5049 32.0376 16.08 32.0376 17.9488C32.0376 19.8177 30.2685 20.4167 28.5958 20.4406C23.2405 20.5245 10.8932 20.5005 0.519531 20.5005V25.1128C10.9293 25.1128 24.5522 25.1488 28.7522 25.0529C30.9665 25.005 34.2519 24.4419 36.1534 21.5668C37.9465 18.8713 37.5132 15.3612 35.1545 13.1209C37.5132 10.8687 37.9465 7.35857 36.1534 4.67507C34.2399 1.79988 30.9665 1.24881 28.7522 1.18891ZM111.453 1.25839C108.709 1.19849 104.557 1.16255 100.898 1.15057C91.9688 1.11463 97.3362 1.12661 88.8279 1.12661V5.75086C97.8898 5.75086 104.232 5.67898 111.224 5.87066C113.282 5.93056 115.484 6.1462 117.47 7.51191C119.347 8.80575 120.466 10.8783 120.466 13.1065C120.466 15.3348 119.383 17.4073 117.506 18.7131C115.52 20.0789 113.318 20.2945 111.26 20.3544C104.268 20.5461 97.9138 20.4742 88.864 20.4742L88.8279 25.0984C97.9379 25.0984 104.485 25.1344 111.453 24.9667C114.244 24.9068 117.674 24.5833 120.851 22.3191C123.86 20.1747 125.677 16.8083 125.677 13.0946C125.677 9.38078 123.86 6.01442 120.851 3.87001V3.90595C117.686 1.64175 114.244 1.31829 111.453 1.25839ZM48.1877 8.24508C48.1757 6.01682 48.1877 3.38123 48.1877 1.12901H42.8324C42.8324 3.40519 42.7843 8.02945 42.8806 10.2697C43.0611 14.6064 44.4811 15.9602 48.9339 16.1159C52.0267 16.2237 54.4697 16.1878 58.7419 16.1758V11.5276C55.3241 11.5276 53.9281 11.5276 51.4009 11.4916C48.97 11.4437 48.1998 10.653 48.1877 8.24508ZM67.9963 11.5276C70.4995 11.5276 73.5562 11.5156 74.7115 11.4916C77.1425 11.4437 77.9127 10.677 77.9247 8.32894H77.9608V1.12901H83.3041V8.12528C83.2921 8.93992 83.28 9.68268 83.2559 10.2697C83.0754 14.6424 81.6433 15.9721 76.9138 16.1159C75.3734 16.1758 71.2817 16.1758 68.0084 16.1758H67.3706V25.1128H61.0766V11.5276H67.9963Z" fill="black"/>
</g>
</svg>
