<svg width="119" height="47" viewBox="0 0 119 47" fill="none" xmlns="http://www.w3.org/2000/svg">
<path fill-rule="evenodd" clip-rule="evenodd" d="M110.145 11.8313L118.036 0.214539H0.824707L8.71566 11.8313C9.58097 16.7648 11.8425 29.4806 12.0992 30.7093L12.1318 30.866C12.8539 34.3297 13.2967 36.4541 19.8928 38.0903C28.8066 40.2944 49.1855 44.5809 59.4234 46.2518C69.6653 44.5789 90.0538 40.2944 98.9675 38.0903C105.564 36.4541 106.007 34.3297 106.729 30.866L106.761 30.7093C107.018 29.4725 109.28 16.7648 110.145 11.8313ZM14.4346 10.5539H24.7115L22.7669 7.02774H57.6307V10.5397H58.7974V5.80909H11.2514L14.4346 10.5539ZM15.4204 15.1992H58.7836V11.6751H14.8584L15.4204 15.1992ZM26.4343 21.1041H16.3733L15.5954 16.2964H58.7954V21.1041H57.6287V17.4238H26.0688L26.4343 21.1041ZM58.7899 27.0229H42.5433L42.5491 24.4983H58.7899V27.0229ZM60.0752 5.80909H76.4657L76.4734 12.8919H60.0752V5.80909ZM18.7119 33.1202C18.9783 33.5419 19.4722 34.0326 21.1114 34.497C21.8187 34.6777 22.5968 34.8584 23.6224 35.0967L24.0089 35.1865H41.4066V32.6862H18.4864C18.5472 32.8378 18.6214 32.983 18.7081 33.1202H18.7119ZM41.4069 29.3H17.7186L16.5537 22.2375H41.4069V29.3ZM42.5433 39.2074C48.6103 40.4524 54.5411 41.6022 58.7997 42.2976V30.4456H42.5433V39.2074ZM102.495 21.1039H77.5889V14.0191H103.632L102.495 21.1039ZM77.5889 8.06192V10.5763L104.377 10.5661L106.057 8.06192H77.5889ZM111.814 2.39843H7.05531L13.2778 11.6631C13.8141 14.985 14.28 17.8979 14.6765 20.3774L14.6768 20.3793C15.4302 25.0909 15.9334 28.2381 16.1946 29.6529C16.2266 29.8266 16.2574 29.9956 16.2873 30.1603L16.2879 30.1631C16.906 33.5592 17.1826 35.0791 20.7313 36.0767C28.1322 37.9016 49.5805 42.5006 59.4373 44.0518C69.2942 42.5006 90.7444 37.9078 98.1493 36.0767C101.698 35.0791 101.974 33.5599 102.593 30.1638L102.654 29.826L102.686 29.6529C102.946 28.2088 103.467 24.9599 104.249 20.0839C104.636 17.669 105.087 14.8548 105.603 11.6631L111.814 2.39843ZM61.2419 27.0229H60.0752V22.2375H102.318L101.541 27.033H91.7537C91.9034 26.1935 92.1931 23.8029 92.2339 23.4562H61.2419V27.0229ZM60.0752 31.6422H100.716L101.373 28.1323H60.0752V31.6422ZM60.0752 16.2984H76.4734V18.8268H60.0752V16.2984ZM60.0752 32.6862H100.389C100.333 32.839 100.259 32.9846 100.172 33.1202C99.9052 33.5419 99.417 34.061 97.7681 34.4888C90.4683 36.3829 70.4065 40.5315 60.0752 42.2936V32.6862ZM64.0606 40.3513C62.9462 40.557 61.9172 40.7469 61.2422 40.8744V33.901H89.9611C88.6445 35.5166 85.994 36.0443 71.2868 38.9729C70.6362 39.1024 69.9621 39.2366 69.2633 39.3758C68.2318 39.5811 66.015 39.9904 64.0606 40.3513Z" fill="black"/>
</svg>
