<svg width="28" height="25" viewBox="0 0 28 25" fill="none" xmlns="http://www.w3.org/2000/svg">
<path fill-rule="evenodd" clip-rule="evenodd" d="M0.00167188 8.02008C0.00167188 8.524 0.0618596 8.94393 0.167188 9.42536C0.197282 9.56333 0.225704 9.72081 0.269173 9.86179L0.545033 10.6702C0.688815 11.0601 0.827581 11.435 1.01483 11.804L1.57157 12.8883C1.69529 13.1103 1.82904 13.3832 1.96446 13.5917L2.60479 14.5725C2.65662 14.643 2.67334 14.67 2.71681 14.736C2.93081 15.0644 3.18828 15.3704 3.42234 15.6868C3.46581 15.7453 3.4959 15.7948 3.54272 15.8428L4.17469 16.5957C4.44553 16.9181 4.76486 17.3216 5.07918 17.6035C5.32327 17.8225 5.5239 18.094 5.76465 18.3084C5.82149 18.3594 5.85493 18.3894 5.91177 18.4404L8.54164 20.657C8.5801 20.684 8.58846 20.699 8.62524 20.729L10.7201 22.1058C11.1732 22.4013 12.7514 23.2306 13.2246 23.4076C13.6325 23.5606 14.012 23.7705 14.425 23.9145C14.5353 23.9535 14.4334 23.9175 14.5119 23.9535C14.5537 23.973 14.5788 23.979 14.6256 23.9985C14.7176 24.0345 14.7243 24.045 14.8313 24.078L15.4699 24.297C15.5569 24.3285 15.5853 24.3419 15.6822 24.3704L17.5715 24.7874C18.4074 24.9179 19.1982 24.9299 20.0174 24.7469C20.183 24.7094 20.305 24.6449 20.4388 24.5969C20.83 24.4604 21.1643 24.2175 21.4569 23.955L21.7345 23.6761C22.1775 23.2756 23.4749 22.1943 23.724 21.8239C24.0316 21.3679 24.1169 20.9315 23.9464 20.4156C23.8226 20.0451 23.5618 19.7857 23.2709 19.5247C22.8931 19.1858 22.537 18.8663 22.1591 18.5274L19.9054 16.5597C19.6864 16.4112 19.4925 16.3137 19.1731 16.2478C18.588 16.1278 17.9326 16.3182 17.533 16.6782C17.4611 16.7427 17.4578 16.7337 17.3876 16.7817C17.1518 16.9466 15.8678 18.1285 15.5819 18.4179L15.2944 18.6579C15.1121 18.7838 14.8981 19.1033 14.6474 19.1033C14.4517 19.1033 13.8248 18.7629 13.6008 18.6639C13.4737 18.6069 13.3968 18.5559 13.263 18.4974L11.3203 17.2481C11.2551 17.1986 11.2518 17.1836 11.1815 17.1386L10.8957 16.9256C10.6198 16.7172 10.3774 16.4652 10.0965 16.2643L9.72366 15.9238C9.66849 15.8803 9.66515 15.8518 9.60496 15.7963L8.9663 15.1949C8.90946 15.1349 8.92116 15.1259 8.85261 15.0629L8.03506 14.1841C7.73078 13.8721 7.41145 13.4612 7.1824 13.1013L6.72431 12.3679C6.61898 12.1984 6.44176 11.8835 6.44176 11.6825C6.44176 11.4965 6.84635 11.2761 6.97175 11.1306C7.13893 10.9386 7.35461 10.7916 7.5452 10.6192C7.90298 10.2982 8.63861 9.68482 8.91782 9.38786C9.29566 8.98593 9.67852 8.59899 9.67852 8.01708C9.67852 7.51017 9.39597 7.15322 9.09671 6.80828C8.97132 6.6643 5.76966 3.77877 5.52557 3.64679C5.45033 3.6063 5.40018 3.5808 5.32327 3.53431C5.01564 3.34984 4.62777 3.32434 4.24992 3.32434C3.63467 3.32434 3.1632 3.75627 2.77031 4.10871C2.37742 4.46116 1.61504 5.20054 1.20877 5.49449C0.944613 5.68496 0.625284 6.0284 0.458096 6.28786C0.160501 6.74979 0 7.2897 0 8.01858L0.00167188 8.02008Z" fill="#2E3548"/>
<path fill-rule="evenodd" clip-rule="evenodd" d="M12.4279 1.71384C12.4279 1.88331 12.5315 2.16677 12.6017 2.29125C12.6603 2.39623 12.8927 2.63619 12.9963 2.69918C13.4728 2.98713 14.1399 2.91664 14.7234 2.99763L15.4757 3.08462C16.1863 3.1836 17.1242 3.37857 17.8013 3.63803C17.9233 3.68452 17.9534 3.71002 18.0972 3.75351C18.4048 3.84649 18.6707 3.99947 18.9566 4.12695C19.311 4.28442 19.6721 4.48389 19.9864 4.69836C20.0399 4.73435 20.0316 4.73435 20.0985 4.77484C20.6702 5.11979 21.1969 5.55922 21.6567 6.01664L22.3154 6.74553C22.7066 7.21195 23.0777 7.70237 23.387 8.21829C23.6228 8.60823 23.81 9.00266 23.9789 9.4166C24.2999 10.2025 24.5223 11.0783 24.5557 11.9197C24.5607 12.0487 24.5908 12.0757 24.5891 12.2406C24.5891 12.4881 24.5891 12.6981 24.6593 12.9395C24.7112 13.115 24.8081 13.298 24.9553 13.4374C25.6675 14.1078 27.2458 13.8259 27.3661 12.827C27.4163 12.4086 27.3661 12.4071 27.3661 12.0652C27.3695 11.5807 27.229 10.6614 27.1053 10.2175C26.9849 9.78854 26.883 9.32211 26.7091 8.90068C26.6857 8.84519 26.6673 8.82269 26.6422 8.7552C26.4232 8.1658 25.9601 7.15946 25.5555 6.62105C25.2428 6.20561 24.9921 5.79018 24.6443 5.38525L23.3854 4.02047L22.2853 3.15961C21.7035 2.76667 21.1317 2.38723 20.4997 2.06178C20.2991 1.9583 20.1102 1.83982 19.8911 1.75733L19.4297 1.55486C19.3712 1.52937 19.3361 1.51287 19.2776 1.48588C18.9633 1.3434 18.6255 1.25341 18.2978 1.13343C18.1674 1.08544 18.0855 1.07194 17.9518 1.03295L17.2245 0.834981C16.6494 0.674506 15.9054 0.550027 15.3002 0.508033C14.5277 0.455542 13.3725 0.190085 12.7907 0.809485C12.5767 1.03595 12.4229 1.40039 12.4229 1.71084L12.4279 1.71384Z" fill="#2E3548"/>
<path fill-rule="evenodd" clip-rule="evenodd" d="M12.2634 6.23106C12.2634 6.56101 12.3253 6.81147 12.5376 7.07093C12.678 7.2419 12.9305 7.39637 13.1746 7.46836C13.3384 7.51635 13.947 7.54935 14.1292 7.55085C14.273 7.55085 14.4636 7.58984 14.589 7.60784C15.5302 7.74132 16.2976 8.00977 17.05 8.50919C17.2824 8.66367 17.7488 8.98462 17.9261 9.19008C18.3557 9.685 18.7988 10.1004 19.0512 10.7903C19.1014 10.9253 19.1482 11.0168 19.19 11.1353C19.2368 11.2657 19.2636 11.3872 19.3054 11.5312C19.4441 12.0276 19.4224 12.1506 19.4558 12.5705C19.4909 13.0115 19.6197 13.4929 20.0243 13.7613C20.4055 14.0133 20.8903 14.0703 21.3484 13.9158C21.6644 13.8093 21.8734 13.7059 22.0489 13.4299C22.2345 13.1389 22.298 12.8945 22.2679 12.5105C22.2596 12.4011 22.2362 12.4161 22.2328 12.2781C22.2261 11.7277 22.1258 11.1158 21.9269 10.5864C21.6677 9.89797 21.5858 9.64001 21.1979 9.01011C21.0057 8.69816 20.683 8.27673 20.4539 8.00527L20.0326 7.56135C19.954 7.49086 19.9557 7.46686 19.8872 7.39937L19.0813 6.74398C18.9994 6.68849 18.9693 6.66149 18.8974 6.615L17.9762 6.06309C17.896 6.0151 17.8542 6.0031 17.7639 5.9596L16.9263 5.59666C16.7775 5.53217 16.627 5.50818 16.4682 5.44969C16.0184 5.28471 15.4533 5.20073 14.9668 5.12424C14.2095 5.00726 12.7282 4.83779 12.3871 5.72864C12.3236 5.89362 12.2617 5.9986 12.2617 6.23106H12.2634Z" fill="#2E3548"/>
</svg>
