<svg width="78" height="70" viewBox="0 0 78 70" fill="none" xmlns="http://www.w3.org/2000/svg">
<path d="M70.2215 11.386C74.8077 16.5543 76.4738 24.2014 75.4325 35.5709C74.5994 47.56 71.6794 55.0005 66.4684 59.7557C61.0492 64.7175 52.0895 67.1962 38.7475 67.1962C25.4056 67.1962 16.4459 64.9241 11.0266 59.7557C6.02395 55.0005 3.31651 47.56 2.27085 35.5709C1.22953 24.2014 2.89565 16.5543 7.48181 11.386C12.901 5.39142 22.9064 2.49526 38.9515 2.49526C54.9965 2.49526 64.7936 5.39142 70.2129 11.386H70.2215ZM38.9601 0.842773C6.86135 0.842773 -1.47357 12.6254 0.40081 35.7774C2.48346 59.1361 10.8227 69.0596 38.7519 69.0596C66.681 69.0596 75.016 59.1361 77.103 35.7774C79.1856 12.6254 70.8463 0.842773 38.9601 0.842773Z" fill="#2E3548"/>
<path d="M38.9609 4.15234C10.1986 4.15234 2.28025 14.6956 4.15463 35.782C6.02901 56.6619 13.5352 65.5484 38.7526 65.5484C63.97 65.5484 71.4762 56.6576 73.3506 35.782C75.2249 14.6956 67.7231 4.15234 38.9609 4.15234ZM53.3398 9.11412C47.7123 23.1689 41.46 36.6083 39.5857 40.7438C39.3166 41.0881 38.8177 41.1483 38.4749 40.8815C38.4228 40.8428 38.3751 40.7954 38.3361 40.7438C36.2534 36.4017 30.0011 23.1732 24.5819 9.11412C24.3737 8.90755 24.5819 8.70099 24.7902 8.70099C28.7516 7.87475 33.546 7.46163 39.1691 7.46163C44.7923 7.46163 49.3828 7.87475 53.5481 8.70099C53.3398 8.70099 53.5481 8.90755 53.3398 9.11412ZM7.2786 35.3689C6.6538 25.6519 7.90339 19.2442 11.6565 14.9021C13.7391 12.63 16.6592 10.9732 20.6206 9.7338C20.7594 9.7338 20.8288 9.87151 20.8288 10.1469V29.1635C20.8288 32.2662 21.6619 35.3646 23.1197 38.2608L35.8326 61.826C36.0408 62.0325 35.8325 62.2391 35.6243 62.2391C25.6189 61.8259 19.1584 59.9669 14.9887 56.0379C10.6108 52.109 8.31992 45.7013 7.2786 35.3646V35.3689ZM70.4305 35.3689C69.5975 45.7056 67.094 52.1133 62.7204 56.0422C58.5508 59.9712 51.8819 62.0368 42.0848 62.2434C41.6683 62.2434 41.6683 61.8303 41.6683 61.8303L54.3811 38.2651C55.839 35.3689 56.4638 32.2705 56.4638 29.1678V9.94036C56.4638 9.52724 56.672 9.52724 56.8803 9.52724C60.8417 10.7666 63.7574 12.4234 65.8444 14.6956C69.8057 19.2442 71.2636 25.6519 70.4305 35.3689Z" fill="#2E3548"/>
</svg>
