<svg width="114" height="30" viewBox="0 0 114 30" fill="none" xmlns="http://www.w3.org/2000/svg">
<path fill-rule="evenodd" clip-rule="evenodd" d="M100.762 18.3159H74.1639C73.7139 18.3159 72.7619 18.2647 72.3723 18.3332L72.3737 24.5341L40.9992 24.5428L40.965 18.6898H9.41419L12.5402 12.5768C12.616 12.428 12.9074 11.8237 13.0084 11.708L41.0467 11.6622L41.06 5.52425L72.433 5.52198L72.434 11.3618C72.672 11.4249 79.9175 11.3827 80.3656 11.3827H104.29C104.262 11.5437 103.955 12.0709 103.865 12.2533L100.762 18.3159H100.762ZM9.44982 6.84946L9.31598 7.12258L6.92638 11.791C6.90171 11.8455 6.88207 11.8858 6.85786 11.9339C6.83685 11.9752 6.8469 11.9684 6.82132 12.0038C6.78934 12.0482 6.79208 12.0369 6.76147 12.0641C6.75508 12.207 5.30652 14.9332 5.12197 15.3161C4.85747 15.8647 4.55415 16.4095 4.29102 16.9422C4.19007 17.1468 3.52175 18.4806 3.44455 18.555L3.29288 18.8848L0.668945 23.9974L35.6408 24.007L35.6458 29.859H77.7266L77.7271 23.6331L104.055 23.6322C104.083 23.546 104.07 23.5328 104.142 23.4784L104.369 22.9898C104.537 22.6405 104.728 22.3052 104.9 21.9626L106.53 18.7814C106.898 18.0614 107.255 17.3913 107.619 16.6663L111.965 8.18784C112.147 7.82579 112.338 7.48235 112.509 7.13029C112.648 6.84538 112.952 6.34134 113.047 6.06323L77.7969 6.05824C77.7545 5.71706 77.7686 0.37446 77.8088 0.216123L35.6956 0.205688C35.707 0.879412 35.7367 6.13173 35.676 6.35585L9.68462 6.39351L9.44937 6.84901L9.44982 6.84946Z" fill="black"/>
</svg>
