<svg width="34" height="34" viewBox="0 0 34 34" fill="none" xmlns="http://www.w3.org/2000/svg">
<rect x="0.5" y="0.5" width="32.7281" height="32.3588" rx="9.5" stroke="#2E3548" stroke-opacity="0.2"/>
<path fill-rule="evenodd" clip-rule="evenodd" d="M26.1355 17.3765H20.5375C20.4428 17.3765 20.2424 17.3657 20.1604 17.3802L20.1607 18.6852L13.5575 18.6871L13.5503 17.4552H6.90991L7.56782 16.1686C7.58378 16.1373 7.64512 16.0101 7.66637 15.9858L13.5675 15.9761L13.5703 14.6843L20.1732 14.6838L20.1734 15.9129C20.2235 15.9262 21.7484 15.9173 21.8428 15.9173H26.8781C26.872 15.9512 26.8076 16.0622 26.7885 16.1006L26.1356 17.3765H26.1355ZM6.91741 14.9632L6.88924 15.0207L6.38631 16.0033C6.38112 16.0147 6.37699 16.0232 6.37189 16.0333C6.36747 16.042 6.36958 16.0406 6.3642 16.048C6.35747 16.0574 6.35805 16.055 6.3516 16.0607C6.35026 16.0908 6.04539 16.6646 6.00654 16.7452C5.95088 16.8606 5.88704 16.9753 5.83166 17.0874C5.81041 17.1305 5.66975 17.4112 5.65351 17.4268L5.62159 17.4963L5.06934 18.5723L12.4297 18.5743L12.4308 19.806H21.2873L21.2874 18.4956L26.8286 18.4954C26.8344 18.4773 26.8318 18.4745 26.8469 18.4631L26.8946 18.3602C26.93 18.2867 26.9703 18.2161 27.0064 18.144L27.3494 17.4745C27.4269 17.323 27.502 17.1819 27.5786 17.0293L28.4934 15.2449C28.5317 15.1687 28.5719 15.0964 28.6079 15.0223C28.6371 14.9624 28.701 14.8563 28.721 14.7978L21.3021 14.7967C21.2932 14.7249 21.2962 13.6005 21.3046 13.5671L12.4413 13.5649C12.4437 13.7067 12.4499 14.8122 12.4371 14.8593L6.96683 14.8673L6.91731 14.9631L6.91741 14.9632Z" fill="#2E3548"/>
</svg>
