<svg width="88" height="48" viewBox="0 0 88 48" fill="none" xmlns="http://www.w3.org/2000/svg">
<path fill-rule="evenodd" clip-rule="evenodd" d="M47.9632 42.5549C47.9585 40.7809 48.6412 37.688 49.1041 36.1323C49.9926 33.1462 50.9184 30.866 52.5831 28.2376L53.2518 27.2205C54.8556 25.0425 55.6459 24.0626 57.8483 22.205C59.1996 21.0626 60.7427 20.027 62.3653 19.1121C65.76 17.1988 70.3706 15.6524 74.2423 16.4372C75.949 16.7809 78.5162 17.6168 78.5115 19.7205C78.5115 21.4156 77.7212 24.0022 77.291 25.6741C76.8936 27.2252 76.2904 29.2314 75.6872 30.5688C74.3405 33.5596 70.8148 36.1045 68.0606 37.5905C65.096 39.188 63.5343 39.9636 60.074 40.9295C58.3907 41.3986 56.5624 41.7747 54.6732 41.993C52.7374 42.2159 49.7822 42.6525 47.9632 42.5549ZM49.352 16.2793C49.4969 16.14 49.4408 16.2189 49.5624 15.9867L50.0206 14.7793C50.8296 12.8428 51.3533 11.9186 52.1576 10.2003C52.6205 9.21583 54.0233 6.9635 54.6826 6.02541C55.038 5.51922 55.4401 5.12913 55.6365 4.78547C55.4775 4.55792 55.5149 4.63686 55.3185 4.48826C55.1876 4.39073 55.1034 4.32572 54.9211 4.19569C54.5938 3.95884 54.3927 3.84274 54.1168 3.67092C52.4288 2.61673 50.8997 1.85977 48.9685 1.30713L48.4121 1.05636C47.9024 1.11209 46.7708 0.847379 46.177 0.759144C44.2551 0.475861 40.3741 0.77772 38.7001 1.17246C37.4329 1.46967 35.9506 2.10125 34.8096 2.67246C33.7762 3.18794 31.9947 4.26535 31.5551 4.79476L33.4442 7.3861C34.5384 8.96505 36.4088 12.9682 37.185 14.8072C37.4188 15.3598 37.5685 16.0796 37.9566 16.4976C37.8817 16.7809 38.8076 19.2375 38.9572 19.7251C39.7101 22.1911 40.187 24.1276 40.7668 26.6586C40.9492 27.4667 41.4262 29.3939 41.4075 30.1834C41.1783 29.7933 41.1082 29.2964 40.9819 28.7763C40.36 26.2685 39.1115 23.3242 38.1483 20.8861C36.5257 16.7716 32.4155 10.2282 28.7168 7.06566C25.8083 4.58114 23.6013 5.51458 20.4076 6.31798C19.4724 6.55483 18.5185 6.82882 17.644 7.13068C11.6027 9.22047 8.79238 10.1307 2.63877 13.6322C0.810452 14.6725 -0.297759 15.3691 0.0763211 17.9186L1.44171 23.6911C2.21325 26.8072 3.07831 30.2902 4.4437 33.1787C5.9447 36.3506 9.46572 39.7732 12.3882 41.3289C16.447 43.4884 18.1116 44.1432 22.7362 45.3274C25.9673 46.154 35.151 47.2871 38.6252 47.3382C41.674 47.38 42.3052 47.5611 45.4709 47.4358C46.6492 47.3893 47.7855 47.4311 48.9358 47.3243C54.0233 46.8553 56.6185 46.7299 61.8415 45.88C66.6344 45.0998 68.6685 44.1246 72.7366 42.4528C74.2797 41.8212 75.9163 40.6138 77.1882 39.736C79.3111 38.2685 80.9898 36.2856 82.285 34.1029C84.1086 31.0332 85.8107 24.0348 86.5542 20.5239C86.7599 19.558 87.0358 18.6756 87.2042 17.5611C87.2836 17.027 87.2275 16.5022 87.0779 15.9914C86.9002 15.3691 86.6243 15.2855 86.4934 14.8443C85.9697 14.6028 85.5395 14.2127 84.955 13.8505C80.4707 11.0456 71.7406 7.54864 66.6578 6.29012C63.7727 5.57495 61.6966 4.7251 59.1669 6.57805C57.0112 8.15235 54.1449 11.8768 52.6626 14.1617C52.0407 15.1183 51.4515 16.0285 50.9278 17.1152C50.6893 17.6075 50.39 18.0069 50.1095 18.6524C49.1603 20.8397 48.1362 22.8691 47.3693 25.2886L46.2611 28.8459C46.0741 29.4868 45.9245 30.202 45.714 30.671C45.686 29.6354 46.1863 27.7964 46.3967 26.7515C46.523 26.1153 46.6679 25.544 46.8035 24.945L48.2858 19.623C48.4589 19.0146 49.3754 16.6973 49.366 16.2932L49.352 16.2793ZM8.68015 19.8366C8.68015 18.1973 9.76031 17.5471 11.0135 17.0549C15.9279 15.109 20.5619 16.8087 24.9199 19.1864C30.2365 22.0843 34.646 26.9233 36.8297 32.445C37.1196 33.1787 37.4282 33.9775 37.6807 34.702C38.3213 36.5363 39.2471 40.7345 39.2284 42.6339C36.5257 42.4156 34.7021 42.3227 31.9479 41.9326C27.0662 41.2407 24.7796 40.2887 20.4637 38.3289C19.7856 38.0224 19.1076 37.6323 18.5184 37.2469C17.9667 36.8846 17.1297 36.4202 16.6668 36.0905C14.1464 34.2933 12.131 32.5007 11.0883 29.4821C10.4009 27.4992 8.68951 21.7453 8.68483 19.8412L8.68015 19.8366Z" fill="#2E3548"/>
</svg>
