<svg width="103" height="60" viewBox="0 0 103 60" fill="none" xmlns="http://www.w3.org/2000/svg">
<path d="M0.38572 59.9689L102.806 59.9497L102.8 0.16842L6.6939 0.100536C5.78261 0.100536 0.841361 0.0386604 0.373618 0.125167C0.181801 0.533068 0.311293 6.62215 0.311293 7.60435V59.0876C0.311293 59.3321 0.255624 59.7598 0.386325 59.9689H0.38572ZM95.8694 27.9531C95.8482 28.0018 95.8053 28.1069 95.7714 28.1592C95.6092 28.4091 95.7508 28.2391 95.6237 28.304C95.582 28.8422 94.3918 29.7902 93.9755 30.0984C93.6554 30.3357 93.3468 30.5471 92.9686 30.7814C92.66 30.9725 92.1747 31.2987 91.8316 31.4098C91.7342 31.611 89.1268 32.7645 88.6342 32.9681C87.4749 33.4487 86.3179 33.9041 85.1228 34.3414C68.4874 40.4233 51.478 43.8397 34.0057 46.8638L29.868 47.5534C29.3549 47.5979 28.5023 47.8454 28.0576 47.7769C27.9602 47.8388 28.0388 47.8075 27.8851 47.8532L25.0218 48.2779C25.216 47.7276 28.4509 43.0629 28.8339 42.5024L31.3088 39.0049C31.4613 38.6913 31.1261 38.4931 30.9457 38.3135C30.7612 38.1303 29.9721 37.2478 29.7174 37.1883C29.6587 36.9192 28.3135 35.6955 28.1338 35.5182C27.8434 35.2311 27.6032 34.992 27.3169 34.706C27.0949 34.4838 26.71 34.005 26.4498 33.9425C26.4002 33.7238 26.1709 33.5664 26.0166 33.4145L22.6891 30.1098C22.4719 29.8941 19.1269 26.4399 18.831 26.3696C18.7572 26.0644 17.0018 24.4653 16.8953 24.4136C16.8771 24.3187 16.9395 24.3481 16.8124 24.3289C16.6472 24.0249 14.9124 22.3879 14.4961 21.9638C14.2347 21.6971 14.2958 21.7235 14.1082 21.685L13.9533 21.4213C12.5107 19.9207 10.5932 18.092 9.08102 16.586L7.46843 15.0024C7.43575 14.9844 7.42183 14.9742 7.41699 14.9682C7.40186 14.967 7.37584 14.9628 7.33349 14.9544C7.33228 14.797 7.32441 14.8949 7.35648 14.8102L9.65586 14.7087C9.61593 14.7039 10.5932 14.6054 10.9114 14.7051C10.978 14.6696 10.8588 14.6985 11.0561 14.657L11.5323 14.6258C12.9161 14.5741 12.5192 14.4624 13.0789 14.8228L13.1467 14.8529C13.2671 15.1046 13.9515 15.7179 14.1627 15.9264L28.5277 30.1398C28.7383 30.3477 29.3828 30.9226 29.5183 31.1791L29.5383 31.2007C29.6932 31.2782 29.6103 31.2254 29.7428 31.3383L32.3169 33.8872C32.6188 34.184 34.8147 36.4416 35.1125 36.6026L36.1569 37.7037C36.3783 37.8803 36.7396 37.7752 37.0633 37.7452L42.2708 37.3144C45.3647 36.9901 48.458 36.7522 51.5748 36.4121L58.479 35.5939C58.9909 35.5243 60.3839 35.2737 60.8056 35.3218C60.9999 35.1806 64.5742 34.7187 65.1412 34.634C69.2807 34.014 73.7923 33.1459 77.861 32.2538C80.4121 31.6945 92.6097 28.8633 93.2457 27.4894C93.4351 27.3975 93.5307 27.2995 93.642 27.0647C94.2822 25.7112 91.0819 24.6275 90.6359 24.5476C90.3231 24.2532 85.2196 22.8985 84.3447 22.6618C75.483 20.2661 57.0389 18.6039 47.7167 18.1767C42.2684 17.9268 36.9877 17.8614 31.4964 17.8848L34.9188 21.3601C35.4005 21.8376 39.3367 25.7358 39.3669 25.862C39.7421 26.1137 40.0882 26.6904 40.5959 26.9721L40.6969 27.0683C40.8797 27.3302 41.3674 27.8168 41.6984 28.1178C42.4826 28.8296 43.8344 30.2672 44.6482 31.0758L47.6265 34.0663C47.8432 34.2885 48.3738 34.8905 48.6455 35.0172C48.6546 35.0911 48.6268 35.0575 48.6649 35.153L42.3319 35.7357L36.8763 36.2481C36.3832 36.2818 36.5689 36.1262 36.2597 35.9982C35.9953 35.4804 31.6343 31.4825 31.5284 31.1581C31.1896 30.9947 23.4019 23.1106 23.152 22.8613C21.7542 21.4676 20.7661 20.4794 18.975 18.7168C17.9572 17.7154 14.9457 14.821 14.8089 14.5243L23.9974 14.5212C24.7773 14.5333 30.0139 14.4978 30.2535 14.6624C30.9064 14.5717 38.0605 14.9225 38.8175 14.9622C52.9587 15.7083 72.2705 16.9104 85.6063 20.7491C86.5182 21.0116 91.9072 22.5928 92.1323 22.9015C93.3607 23.238 96.0479 24.735 96.175 26.4087C96.2155 26.9409 96.0739 27.4774 95.8676 27.9531H95.8694ZM28.8618 37.0099C28.8412 37.0099 28.82 37.0099 28.7976 37.0117C28.82 37.0105 28.8412 37.0099 28.8618 37.0099ZM29.3337 37.2177C29.3452 37.2219 29.3567 37.2261 29.3682 37.2297C29.3567 37.2255 29.3452 37.2219 29.3337 37.2177ZM29.3707 37.2309C29.407 37.243 29.4433 37.2538 29.4808 37.2586C29.4433 37.2538 29.407 37.2436 29.3707 37.2309ZM29.3374 37.1426C29.3416 37.1456 29.3452 37.1486 29.3489 37.1516C29.3452 37.1486 29.341 37.1456 29.3374 37.1426ZM29.3065 37.1204C29.312 37.124 29.318 37.1282 29.3229 37.1318C29.3174 37.1282 29.312 37.124 29.3065 37.1204ZM29.22 37.073C29.2297 37.0772 29.2387 37.0814 29.2478 37.0862C29.2387 37.082 29.2297 37.0772 29.22 37.073ZM29.2599 37.0922C29.2714 37.0982 29.2823 37.1048 29.2926 37.1108C29.2823 37.1042 29.2714 37.0982 29.2599 37.0922ZM28.9713 37.0135C28.9907 37.0153 29.0094 37.0171 29.027 37.0195C29.0094 37.0171 28.9907 37.0147 28.9713 37.0135ZM28.8848 37.0093C28.9108 37.0093 28.9356 37.0105 28.9592 37.0123C28.9356 37.0105 28.9108 37.0099 28.8848 37.0093Z" fill="#2E3548"/>
<path d="M7.41902 14.9674C7.4052 14.9506 7.4683 14.9723 7.41902 14.9674V14.9674Z" fill="#2E3548"/>
</svg>
