<svg width="133" height="18" viewBox="0 0 133 18" fill="none" xmlns="http://www.w3.org/2000/svg">
<path fill-rule="evenodd" clip-rule="evenodd" d="M39.6864 4.24475L42.0867 9.46854L37.3833 9.43218L39.6864 4.24475ZM122.21 2.55769C123.106 3.10407 124.376 2.69712 125.071 3.10264C125.773 3.51244 125.551 5.08102 125.551 5.98674C125.555 8.04146 125.638 9.74038 125.461 11.7619C124.949 11.5075 119.638 5.01624 118.623 3.81591C115.821 0.502231 116.652 0.927642 112.687 0.927348L93.6577 0.948679L93.6718 2.72068C94.7491 2.97621 96.5934 2.55731 96.8323 3.72305C96.9807 4.44706 96.8772 6.85276 96.8772 7.74639C96.8772 13.7324 97.5739 14.812 92.3635 15.0465C87.1533 15.281 87.8603 13.4177 87.8369 8.16041C87.8257 5.65319 87.6935 5.55731 88.029 3.12966L91.2741 2.69266L91.2304 0.941344L66.3703 0.984416L66.2966 2.57095C66.9668 2.96673 68.2041 2.85236 68.7983 3.29549C68.4481 4.20488 67.6953 5.01166 67.1768 5.6081C66.8574 5.97547 66.564 6.27856 66.2193 6.62452L65.2657 7.54881C64.876 7.31361 64.6421 6.85695 64.2792 6.55137C63.5522 5.93918 61.9808 4.12231 61.6288 3.28874L64.4099 2.62186L64.2235 0.889968L49.9561 0.904873L49.9698 2.65032C50.8426 3.02726 51.5516 2.8643 52.5017 3.3444C53.7061 3.95296 54.2689 4.73157 55.1094 5.61631L56.5648 7.28066C57.0673 7.86263 58.3104 8.83469 58.8761 9.74783C59.2901 10.4161 59.5656 11.1584 59.6231 12.0911C59.787 14.7466 59.0922 15.0686 56.2004 14.998C53.8262 14.9401 52.9228 14.5334 52.053 12.7981C51.3515 11.3987 50.6969 9.90087 50.0335 8.49108C49.3733 7.08807 48.6926 5.57154 47.9843 4.20725C46.8138 1.95257 46.8666 0.790445 45.0466 0.80177L38.5848 0.791882C36.9195 0.791325 36.6853 1.97801 35.5118 4.17372C34.7645 5.5718 34.0386 6.96111 33.2607 8.35644C32.525 9.67621 31.8199 11.3077 31.0553 12.5875C29.5974 15.0272 28.7178 14.6908 27.1522 15.138L27.1465 16.8362L37.9635 16.8362L37.9304 15.0955C37.0397 14.7336 35.8 14.9197 35.033 14.4744C35.1323 14.1713 36.0402 11.8474 36.3962 11.7643H43.1707C43.4789 11.8488 44.3936 14.1815 44.4407 14.371C43.7349 14.9496 43.0872 14.8671 42.0333 14.9355C41.2367 14.9872 41.1224 14.8146 41.2581 16.819L56.5111 16.8746C61.0634 16.8831 66.6581 16.9618 71.1004 16.8672L71.061 15.0329C68.8313 14.7161 67.6567 15.4651 67.6567 12.8183C67.6567 9.8644 68.2206 9.74877 70.5089 7.57022L72.7625 5.25348C73.7857 4.32145 74.5341 3.07039 76.5074 2.83702C76.9748 2.78174 78.8407 2.91838 79.2099 3.11056C79.997 3.52027 79.7398 6.7949 79.7398 8.0569C79.7398 11.7279 79.1641 14.2865 81.9916 15.8712C85.9908 18.1124 95.3225 17.9784 99.1842 16.0771C102.015 14.6835 101.77 12.3389 101.77 8.67795C101.77 7.35912 101.537 3.50821 102.281 3.10669C103.203 2.60916 106.518 2.92401 106.772 3.19532C107.195 3.97658 107.026 7.20261 107.026 8.36744C107.026 9.4159 107.089 13.7422 106.954 14.1672C106.659 15.0918 104.899 14.9464 103.855 15.0269L103.828 16.8679H114.582L114.543 15.0235C111.437 14.7196 111.384 14.868 111.384 11.6797C111.384 9.97422 111.284 6.62707 111.587 5.24301C112.052 5.52119 118.2 13.0798 118.466 13.3941C119.65 14.7939 120.877 16.8118 122.387 16.9449L129.782 16.8288C130.125 16.0377 129.988 9.36617 129.988 7.95338C129.987 3.23273 129.601 3.04607 131.753 2.86756C133.059 2.7592 132.959 3.07752 132.935 0.813976C131.314 0.80447 123.222 0.731411 122.21 0.845634V2.55769H122.21Z" fill="#2E3548"/>
<path fill-rule="evenodd" clip-rule="evenodd" d="M12.107 14.9038V3.29588C12.348 2.4072 21.0656 1.14051 19.067 11.647C18.4172 15.0631 15.1258 14.7615 12.107 14.9038ZM0.685962 2.74098C4.28146 3.25844 3.79371 1.9688 3.79371 8.8853C3.79371 10.416 3.84089 12.0282 3.78803 13.5491C3.73229 15.1543 2.69686 14.8217 0.614557 15.0623L0.551306 16.8179C1.8421 17.1329 8.16308 16.8517 9.92588 16.8316C12.9548 16.797 16.0708 16.7891 19.0954 16.6684C22.6992 16.5247 26.845 15.0204 28.3523 11.8665C28.8888 10.7441 29.0541 9.30587 28.9072 7.9425C28.3482 2.75483 22.7074 1.12144 17.1153 0.995155L3.25393 0.836657C1.31928 0.821811 0.00703543 0.3991 0.685962 2.74101V2.74098Z" fill="#2E3548"/>
</svg>
