<svg width="80" height="76" viewBox="0 0 80 76" fill="none" xmlns="http://www.w3.org/2000/svg">
<path fill-rule="evenodd" clip-rule="evenodd" d="M66.7744 7.10652C66.3432 6.90818 66.0823 6.57503 65.7194 6.21431C64.094 4.59865 59.5502 1.78767 57.6067 0.791992C57.0603 0.987146 54.0928 3.61398 53.5756 4.13235C53.241 4.46765 52.9187 4.65581 52.5396 5.0155L49.2815 8.19106C47.3969 10.1732 45.2706 12.3507 43.8509 14.6693C43.6385 15.0162 43.3446 15.3572 43.1187 15.726C40.0321 20.7675 42.577 23.6476 45.9843 28.4214C46.3137 28.883 46.3613 29.0964 46.7868 29.5372L48.3573 31.6614C48.6346 32.0994 48.8487 32.3314 49.1088 32.6905C51.4412 35.9117 54.423 40.4246 55.4088 44.581C56.4407 48.9318 55.838 52.6945 53.7394 56.4817L50.3599 60.4899C45.7024 64.3504 38.8585 65.3854 33.5659 62.7606L30.12 60.5898C29.0209 59.7428 28.2522 58.6584 27.5041 57.7337C26.91 56.9993 26.5573 56.3143 26.084 55.4425C24.2461 52.0573 24.1093 47.0444 25.3704 43.2773C26.807 38.9861 28.9768 36.0106 31.2955 32.6472C31.563 32.2592 31.7966 31.9277 32.0416 31.6155C32.2438 31.358 32.2636 31.3872 32.4707 31.0894L35.8932 26.2909C39.3283 21.173 39.7146 19.6353 36.6367 14.7788C35.9184 13.6455 34.2638 11.5722 33.3677 10.6364C32.638 9.87418 32.3051 9.4053 31.6048 8.70691C30.8503 7.95438 30.4389 7.6005 29.8186 6.93555C29.064 6.12648 28.6136 5.82282 27.9144 5.13981L24.9536 2.48962C22.672 0.444698 23.0281 0.663313 21.855 1.28638C15.918 4.43997 10.1427 9.69029 6.66996 15.5555C4.69909 18.8842 3.42873 21.646 2.24637 25.788C-0.0947123 33.9891 0.724489 43.8708 3.76515 50.9326C8.09032 60.9775 15.6235 68.763 25.9134 72.7537C27.7319 73.4589 29.6307 74.0128 31.6038 74.4679C38.0667 75.9584 44.9684 75.6288 51.1387 73.8801C54.9459 72.8011 58.2257 71.1875 61.2374 69.3241C74.2235 61.2891 81.8364 44.9442 78.9691 29.5446L77.4863 23.6267C76.2264 19.8652 74.7679 17.0581 72.6118 13.8387C71.5347 12.2305 70.4754 11.1227 69.4518 9.78794C68.5482 8.81367 67.7829 7.98119 66.7745 7.10642L66.7744 7.10652Z" fill="#2E3548"/>
</svg>
