<svg width="0" height="0" class="hidden">
 
<symbol  viewBox="0 0 18 18" xmlns="http://www.w3.org/2000/svg" id="bmw2">
<path d="M8.91792 0.0283203C4.12415 0.0283203 0.237793 3.88806 0.237793 8.64901C0.237793 13.41 4.12415 17.2697 8.91792 17.2697C13.7117 17.2697 17.598 13.41 17.598 8.64901C17.598 3.88806 13.7117 0.0283203 8.91792 0.0283203ZM17.0336 8.64901C17.0336 13.1003 13.4004 16.7091 8.91792 16.7091C4.43547 16.7091 0.802246 13.1003 0.802246 8.64901C0.802246 4.19776 4.43598 0.588908 8.91792 0.588908C13.3999 0.588908 17.0336 4.19776 17.0336 8.64901Z" />
<path d="M13.1247 4.99152C13.2426 5.11722 13.4126 5.31996 13.508 5.44313L15.2657 4.33513C15.1779 4.22109 15.038 4.04774 14.9334 3.92559L13.8203 4.65648L13.7443 4.72136L13.8009 4.63925L14.2924 3.66506L13.9449 3.31989L12.9635 3.808L12.8808 3.86426L12.9466 3.78874L13.6831 2.68378C13.5534 2.5743 13.4289 2.47394 13.2702 2.35229L12.1545 4.0964C12.2959 4.20436 12.4822 4.36301 12.6011 4.47097L13.6514 3.92965L13.7188 3.88048L13.6693 3.94739L13.1247 4.99152Z" />
<path d="M9.13634 2.78103L9.61659 1.71257L9.64721 1.61779L9.63853 1.71662L9.68906 3.14445C9.85747 3.16016 10.0315 3.18348 10.203 3.21186L10.1249 1.09724C9.88503 1.07088 9.64619 1.05213 9.40734 1.04199L8.93424 2.20828L8.9174 2.29495L8.90056 2.20828L8.42797 1.04199C8.18912 1.05213 7.95028 1.07088 7.71041 1.09724L7.63232 3.21186C7.8038 3.18348 7.97783 3.16067 8.14625 3.14445L8.19678 1.71662L8.1881 1.61779L8.21872 1.71257L8.69897 2.78103H9.13634Z" />
<path d="M5.25223 4.46631C5.52986 4.17588 5.68705 3.84033 5.40942 3.52C5.25835 3.34614 5.00471 3.30813 4.79444 3.39379L4.77352 3.4019L4.78015 3.38365C4.81128 3.30103 4.83119 3.03747 4.6051 2.8555C4.49486 2.7668 4.35656 2.73386 4.21672 2.74805C3.95593 2.77441 3.75536 2.9513 3.20928 3.55599C3.04443 3.73845 2.80456 4.02635 2.66064 4.21288L4.16058 5.626C4.65767 5.07961 4.86028 4.87636 5.25223 4.46631ZM3.29502 4.12063C3.59715 3.75366 3.91816 3.42065 4.06361 3.28887C4.10954 3.24731 4.15956 3.20574 4.22029 3.18952C4.31879 3.16266 4.42035 3.2321 4.44332 3.33246C4.46628 3.43332 4.40249 3.52912 4.33155 3.60819C4.17181 3.78711 3.58592 4.39585 3.58592 4.39585L3.29502 4.12063ZM3.88244 4.67412C3.88244 4.67412 4.45301 4.07501 4.63929 3.88342C4.71329 3.80739 4.76076 3.76126 4.81179 3.73643C4.87763 3.7045 4.94959 3.69791 5.01389 3.74048C5.07718 3.78255 5.10627 3.85503 5.09045 3.92701C5.07156 4.01267 5.00114 4.09427 4.94295 4.15662C4.86436 4.24025 4.18763 4.95948 4.18661 4.9605L3.88244 4.67412Z" />
<path d="M14.0657 8.64882H8.91821V3.53662C11.7629 3.53662 14.0657 5.82358 14.0657 8.64882Z" />
<path d="M8.91795 8.64893V13.7611C6.07323 13.7611 3.77051 11.4742 3.77051 8.64893H8.91795Z" />
</symbol>

<symbol viewBox="0 0 24 9"  xmlns="http://www.w3.org/2000/svg" id="audi">
<path fill-rule="evenodd" clip-rule="evenodd" d="M19.5514 0.595953C18.6224 0.594463 17.7202 0.905756 16.9922 1.47903C16.2642 0.905719 15.3621 0.594421 14.433 0.595953C13.504 0.594525 12.6019 0.905813 11.8739 1.47903C11.146 0.905691 10.2439 0.594388 9.31483 0.595953C8.38581 0.594525 7.48372 0.905813 6.75574 1.47903C6.02777 0.905794 5.12568 0.594504 4.19665 0.595953C1.91685 0.595953 0.0693359 2.43068 0.0693359 4.69501C0.0693359 6.95907 1.91672 8.79406 4.19665 8.79406C5.12567 8.79548 6.02775 8.48419 6.75574 7.91099C7.48371 8.48422 8.38581 8.79551 9.31483 8.79406C10.2439 8.79561 11.146 8.48431 11.8739 7.91099C12.6019 8.4842 13.504 8.79549 14.433 8.79406C15.3621 8.79558 16.2642 8.48429 16.9922 7.91099C17.7202 8.48429 18.6224 8.79558 19.5514 8.79406C21.8312 8.79406 23.6786 6.9592 23.6786 4.69501C23.6786 2.43082 21.8312 0.595953 19.5514 0.595953ZM6.08044 7.24137C5.55451 7.62241 4.89748 7.85495 4.19665 7.85495C2.43794 7.85495 1.01479 6.44168 1.01479 4.69501C1.01479 2.94833 2.43794 1.53493 4.19665 1.53493C4.89748 1.53493 5.55411 1.76761 6.08044 2.14877C5.50054 2.87232 5.1857 3.77024 5.18764 4.69501C5.18808 5.61942 5.50265 6.51663 6.08044 7.24137ZM6.75588 6.57256C6.35027 6.02957 6.13191 5.3711 6.13323 4.69501C6.13152 4.01885 6.34993 3.36026 6.75588 2.81745C7.16175 3.3603 7.38014 4.01887 7.37852 4.69501C7.3798 5.37109 7.16143 6.02955 6.75588 6.57256ZM11.1987 7.24137C10.6523 7.6409 9.9912 7.85565 9.31268 7.85402C8.63556 7.85539 7.97592 7.64061 7.43104 7.24137C8.00888 6.51671 8.32346 5.61952 8.32384 4.69514C8.32578 3.77037 8.01094 2.87245 7.43104 2.14891C7.97587 1.74955 8.63553 1.53473 9.31268 1.53613C10.0186 1.53613 10.6708 1.76294 11.1987 2.14891C10.6189 2.87245 10.304 3.77037 10.306 4.69514C10.3063 5.61952 10.6209 6.5167 11.1987 7.24137ZM11.8739 6.57256C11.4683 6.02957 11.2499 5.3711 11.2513 4.69501C11.2496 4.01886 11.468 3.36029 11.8739 2.81745C12.2799 3.36026 12.4983 4.01884 12.4967 4.69501C12.498 5.37112 12.2796 6.0296 11.8739 6.57256ZM16.3169 7.24137C15.789 7.62748 15.1368 7.85402 14.431 7.85402C13.7252 7.85402 13.0772 7.62708 12.5492 7.24137C13.1271 6.51674 13.4417 5.61953 13.442 4.69514C13.444 3.77037 13.1291 2.87245 12.5492 2.14891C13.0772 1.76307 13.7252 1.53613 14.431 1.53613C15.1368 1.53613 15.789 1.76294 16.3169 2.14891C15.7371 2.87249 15.4223 3.77039 15.4241 4.69514C15.4246 5.61951 15.7392 6.51666 16.3169 7.24137ZM16.9924 6.57256C16.5868 6.02957 16.3684 5.3711 16.3697 4.69501C16.3679 4.01884 16.5864 3.36024 16.9924 2.81745C17.3982 3.3603 17.6166 4.01887 17.615 4.69501C17.6162 5.37109 17.3979 6.02953 16.9924 6.57256ZM19.5514 7.85495C18.8503 7.85495 18.1934 7.62241 17.6677 7.24137C18.2454 6.51668 18.56 5.61951 18.5605 4.69514C18.5623 3.77039 18.2475 2.87249 17.6677 2.14891C18.194 1.76787 18.8505 1.53506 19.5514 1.53506C21.3099 1.53506 22.7333 2.94847 22.7333 4.69514C22.7333 6.44155 21.3099 7.85495 19.5514 7.85495Z"/>
</symbol>

<symbol viewBox="0 0 24 7" xmlns="http://www.w3.org/2000/svg" id="chevrolet">
<path fill-rule="evenodd" clip-rule="evenodd" d="M21.1355 4.37653H15.5375C15.4428 4.37653 15.2424 4.36574 15.1604 4.38015L15.1607 5.68525L8.55748 5.68706L8.55027 4.45521H1.90991L2.56782 3.16864C2.58378 3.13732 2.64512 3.01013 2.66637 2.98578L8.56748 2.97614L8.57027 1.68432L15.1732 1.68384L15.1734 2.91293C15.2235 2.9262 16.7484 2.91732 16.8428 2.91732H21.8781C21.872 2.95122 21.8076 3.06217 21.7885 3.10055L21.1356 4.37653H21.1355ZM1.91741 1.96323L1.88924 2.02071L1.38631 3.00326C1.38112 3.01471 1.37699 3.02321 1.37189 3.03333C1.36747 3.04202 1.36958 3.04059 1.3642 3.04804C1.35747 3.0574 1.35805 3.05501 1.3516 3.06074C1.35026 3.09082 1.04539 3.66459 1.00654 3.74518C0.950878 3.86062 0.887038 3.9753 0.831659 4.0874C0.810412 4.13046 0.669753 4.41119 0.653505 4.42685L0.621585 4.49626L0.0693359 5.57229L7.42971 5.57429L7.43077 6.80596H16.2873L16.2874 5.49561L21.8286 5.49542C21.8344 5.47728 21.8318 5.47451 21.8469 5.46305L21.8946 5.36022C21.93 5.28669 21.9703 5.21613 22.0064 5.14404L22.3494 4.47449C22.4269 4.32296 22.502 4.18193 22.5786 4.02934L23.4934 2.24491C23.5317 2.16871 23.5719 2.09643 23.6079 2.02233C23.6371 1.96237 23.701 1.85629 23.721 1.79775L16.3021 1.7967C16.2932 1.7249 16.2962 0.600462 16.3046 0.567138L7.44125 0.564941C7.44365 0.706737 7.4499 1.81217 7.43712 1.85934L1.96683 1.86727L1.91731 1.96313L1.91741 1.96323Z" />
</symbol>

<symbol  viewBox="0 0 26 4"  xmlns="http://www.w3.org/2000/svg" id="haval">
<path d="M4.56951 0.111816L3.9726 1.14016L3.94434 1.13809C3.94399 1.13809 3.71932 1.13497 3.42697 1.13878C3.07113 1.14363 2.7568 1.16892 2.56457 1.20911L2.45921 1.23475L3.10881 0.112163H1.7259L0.0133057 3.16117H1.39691L1.77334 2.46544C1.94394 2.15431 2.31618 1.80298 2.73028 1.76071C2.86739 1.74685 3.02229 1.74061 3.19009 1.74061C3.39523 1.74061 3.54873 1.75205 3.55047 1.75205L3.62478 1.75378L2.85623 3.16083H4.24123L5.95382 0.111816H4.56951Z" />
<path d="M4.56951 0.111816L3.9726 1.14016L3.94434 1.13809C3.94399 1.13809 3.71932 1.13497 3.42697 1.13878C3.07113 1.14363 2.7568 1.16892 2.56457 1.20911L2.45921 1.23475L3.10881 0.112163H1.7259L0.0133057 3.16117H1.39691L1.77334 2.46544C1.94394 2.15431 2.31618 1.80298 2.73028 1.76071C2.86739 1.74685 3.02229 1.74061 3.19009 1.74061C3.39523 1.74061 3.54873 1.75205 3.55047 1.75205L3.62478 1.75378L2.85623 3.16083H4.24123L5.95382 0.111816H4.56951Z" />
<path d="M15.2918 0.1119L13.1738 1.83632L13.111 0.10012L11.7947 0.0876465L11.8512 3.16091H13.365L17.0009 0.1119H15.2918Z" />
<path d="M15.2918 0.1119L13.1738 1.83632L13.111 0.10012L11.7947 0.0876465L11.8512 3.16091H13.365L17.0009 0.1119H15.2918Z" />
<path d="M8.04993 0.58679C7.77816 0.772849 7.45999 1.01504 7.37766 1.09161L5.05978 3.1684H6.30943L6.69423 2.79594C6.88017 2.62582 7.31137 2.44599 7.74641 2.44599H7.76769C8.21424 2.45188 8.62102 2.47995 8.62486 2.48029L8.69393 2.48515L8.38309 3.1684H9.45342L10.9044 0.104492H9.7974C9.06059 0.104492 8.29553 0.418402 8.04993 0.58679ZM8.95873 1.87569H7.69199L8.2132 1.38126C8.23657 1.36082 8.7515 0.911787 8.99012 0.772156C9.14467 0.681725 9.3055 0.662669 9.4133 0.662669C9.4747 0.662669 9.51377 0.668905 9.51552 0.669252L9.58076 0.679993L8.95873 1.87569Z" />
<path d="M8.04993 0.58679C7.77816 0.772849 7.45999 1.01504 7.37766 1.09161L5.05978 3.1684H6.30943L6.69423 2.79594C6.88017 2.62582 7.31137 2.44599 7.74641 2.44599H7.76769C8.21424 2.45188 8.62102 2.47995 8.62486 2.48029L8.69393 2.48515L8.38309 3.1684H9.45342L10.9044 0.104492H9.7974C9.06059 0.104492 8.29553 0.418402 8.04993 0.58679ZM8.95873 1.87569H7.69199L8.2132 1.38126C8.23657 1.36082 8.7515 0.911787 8.99012 0.772156C9.14467 0.681725 9.3055 0.662669 9.4133 0.662669C9.4747 0.662669 9.51377 0.668905 9.51552 0.669252L9.58076 0.679993L8.95873 1.87569Z" />
<path d="M19.7091 0.104492C18.9727 0.104492 18.2076 0.418748 17.962 0.58679C17.6902 0.772502 17.3721 1.01504 17.2897 1.09161L14.9719 3.1684H16.2215L16.6063 2.79594C16.7923 2.62582 17.2235 2.44599 17.6588 2.44599H17.6801C18.1267 2.45188 18.5334 2.47995 18.5373 2.48029L18.6064 2.48515L18.2955 3.1684H19.3658L20.8168 0.104492H19.7091ZM18.8708 1.87569H17.6041L18.1253 1.38126C18.1486 1.36082 18.6636 0.911787 18.9022 0.772156C19.0568 0.681725 19.2176 0.662669 19.3254 0.662669C19.3868 0.662669 19.4262 0.668905 19.4276 0.669252L19.4932 0.679993L18.8708 1.87569Z" />
<path d="M19.7091 0.104492C18.9727 0.104492 18.2076 0.418748 17.962 0.58679C17.6902 0.772502 17.3721 1.01504 17.2897 1.09161L14.9719 3.1684H16.2215L16.6063 2.79594C16.7923 2.62582 17.2235 2.44599 17.6588 2.44599H17.6801C18.1267 2.45188 18.5334 2.47995 18.5373 2.48029L18.6064 2.48515L18.2955 3.1684H19.3658L20.8168 0.104492H19.7091ZM18.8708 1.87569H17.6041L18.1253 1.38126C18.1486 1.36082 18.6636 0.911787 18.9022 0.772156C19.0568 0.681725 19.2176 0.662669 19.3254 0.662669C19.3868 0.662669 19.4262 0.668905 19.4276 0.669252L19.4932 0.679993L18.8708 1.87569Z" />
<path d="M22.5891 2.43336L22.5783 2.43614C22.5745 2.43406 22.4803 2.38624 22.4537 2.28854C22.438 2.22998 22.4492 2.17143 22.4872 2.1101C22.4928 2.1004 23.1309 0.971917 23.2718 0.733887C23.4553 0.423442 23.7212 0.216248 23.8886 0.112305H22.2504C22.1248 0.320192 21.1888 1.97844 21.044 2.23137C20.8933 2.49504 20.8734 2.8429 21.1689 3.03866C21.3238 3.14122 21.7857 3.16131 21.9507 3.16131H24.9904L25.6577 2.43371H22.5891V2.43336Z" />
</symbol>

<symbol viewBox="0 0 18 15"  xmlns="http://www.w3.org/2000/svg"  id="honda">
<path fill-rule="evenodd" clip-rule="evenodd" d="M0.274801 7.27958C0.28824 7.65861 0.311756 8.05499 0.344008 8.45471C0.418591 9.53709 0.54827 10.6268 0.813675 11.6792C0.89968 12.0195 1.00651 12.3605 1.15568 12.6801C1.26587 12.9451 1.3848 13.1626 1.51381 13.3161C1.75368 13.601 2.05268 13.8232 2.40476 13.9994C2.46658 14.0314 2.52907 14.0628 2.5929 14.0915C3.58397 14.5413 4.72824 14.58 5.79859 14.6454C6.84879 14.7101 7.90571 14.7488 8.96397 14.7541C10.0216 14.7488 11.0792 14.7101 12.1294 14.6454C13.1997 14.5793 14.344 14.5413 15.335 14.0915C15.3982 14.0628 15.46 14.0321 15.5212 14.0001C15.8739 13.8239 16.1743 13.6017 16.4141 13.3161C16.5431 13.1626 16.6627 12.9444 16.7729 12.6788C16.9214 12.3592 17.0283 12.0188 17.1143 11.6785C17.3777 10.6342 17.5073 9.55377 17.5819 8.48007C17.6155 8.07101 17.6397 7.66595 17.6531 7.27824C17.6545 7.24421 17.6552 7.21084 17.6565 7.17681C17.6928 6.38538 17.7062 5.59395 17.6585 4.80052C17.639 4.4762 17.6101 4.14255 17.5544 3.81423C17.4865 3.28171 17.1936 1.95777 15.9438 1.43727C15.9142 1.42525 15.884 1.41324 15.8531 1.40123C15.3115 1.16233 14.7034 1.0569 14.1222 0.980157C12.634 0.784635 11.1645 0.71123 9.6715 0.69388C9.34428 0.689209 9.09634 0.689209 8.96397 0.689209C8.83161 0.689209 8.58501 0.689209 8.25846 0.69388C6.76413 0.71123 5.29399 0.783967 3.8057 0.981491C3.2245 1.0589 2.61574 1.16367 2.07418 1.40323C2.04327 1.41524 2.01371 1.42726 1.98415 1.43927C0.73103 1.96177 0.43942 3.29106 0.372229 3.8209C0.317132 4.14788 0.28824 4.48021 0.268754 4.80318C0.220377 5.60329 0.234487 6.4014 0.271442 7.20017C0.272114 7.22686 0.272785 7.25355 0.274129 7.28091L0.274801 7.27958ZM15.3821 12.915C15.1845 13.0805 14.6349 13.4122 14.1726 13.573C13.963 13.6257 13.7802 13.6544 13.6734 13.6611C13.5431 13.6451 13.4597 13.5743 13.4564 13.4248C13.4638 13.3601 13.4745 13.26 13.49 13.1105C13.6741 11.6705 13.8125 10.2278 13.9254 8.78236C13.9287 8.74699 13.9328 8.70829 13.9368 8.66692C13.9408 8.62288 13.9455 8.57883 13.9502 8.53346C13.9516 8.51744 13.9529 8.50209 13.9549 8.48608C13.9637 8.39465 13.9724 8.30457 13.9811 8.21448C13.9858 8.1651 13.9906 8.11639 13.9953 8.06767C14.0013 8.00161 14.0073 7.93621 14.0134 7.87082C14.0208 7.78607 14.0288 7.70265 14.0356 7.61924C14.0389 7.57987 14.0423 7.54116 14.0456 7.50179C14.0638 7.29159 14.0806 7.08739 14.0967 6.8892C14.0987 6.86718 14.1001 6.84516 14.1021 6.82314C14.1182 6.61894 14.133 6.42075 14.1464 6.22856C14.1478 6.21255 14.1484 6.19653 14.1498 6.18052C14.1579 6.0624 14.1659 5.94629 14.1733 5.83285C14.174 5.8215 14.1747 5.80949 14.1753 5.79748C14.1794 5.73475 14.1834 5.67269 14.1874 5.6113C14.1874 5.6093 14.1874 5.60729 14.1874 5.60596C14.1948 5.48384 14.2022 5.36439 14.2089 5.24761C14.2089 5.23961 14.2096 5.2316 14.2103 5.22359C14.3252 3.21698 14.3023 2.08522 14.299 1.94375C14.3285 1.89504 14.3756 1.86234 14.4495 1.85967C14.6443 1.91573 14.8459 1.97245 15.0407 2.04318C15.2134 2.10925 15.3975 2.19199 15.5568 2.29142C15.6408 2.34614 15.7207 2.4082 15.794 2.47827C15.8108 2.49429 15.8262 2.51097 15.8423 2.52832C15.8464 2.53232 15.8504 2.53633 15.8538 2.54033C15.89 2.58504 15.925 2.62708 15.9586 2.66779C15.974 2.68847 15.9895 2.70983 16.0043 2.73118C16.6144 3.62538 16.5411 4.91996 16.5532 5.94696C16.5694 7.30026 16.5062 8.67426 16.3194 10.0156C16.3127 10.0649 16.306 10.1163 16.2992 10.167C16.2945 10.2037 16.2898 10.2404 16.2845 10.2778C16.2623 10.4033 16.2401 10.5154 16.22 10.6101C16.1971 10.7409 16.0674 11.4443 16.05 11.5157C15.9841 11.7893 15.8618 12.173 15.8182 12.2844C15.7718 12.3818 15.7214 12.4759 15.6643 12.5654C15.5709 12.7055 15.4667 12.8209 15.3814 12.9144L15.3821 12.915ZM3.75396 13.573C3.29303 13.4122 2.74542 13.0825 2.54721 12.9164C2.46053 12.8223 2.35504 12.7048 2.2603 12.562C2.20453 12.4746 2.15481 12.3818 2.10979 12.2864C2.06679 12.1763 1.94383 11.7906 1.87731 11.5157C1.86051 11.4449 1.73084 10.7416 1.70732 10.6101C1.68649 10.5134 1.66432 10.3986 1.64147 10.2705C1.63744 10.2398 1.63341 10.2084 1.62938 10.1784C1.62199 10.123 1.61459 10.0683 1.6072 10.0149C1.42108 8.67359 1.35792 7.2996 1.37338 5.94629C1.38547 4.9193 1.31156 3.62471 1.92233 2.73051C1.93711 2.70849 1.95257 2.68714 1.96869 2.66645C2.00162 2.62641 2.03588 2.58504 2.07217 2.541C2.07687 2.53566 2.08225 2.53032 2.08695 2.52565C2.1024 2.50963 2.11719 2.49362 2.13331 2.47827C2.20722 2.40754 2.28718 2.34548 2.37184 2.29076C2.53108 2.19133 2.71519 2.10858 2.8872 2.04318C3.08205 1.97245 3.28363 1.91573 3.47848 1.85967C3.55239 1.86301 3.59942 1.89504 3.62966 1.94442C3.62496 2.12326 3.59203 3.82424 3.8272 6.82981C3.82855 6.84916 3.83056 6.86851 3.83191 6.88853C3.84736 7.08606 3.86416 7.28892 3.8823 7.49779C3.88633 7.54183 3.88969 7.58654 3.89372 7.63125C3.89977 7.70399 3.90649 7.77672 3.91321 7.8508C3.91993 7.92487 3.92665 7.99894 3.93404 8.07435C3.93807 8.12039 3.94277 8.16643 3.9468 8.21248C3.95554 8.3039 3.96427 8.39599 3.97368 8.48941C3.97502 8.50476 3.97637 8.51944 3.97771 8.53479C3.98309 8.58751 3.98779 8.63956 3.99317 8.69094C3.99585 8.7203 3.99854 8.74833 4.00123 8.77502C4.11478 10.2251 4.25319 11.6725 4.43797 13.1172C4.45342 13.2627 4.46418 13.3608 4.47089 13.4248C4.46821 13.5757 4.38556 13.6464 4.25454 13.6631C4.1477 13.6564 3.96427 13.6277 3.75464 13.575L3.75396 13.573ZM8.96397 13.8172H6.43288C6.41944 13.8059 6.41071 13.7912 6.40802 13.7719C6.40802 13.7719 6.40802 13.7712 6.40802 13.7705C6.40802 13.7472 6.41608 13.7185 6.41877 13.7091C6.43288 13.6571 6.44699 13.6064 6.46177 13.555C6.59212 13.1279 6.92606 12.0602 6.92606 12.0602C6.93077 12.0442 6.93614 12.0288 6.94084 12.0128C6.98519 11.8867 7.03491 11.7552 7.09471 11.6078C7.21499 11.3108 7.42126 11.0946 7.58857 10.9878C7.68196 10.9278 7.78208 10.8824 7.89294 10.8477C7.94938 10.8357 8.00986 10.823 8.0757 10.8103C8.1859 10.789 8.30281 10.7716 8.42308 10.7569C8.58233 10.7456 8.76038 10.7416 8.9633 10.7416C9.16622 10.7416 9.34495 10.7456 9.50419 10.7569C9.62446 10.771 9.74138 10.7883 9.85157 10.8103C9.91809 10.823 9.97856 10.8357 10.0343 10.8477C10.1452 10.8824 10.246 10.9284 10.3394 10.9878C10.5067 11.0953 10.713 11.3115 10.8332 11.6078C10.8924 11.7546 10.9414 11.8854 10.9858 12.0108C10.9911 12.0275 10.9958 12.0435 11.0012 12.0602C11.0012 12.0602 11.3392 13.1419 11.4682 13.563C11.4816 13.6117 11.4951 13.6597 11.5085 13.7085C11.5112 13.7178 11.5186 13.7452 11.5193 13.7685C11.5172 13.7892 11.5085 13.8045 11.4944 13.8166H8.96397V13.8172ZM6.63647 1.53603C7.98029 1.49198 8.91358 1.48331 8.9633 1.48331C9.01369 1.48331 9.94631 1.49198 11.2908 1.53603C11.3909 1.53936 11.4836 1.54337 11.571 1.5467C12.1878 1.58608 12.597 1.63345 12.7072 1.65815C12.7448 1.67283 12.7623 1.69551 12.763 1.73422C12.73 1.86234 12.6743 2.08322 12.6051 2.35348C12.2926 3.52195 11.9513 4.90862 11.6362 6.04572C11.4252 6.78243 11.1383 7.67729 10.8037 8.18846C10.8037 8.18846 10.8037 8.18846 10.8037 8.18912C10.5604 8.51877 10.2406 8.77035 9.8005 8.86978C9.57407 8.90381 9.30463 8.91049 8.96532 8.91049C8.626 8.91049 8.35656 8.90381 8.1308 8.86978C7.69473 8.77169 7.37624 8.52411 7.13436 8.1998C7.13167 8.1958 7.12898 8.19246 7.12696 8.18846C6.78899 7.67262 6.50007 6.76708 6.28842 6.02637C5.97598 4.89594 5.63733 3.52261 5.32691 2.36283C5.25703 2.08856 5.19992 1.86434 5.167 1.73422C5.16767 1.69551 5.18581 1.67283 5.22276 1.65815C5.33363 1.63345 5.74215 1.58608 6.3583 1.5467C6.44497 1.5427 6.53837 1.53936 6.63848 1.53603H6.63647Z" />
</symbol>

<symbol  viewBox="0 0 22 11"  xmlns="http://www.w3.org/2000/svg" id="Hyundai">
<path fill-rule="evenodd" clip-rule="evenodd" d="M13.0771 6.94481C13.235 7.75479 12.8074 8.42732 12.4525 9.08047C12.058 9.68781 11.4069 10.21 10.6245 10.1319C8.86855 10.1054 7.15226 9.83817 5.56135 9.36123C5.4892 9.34185 5.41705 9.29604 5.37742 9.23084C5.34431 9.13921 5.39044 9.05463 5.45608 8.99589C6.90919 7.82704 8.63849 7.2849 10.3483 6.71692C10.9858 6.53425 11.6636 6.33807 12.3804 6.42969C12.6761 6.46905 12.9724 6.6711 13.0776 6.9454L13.0771 6.94481ZM19.0675 3.48347C19.8831 4.14954 20.6194 5.05761 20.3692 6.15422C19.9617 7.77359 18.1863 8.63584 16.7722 9.18444C16.0028 9.43935 15.2268 9.70014 14.3853 9.77885C14.3326 9.77239 14.2469 9.78531 14.2339 9.70719L14.2534 9.61556C15.4504 8.27696 16.3576 6.77507 17.1531 5.2532C17.5209 4.56775 17.8634 3.86232 18.1786 3.16982C18.2247 3.11754 18.2709 3.0917 18.3235 3.07173C18.6192 3.09757 18.8297 3.32664 19.0663 3.48288L19.0675 3.48347ZM7.59286 1.75955L7.56684 1.85764C5.83755 3.81005 4.70025 6.0761 3.62151 8.32923C3.41097 8.52483 3.20693 8.26404 3.0165 8.17887C2.05663 7.55215 1.18843 6.54012 1.4386 5.33837C1.83958 3.77128 3.46361 2.93546 4.81854 2.36689C5.6205 2.06616 6.45557 1.82475 7.33678 1.6879C7.42904 1.6879 7.54733 1.67497 7.59346 1.75955H7.59286ZM16.1743 2.07321C16.2731 2.12548 16.3913 2.14487 16.4505 2.24296C16.5031 2.35397 16.3979 2.42563 16.3387 2.49787C14.9779 3.55572 13.4195 4.14367 11.828 4.65938C11.0189 4.85497 10.204 5.20798 9.30324 5.0118C9.09269 4.95952 8.90226 4.82266 8.78397 4.62002C8.56042 4.00623 8.86322 3.36659 9.12581 2.83091C9.47416 2.15838 10.0922 1.36837 10.9474 1.35486C12.7884 1.34194 14.5242 1.61624 16.1749 2.07321H16.1743ZM18.4495 2.12548C19.8434 2.88318 21.4219 4.21533 21.2575 5.99152C21.0665 7.63732 19.5217 8.78679 18.1407 9.47871C14.1097 11.3923 8.44864 11.4511 4.28626 9.77885C2.87929 9.19736 1.3008 8.19825 0.709386 6.69636C0.255771 5.4623 0.808152 4.17539 1.73549 3.32018C3.67415 1.57042 6.14626 0.969549 8.69112 0.623003C11.453 0.289967 14.3592 0.58365 16.8314 1.42593C17.3837 1.62857 17.9296 1.8506 18.4489 2.1249L18.4495 2.12548Z" />
</symbol>

<symbol width="24" height="7" viewBox="0 0 24 7"  xmlns="http://www.w3.org/2000/svg" id="kia">
<path d="M13.6236 5.74642C13.6236 5.78988 13.6354 5.81346 13.6633 5.81346C13.6832 5.81346 13.699 5.80551 13.7189 5.79372L20.8826 1.1657C21.0097 1.0829 21.1249 1.03944 21.2956 1.03944H22.8722C23.1144 1.03944 23.2772 1.2012 23.2772 1.44191V4.42865C23.2772 4.78767 23.1978 4.99686 22.8722 5.19014L20.9621 6.33039C20.9382 6.34616 20.9145 6.35411 20.8985 6.35411C20.8746 6.35411 20.8548 6.33834 20.8548 6.27131V2.7834C20.8548 2.74392 20.8429 2.71636 20.815 2.71636C20.7952 2.71636 20.7793 2.72431 20.7594 2.7361L15.5216 6.1175C15.3747 6.21222 15.2556 6.23978 15.1205 6.23978H11.6458C11.4035 6.23978 11.2407 6.07802 11.2407 5.83731V1.5365C11.2407 1.50497 11.2248 1.47729 11.201 1.47729C11.1811 1.47729 11.1652 1.48523 11.1454 1.49703L7.69051 3.56052C7.65478 3.58026 7.64678 3.6 7.64678 3.61576C7.64678 3.63153 7.65078 3.64332 7.67851 3.66703L10.1446 6.11723C10.1763 6.14876 10.2002 6.17645 10.2002 6.20003C10.2002 6.22759 10.1644 6.24349 10.1207 6.24349H7.88892C7.71424 6.24349 7.57918 6.21593 7.48384 6.12121L5.98674 4.63373C5.97088 4.61797 5.95901 4.61002 5.94301 4.61002C5.93114 4.61002 5.91128 4.61797 5.89541 4.62578L3.39362 6.12121C3.24269 6.21196 3.13949 6.23951 2.98855 6.23951H0.685837C0.443565 6.23951 0.280762 6.07775 0.280762 5.83704V2.90554C0.280762 2.54255 0.36023 2.33734 0.685837 2.14405L2.60774 0.99599C2.62761 0.984199 2.64348 0.980225 2.65934 0.980225C2.68708 0.980225 2.70308 1.01175 2.70308 1.07495V4.99686C2.70308 5.03634 2.71494 5.05608 2.74281 5.05608C2.75868 5.05608 2.77855 5.04428 2.79841 5.03236L9.29108 1.15377C9.44601 1.06302 9.54121 1.03547 9.71989 1.03547H13.2145C13.4568 1.03547 13.6196 1.19723 13.6196 1.43794L13.6236 5.74642Z" />
</symbol>

<symbol viewBox="0 0 22 10"  xmlns="http://www.w3.org/2000/svg" id="lada" >
<path fill-rule="evenodd" clip-rule="evenodd" d="M0.125977 4.73538C0.125977 2.37273 4.9487 0.457764 10.8953 0.457764C16.8419 0.457764 21.6646 2.37273 21.6646 4.73538C21.6646 7.09804 16.8434 9.013 10.8953 9.013C4.94716 9.013 0.125977 7.09804 0.125977 4.73538ZM13.2959 5.10948C13.2928 5.09415 13.2804 5.08342 13.2665 5.08188C12.9701 5.03895 12.6583 5.00216 12.3325 4.97609C12.314 4.97303 12.3017 4.95616 12.3125 4.9163C13.3082 3.87679 13.6864 2.55211 13.1832 1.5172C13.1847 1.49727 13.2032 1.48347 13.2233 1.485C16.6489 1.89743 19.1483 3.19605 19.1483 4.73538C19.1483 6.60588 15.4525 8.12221 10.8922 8.12221C6.33192 8.12221 2.63614 6.60588 2.63614 4.73538C2.63614 3.11326 5.41492 1.75791 9.12459 1.42674C9.14312 1.42674 9.15701 1.44054 9.15856 1.46967L8.35271 5.87455C8.34654 5.90674 8.34345 5.94201 8.34345 5.97574C8.34345 6.27164 8.58428 6.51082 8.88222 6.51082H8.91155C9.62941 6.47556 10.4028 6.25324 11.1315 5.83468C11.3414 5.71356 11.5406 5.5817 11.7274 5.44065C11.7382 5.43145 11.7552 5.42992 11.7675 5.43758C12.0099 5.59857 12.1504 5.78562 12.1504 5.988C12.1504 6.26091 11.8926 6.51082 11.468 6.6994C10.9756 6.91865 10.2577 7.05664 9.45805 7.05664C8.78033 7.05664 8.16283 6.95698 7.68272 6.7914C7.66265 6.78833 7.64412 6.8006 7.64103 6.82053L7.57311 7.19463C7.57002 7.21303 7.58237 7.22989 7.6009 7.23449C8.5781 7.45987 9.70042 7.58866 10.8953 7.58866C12.3819 7.58866 13.5876 7.1103 13.5876 6.51849C13.5876 6.28851 13.4055 6.07539 13.0952 5.90214C12.8235 5.77029 12.6521 5.59857 12.6953 5.48358C12.7386 5.36399 12.9994 5.34559 13.3067 5.42838C13.3236 5.43145 13.3406 5.42072 13.3468 5.38852L13.2959 5.11101V5.10948ZM10.8938 2.41259C10.8938 2.43559 10.8938 2.45858 10.8922 2.48158C10.9308 3.26658 10.443 4.31682 9.54913 5.20454C9.36697 5.38546 9.17708 5.55104 8.98411 5.69669C8.97639 5.70129 8.96713 5.70283 8.95787 5.70129C8.93934 5.69669 8.92699 5.67983 8.93008 5.65836L9.8054 0.87326C9.8054 0.854861 9.78996 0.841063 9.77143 0.839529C4.9487 1.06491 1.20353 2.72383 1.20353 4.73538C1.20353 6.90179 5.54306 8.6573 10.8953 8.6573C16.2475 8.6573 20.5871 6.90179 20.5871 4.73538C20.5871 2.56897 16.2475 0.814998 10.8953 0.814998C10.7255 0.814998 10.5572 0.816532 10.3874 0.821131C10.3704 0.821131 10.3565 0.831863 10.3519 0.848729L10.25 1.40681C10.2469 1.42214 10.2546 1.43594 10.267 1.44361C10.6375 1.61226 10.8938 1.98483 10.8938 2.41566V2.41259Z" />
</symbol>

<symbol viewBox="0 0 20 16"  xmlns="http://www.w3.org/2000/svg" id="mazda" >
<path fill-rule="evenodd" clip-rule="evenodd" d="M3.97068 12.2806C3.4481 11.9567 3.28062 11.5577 2.49234 11.2263C1.6965 10.2033 1.39302 8.92269 1.39302 7.64331C1.39302 6.71036 1.55924 5.7774 1.81739 4.93324L2.61322 6.51401C2.56034 6.86043 2.54522 7.24437 2.54522 7.64331C2.54522 12.8671 6.03079 13.9201 9.70649 13.9051C13.3822 13.9201 16.8678 12.8671 16.8678 7.64331C16.8678 7.1093 16.83 6.62031 16.762 6.16759L17.3299 5.00077C17.6334 5.74613 17.792 6.6941 17.7769 7.64957C17.7467 9.19282 17.2392 10.7498 16.0719 11.4877L15.8906 11.7666L15.6866 12.0155L15.4738 12.2568L15.2459 12.4757L15.0028 12.6783L14.7522 12.8584L14.4865 13.031L14.2133 13.181L13.9325 13.3161L13.6366 13.4437L13.3406 13.5487L13.0372 13.6463L12.7186 13.7363L12.4 13.8113L12.0814 13.8714L11.7477 13.9239L11.414 13.9689L11.0728 13.9989L10.7391 14.0214L10.3903 14.0364L10.049 14.0514H9.35139L9.01014 14.0364L8.66133 14.0214L8.32008 13.9989L7.98638 13.9689L7.65268 13.9239L7.31898 13.8714L6.99284 13.8113L6.67426 13.7363L6.36322 13.6463L6.05975 13.5487L5.75627 13.4437L5.46791 13.3161L5.1871 13.181L4.91385 13.031L4.64815 12.8584L4.39756 12.6783L4.15453 12.4757L3.95809 12.2806H3.97068ZM1.81865 2.87973L1.71287 2.77468C0.772222 3.90273 0.181641 5.476 0.181641 7.64331C0.181641 14.229 5.58502 15.2971 9.70775 15.2971C13.8305 15.2971 19.2339 14.2278 19.2339 7.64331C19.2339 5.476 18.6433 3.90273 17.7026 2.77343L17.5969 2.87848C17.5742 3.45001 17.476 4.0453 17.3929 4.60933C17.8021 5.48976 17.9986 6.53652 18.0212 7.64206C18.0817 10.9162 16.4144 14.3478 9.70775 14.5742C5.49435 14.5367 2.8424 13.2498 1.7582 10.5472C1.04548 10.0958 0.689112 9.26786 0.36423 8.45496L0.341563 8.2361L0.326453 7.64206L0.341563 7.05552L0.386896 6.4915L0.46245 5.96499L0.568226 5.46099L0.689112 4.99452L0.847776 4.55055L1.02155 4.1366L1.21799 3.74515L1.43836 3.38373L1.64235 3.09734C1.71791 3.65386 1.81613 4.39172 1.99116 4.53429C4.12053 6.31016 7.87934 6.08505 9.68257 9.6668C11.6457 5.69236 15.1162 6.1901 17.2455 4.41298L17.442 2.71215C14.9562 5.37595 11.5765 4.47301 9.68131 8.46997C7.64261 4.5493 4.30815 5.51227 1.81487 2.87848L1.81865 2.87973ZM3.49343 3.8352C4.76651 1.87049 7.1918 1.3815 9.70775 1.389C12.1784 1.3815 14.5583 1.84798 15.8616 3.76016L17.4004 2.60084L17.4911 2.53331C15.5582 0.448541 12.3673 -0.00292969 9.70775 -0.00292969C7.04825 -0.00292969 3.71254 0.463549 1.80354 2.66087L1.83376 2.69089L1.88664 2.73591L1.91687 2.75842C2.32612 3.15737 2.78826 3.57882 3.2504 3.82019C3.32595 3.85771 3.40906 3.87272 3.49343 3.8352ZM17.2632 2.5033L16.5655 2.93976C14.5117 1.14138 12.3144 0.697413 9.70775 0.719924C7.07091 0.697413 4.75896 1.16389 2.72781 3.08358L2.01509 2.65462L2.21153 2.44327L2.50745 2.17188L2.81092 1.92301L3.13706 1.68915L3.47076 1.4778L3.81957 1.2902L4.18349 1.11762L4.55496 0.960042L4.93399 0.824976L5.32058 0.697413L5.70716 0.592362L6.10886 0.494814L6.51055 0.412274L6.91225 0.34474L7.3215 0.292215L7.7232 0.247193L8.12489 0.209674L8.52659 0.17966L8.92829 0.164652L9.32243 0.149645H10.0956L10.4897 0.164652L10.8839 0.17966L11.2856 0.209674L11.6948 0.247193L12.0965 0.292215L12.5058 0.34474L12.9075 0.412274L13.3092 0.494814L13.7033 0.592362L14.0974 0.697413L14.484 0.824976L14.8631 0.960042L15.2345 1.11762L15.5909 1.2902L15.9397 1.4778L16.281 1.68915L16.5995 1.92301L16.9106 2.17188L17.2065 2.44327L17.2669 2.5033H17.2632ZM9.68509 10.8799C8.80614 8.99773 7.84408 8.15481 6.3733 7.54577L2.69759 6.31891L2.19012 4.92698C3.09173 5.61232 4.42526 6.0788 5.69835 6.56779C7.65394 7.31315 8.72177 8.26112 9.68509 10.1958V10.8811V10.8799ZM9.68509 10.8799C10.564 8.99773 11.5261 8.03475 12.9969 7.42571L16.6348 6.13883L17.1423 4.79192C16.2331 5.47725 14.8077 6.00376 13.5346 6.48525C11.5714 7.23061 10.6471 8.26112 9.68509 10.1958V10.8811V10.8799ZM16.0958 4.97951L16.3238 4.85945L16.5441 4.73189L16.7557 4.60433L16.9597 4.46176L17.1108 4.3417L17.2468 3.11485L17.073 3.28743L16.8149 3.49128L16.5643 3.68638L16.3061 3.85896L16.0404 4.01654L15.7823 4.16661L15.5166 4.30918L15.2509 4.43674L14.7208 4.67811C14.2813 4.8657 13.8418 5.03954 13.4023 5.22713L12.8873 5.46099L12.6367 5.58856L12.4013 5.71612C11.8031 6.22762 11.4996 6.71661 11.3788 7.24437L11.545 7.1093L11.7956 6.92921L12.0462 6.75663L12.3043 6.59905L12.5624 6.45648L12.8206 6.32142L13.0863 6.20136L13.3444 6.0888L13.867 5.86994C14.3745 5.67485 14.8819 5.49351 15.3907 5.29091L15.6262 5.19336L15.8692 5.08831L16.0971 4.98326L16.0958 4.97951ZM11.7011 6.17634L11.6709 6.19135L11.443 6.37144L11.2151 6.57404L11.0035 6.78539L10.9355 6.85293C10.7315 7.24437 10.632 7.60579 10.6471 7.95221L10.8209 7.75712L11.0564 7.52325L11.1622 7.43321C11.2226 7.01926 11.4052 6.6053 11.6999 6.17634H11.7011ZM6.38841 5.55104H6.38085L5.86583 5.33218C5.42635 5.15209 4.98688 4.97826 4.54741 4.80567L4.01727 4.57181L3.75157 4.44425L3.48587 4.31668L3.22017 4.16661L2.96203 4.00903L2.70389 3.83645L2.44574 3.65636L2.19516 3.45251L1.95212 3.22615L1.77835 3.05357C1.81613 3.27242 1.84635 3.48253 1.87657 3.69388L1.9219 3.91274L1.95968 4.10783L2.00501 4.26541L2.0579 4.37796L2.09568 4.43049L2.28456 4.57306L2.48982 4.72313L2.71018 4.8582L2.93055 4.98576L3.16603 5.10582L3.4015 5.22588L3.64454 5.33843L4.15201 5.54979C4.68215 5.75989 5.2211 5.95624 5.75124 6.17509L6.28893 6.40896L6.56218 6.52902L6.82788 6.66408L7.09358 6.80665L7.35928 6.95673L7.49528 7.04677C7.18425 6.53527 6.79766 6.04628 6.38841 5.54854V5.55104Z" />
</symbol>

<symbol  viewBox="0 0 18 14"  xmlns="http://www.w3.org/2000/svg" id="lexus" >
<path fill-rule="evenodd" clip-rule="evenodd" d="M9.1837 1.3338C8.26209 2.46385 5.63114 6.10714 5.33252 6.58012C4.75587 7.48519 4.70439 7.92238 4.68894 8.21385C4.67092 8.5002 4.67092 9.01665 5.14202 9.4385C5.92719 10.1339 7.03157 10.0214 8.00981 10.0214H16.07C16.415 10.0214 16.5179 9.91916 16.7033 9.67371C17.3469 8.69706 17.6352 7.63603 17.6352 6.68495C17.6352 4.65238 16.3068 2.09058 12.9422 0.932398L12.5638 1.47186C15.2333 2.72975 16.3351 4.37626 16.3351 6.67728C16.3532 7.296 16.1884 7.96329 15.7817 8.58201H7.94288C7.47435 8.58201 7.40484 8.05277 7.57475 7.7562C8.26982 6.53155 8.9829 5.44751 9.81955 4.33535C10.6124 3.28455 11.3925 2.30278 12.2111 1.27499C12.4325 0.988646 12.2857 0.712523 11.843 0.623039C10.9265 0.431288 9.97144 0.29834 8.81042 0.29834C2.37978 0.29834 0.0268555 3.96719 0.0268555 6.68495C0.0268555 9.63281 2.39523 13.0537 8.82587 13.0537C12.3939 13.0537 14.7313 11.9134 16.0829 10.4484H14.7211C13.5394 11.5324 11.5083 12.302 8.82844 12.302C3.38119 12.302 1.3758 9.26209 1.3758 6.6466C1.41441 4.30978 3.56911 1.0858 8.96488 0.978419C9.16825 0.973306 9.32786 1.15739 9.18627 1.33124L9.1837 1.3338Z" />
</symbol>

<symbol viewBox="0 0 18 19"  xmlns="http://www.w3.org/2000/svg" id="mercedes" >
<path d="M15.0197 3.44501C13.3617 1.79601 11.1558 0.889893 8.8094 0.889893C6.46297 0.889893 4.25947 1.79601 2.5991 3.44501C0.941117 5.09164 0.0263672 7.28242 0.0263672 9.61278C0.0263672 11.9431 0.941117 14.1339 2.5991 15.7806C4.25709 17.4272 6.46297 18.3357 8.8094 18.3357C11.1558 18.3357 13.3593 17.4296 15.0197 15.7806C16.6777 14.1339 17.5924 11.9431 17.5924 9.61278C17.5924 7.28242 16.6801 5.09401 15.0197 3.44501ZM2.62054 15.5629C0.526621 13.3508 -0.473887 9.94874 0.574264 6.87076C0.729105 6.35264 0.948264 5.85108 1.21983 5.37318C2.59196 2.97184 5.30762 1.17616 8.04234 1.01292C11.7585 0.712454 15.2174 2.7873 16.6729 6.12315C17.0279 6.93228 17.1756 7.56869 17.2875 8.6144C17.0922 7.34393 16.6277 6.42362 16.206 5.64525C15.4985 4.39372 14.3646 3.21789 13.0711 2.48211C10.8104 1.02711 7.27291 0.913551 4.92648 2.23843C3.46383 3.01443 2.28466 4.15713 1.49616 5.52459C0.667169 6.96067 0.269348 8.64042 0.424189 10.3982C0.600469 12.3524 1.55333 14.3847 3.03266 15.8799L2.61816 15.5629H2.62054ZM15.7582 13.5567L10.3268 8.98347L9.9576 9.20822C9.9576 9.20822 15.5628 13.4171 15.7391 13.5543C15.7439 13.559 15.7463 13.5614 15.751 13.5661C15.8987 13.6939 15.7439 13.7601 15.67 13.7081C15.67 13.7081 15.6653 13.7081 15.6653 13.7057L9.03094 9.77366V11.1884L15.5676 13.8027C15.5771 13.8074 15.589 13.8122 15.6009 13.8193C15.2817 14.3256 14.9054 14.8011 14.4694 15.234C12.9591 16.734 10.9486 17.562 8.81178 17.562C6.67498 17.562 4.66444 16.7364 3.15415 15.234C2.68724 14.7703 2.28466 14.2569 1.95116 13.7081C1.96545 13.7885 1.9988 13.8642 2.01547 13.895L1.72247 13.5212L1.55572 13.1119C1.60336 13.1994 1.65577 13.2491 1.70817 13.2775C1.12216 12.1608 0.810099 10.9116 0.810099 9.61515C0.810099 7.49298 1.64147 5.4962 3.15415 3.99625C4.64776 2.51287 6.62734 1.68955 8.73555 1.67062L7.5945 8.67118L7.96373 8.91249L8.74985 1.67062L8.75699 1.59492C8.7689 1.46006 8.81655 1.36543 8.90469 1.36543C9.02141 1.36543 9.04762 1.53104 9.04762 1.62331V1.67536L9.11194 9.38803L10.203 8.74925L9.09764 1.67772C11.1296 1.74633 13.0282 2.56255 14.4742 3.99862C15.9845 5.49857 16.8182 7.49535 16.8182 9.61752C16.8182 11.0228 16.4514 12.3737 15.7653 13.5614L15.7582 13.5567ZM1.40326 13.3295C1.1031 12.5677 0.640965 11.6829 0.600468 9.93927C0.776748 11.6096 1.27224 12.6979 1.62718 13.3958C1.71056 13.5496 1.56286 13.6797 1.40326 13.3295ZM11.4512 17.5597C8.27103 18.551 4.83357 17.6567 2.68486 15.208C2.27513 14.7609 2.05835 14.4604 1.68197 13.8382C1.57001 13.6773 1.69388 13.5638 1.78917 13.6844C3.46145 16.4619 6.66307 18.0187 10.0172 17.5833C12.3136 17.2403 14.4218 15.8894 15.7272 13.876C15.8225 13.9139 15.9249 13.9328 15.9726 13.8595C16.0274 13.7767 16.0321 13.7459 15.8963 13.6205C15.894 13.6158 15.8916 13.6134 15.8892 13.6087C16.5014 12.6434 16.8373 11.4534 16.9159 10.2255C17.0255 8.5103 16.63 6.72645 15.7844 5.40394C15.4556 4.90947 14.8982 4.20445 14.5028 3.73601C16.4609 5.5175 17.309 7.8384 17.2661 10.3249C17.0636 13.5472 14.5576 16.6299 11.456 17.562L11.4512 17.5597Z" />
<path d="M6.67761 10.6159L8.63099 9.62702L8.28557 9.3999L6.67761 10.6159Z" />
<path d="M1.98 13.5826L8.75726 11.1766V9.70975L1.83231 13.4667L7.883 9.12775L7.49471 8.86987L1.93236 13.2491C1.87757 13.2916 1.79419 13.32 1.70605 13.2727C1.78228 13.4194 1.86328 13.5637 1.94904 13.7057C1.94904 13.6986 1.94665 13.6915 1.94427 13.6844L1.98 13.5826Z" />
<path d="M8.31412 9.14446L8.74291 9.42126L8.91442 1.66837L8.91919 1.50513L8.90489 1.66837L8.31412 9.14446Z" />
<path d="M9.24326 9.62705L15.5989 13.5733L9.52912 9.45435L9.24326 9.62705Z" />
<path d="M1.55362 13.1095L1.72037 13.5188L2.01338 13.8926C1.9967 13.8642 1.96335 13.7862 1.94906 13.7057C1.8633 13.5638 1.78231 13.4195 1.70608 13.2728C1.65605 13.2468 1.60364 13.1947 1.55362 13.1072V13.1095Z" />
</symbol>

<symbol  viewBox="0 0 18 15"  xmlns="http://www.w3.org/2000/svg" id="mitsubishi" >
<path d="M6.13602 4.91914L8.97969 9.80933L11.8225 4.91914L8.97969 0.0280762L6.13602 4.91914Z" />
<path d="M14.6651 9.80933H8.97952L11.8223 14.7004H17.5088L14.6651 9.80933Z" />
<path d="M3.29322 9.80933H8.97968L6.13601 14.7004H0.449554L3.29322 9.80933Z" />
</symbol>

<symbol  viewBox="0 0 24 20"  xmlns="http://www.w3.org/2000/svg" id="nissan" >
<path d="M13.7314 10.3912C13.7134 10.3957 13.6412 10.3957 13.6097 10.3957H11.2838V10.9329H13.6502C13.6683 10.9329 13.808 10.9329 13.8351 10.9284C14.3174 10.8836 14.5382 10.4852 14.5382 10.136C14.5382 9.7779 14.3083 9.39291 13.8711 9.35262C13.7855 9.34366 13.7134 9.34367 13.6818 9.34367H12.1357C12.0681 9.34367 11.9915 9.33919 11.9645 9.33024C11.8427 9.2989 11.7977 9.19146 11.7977 9.10193C11.7977 9.02135 11.8427 8.91391 11.969 8.8781C12.005 8.86914 12.0456 8.86467 12.1312 8.86467H14.3624V8.33643H12.0952C12.0005 8.33643 11.9284 8.3409 11.8698 8.34986C11.4821 8.40358 11.2117 8.71246 11.2117 9.1064C11.2117 9.42872 11.4145 9.80476 11.8608 9.86743C11.9419 9.87638 12.0546 9.87638 12.1042 9.87638H13.6097C13.6367 9.87638 13.7043 9.87638 13.7179 9.88086C13.8891 9.90324 13.9477 10.0286 13.9477 10.1405C13.9477 10.2479 13.8801 10.3643 13.7314 10.3912Z" />
<path d="M9.32284 10.3912C9.30481 10.3957 9.2327 10.3957 9.20565 10.3957H6.87528V10.9329H9.24171C9.25974 10.9329 9.39947 10.9329 9.42652 10.9284C9.90882 10.8836 10.1297 10.4852 10.1297 10.136C10.1297 9.7779 9.8998 9.39291 9.46258 9.35262C9.37694 9.34366 9.30482 9.34367 9.27326 9.34367H7.7272C7.65958 9.34367 7.58296 9.33919 7.55591 9.33024C7.43421 9.2989 7.38913 9.19146 7.38913 9.10193C7.38913 9.02135 7.43421 8.91391 7.56042 8.8781C7.59648 8.86914 7.63705 8.86467 7.72269 8.86467H9.95389V8.33643H7.68663C7.59197 8.33643 7.51985 8.3409 7.46125 8.34986C7.07361 8.40358 6.80316 8.71246 6.80316 9.1064C6.80316 9.42872 7.006 9.80476 7.45224 9.86743C7.53337 9.87638 7.64606 9.87638 7.69564 9.87638H9.20114C9.22819 9.87638 9.2958 9.87638 9.30932 9.88086C9.48061 9.90324 9.5392 10.0286 9.5392 10.1405C9.5392 10.2479 9.4761 10.3643 9.32284 10.3912Z" />
<path d="M5.66294 8.31836H5.07697V10.9461H5.66294V8.31836Z" />
<path d="M3.7832 10.9461V8.31836H3.19723V10.2791L1.24549 8.31836H0.492737V10.9461H1.07871V8.97642L3.04397 10.9461H3.7832Z" />
<path d="M22.6288 8.31836V10.2791L20.677 8.31836H19.9243V10.9461H20.5103V8.97642L22.471 10.9461H23.2102V8.31836H22.6288Z" />
<path d="M16.8731 8.31836L15.2234 10.9461H15.9355L16.2285 10.4761H18.1532L18.4462 10.9461H19.1539L17.5041 8.31836H16.8731ZM17.8512 9.97919H16.5305L17.1931 8.9227L17.8512 9.97919Z" />
<path d="M3.75178 6.82763C4.93274 3.40301 8.18714 1.10203 11.8562 1.10203C15.5253 1.10203 18.7842 3.40301 19.9607 6.82763L19.9697 6.85449H22.5525V6.5456L21.4797 6.42025C20.8171 6.34415 20.6774 6.05317 20.4971 5.68609L20.452 5.59656C18.9014 2.31967 15.5253 0.197754 11.8562 0.197754C8.18263 0.197754 4.81104 2.31967 3.26046 5.60551L3.21539 5.69504C3.03509 6.06212 2.89535 6.3531 2.23275 6.42921L1.15997 6.55455V6.86344H3.73825L3.75178 6.82763Z" />
<path d="M19.9696 12.4146L19.9605 12.4415C18.7796 15.8661 15.5252 18.1626 11.8561 18.1626C8.187 18.1626 4.92809 15.8616 3.75163 12.437L3.74262 12.4102H1.16434V12.719L2.23712 12.8444C2.89972 12.9205 3.03945 13.2115 3.21975 13.5786L3.26482 13.6681C4.8154 16.9539 8.1915 19.0758 11.8606 19.0758C15.5297 19.0758 18.9058 16.9539 20.4564 13.6726L20.5014 13.583C20.6817 13.2159 20.8215 12.925 21.4841 12.8489L22.5569 12.7235V12.4146H19.9696Z" />
</symbol>

<symbol  viewBox="0 0 24 13"  xmlns="http://www.w3.org/2000/svg" id="landRover" >
<path fill-rule="evenodd" clip-rule="evenodd" d="M23.5573 6.6531C23.5573 9.88793 18.2988 12.5096 11.8124 12.5096C5.32598 12.5096 0.0688477 9.88793 0.0688477 6.6531C0.0688477 3.41827 5.32737 0.796631 11.8138 0.796631C18.3002 0.796631 23.5587 3.41827 23.5587 6.6531H23.5573ZM11.8138 1.25756C5.58103 1.25756 0.528777 3.67296 0.528777 6.6531C0.528777 9.63325 5.58103 12.0486 11.8124 12.0486C18.0437 12.0486 23.096 9.63325 23.096 6.6531C23.096 3.67296 18.0451 1.25756 11.8138 1.25756Z" />
<path fill-rule="evenodd" clip-rule="evenodd" d="M22.8045 6.6532C22.8045 9.47278 17.8833 11.7594 11.8122 11.7594C5.74117 11.7594 0.82132 9.47278 0.82132 6.6532C0.82132 3.83362 5.74256 1.54834 11.8136 1.54834C17.8847 1.54834 22.8059 3.83362 22.8059 6.6532H22.8045ZM18.8575 4.26272H16.9718L16.7418 4.91467H17.9627L16.5704 5.3936L16.4784 5.65797L18.6206 4.96035L18.8575 4.26272ZM6.83803 5.40744H6.07009C6.07009 5.40744 6.78228 3.52357 6.83942 3.381C6.94117 3.12908 7.0011 3.14569 7.0011 3.14569H5.94047C6.07148 3.20797 5.9558 3.45436 5.9558 3.45436C5.9558 3.45436 5.10563 5.80331 5.04709 5.92097C4.98856 6.03862 4.94396 6.05385 4.94396 6.05385H6.78089L7.03733 5.35761C7.01503 5.42405 6.83803 5.40744 6.83803 5.40744ZM10.0603 6.05108H10.9258C10.9258 6.05108 10.8659 5.96388 10.9035 5.86837C10.9551 5.73549 11.4136 4.49526 11.4136 4.49526L11.6129 6.05108H12.3962L13.4234 3.2841C13.4234 3.2841 13.4652 3.15399 13.5223 3.15399L12.6903 3.15122C12.6903 3.15122 12.714 3.24673 12.6847 3.32009C12.6554 3.39345 12.1816 4.64891 12.1816 4.64891L11.9962 3.15122H11.1014C11.1014 3.15122 11.1474 3.22458 11.1182 3.30487C11.0945 3.36992 10.1704 5.88913 10.1704 5.88913C10.1704 5.88913 10.1119 6.0497 10.0589 6.0497L10.0603 6.05108ZM14.0157 3.15261C14.0157 3.15261 14.0896 3.27026 13.9934 3.54156C13.8972 3.81286 13.1432 5.83238 13.1432 5.83238C13.1432 5.83238 13.0833 6.02201 13.0025 6.05939H14.1858C14.1858 6.05939 15.6199 6.1106 16.0631 4.6143C16.0631 4.6143 16.6248 3.13876 14.9983 3.15261H14.0157ZM14.1412 5.38944C14.1412 5.38944 14.1453 5.38944 14.2777 5.38944C14.4784 5.38944 14.852 5.34515 15.1028 4.74026C15.514 3.74504 14.9398 3.77826 14.9398 3.77826H14.7182L14.1412 5.39083V5.38944ZM3.62131 8.3945H5.50702L5.73699 7.74255H4.51748L5.90981 7.26363L6.0018 6.99925L3.85964 7.69687L3.62271 8.3945H3.62131ZM6.92444 9.59736C6.89517 9.59736 6.89517 9.50323 6.89517 9.50323L7.24221 8.58967C7.24221 8.58967 7.67427 9.43125 7.70353 9.49077C7.7328 9.54891 7.71886 9.59874 7.71886 9.59874H8.75162C8.65266 9.59874 8.55092 9.41326 8.55092 9.41326L8.03663 8.49693C8.7558 8.49693 8.98576 7.78823 8.98576 7.78823C9.34116 6.66289 8.14674 6.69196 8.14674 6.69196H6.92444C7.01364 6.79024 6.94395 6.99509 6.94395 6.99509C6.94395 6.99509 6.18437 9.15026 6.12584 9.31637C6.0673 9.48247 5.95859 9.59874 5.95859 9.59874C5.95859 9.59874 6.97462 9.59874 6.92444 9.59874V9.59736ZM7.65615 7.35775L7.45545 7.94187H7.64221C7.64221 7.94187 8.00737 7.97371 8.14116 7.6858C8.14116 7.6858 8.29865 7.35637 7.85824 7.35637C7.76207 7.35637 7.65475 7.35775 7.65475 7.35775H7.65615ZM17.6157 9.60705C17.5418 9.60843 17.5934 9.42849 17.5934 9.42849L17.9028 8.59798C17.9028 8.59798 18.3195 9.43956 18.3488 9.49908C18.3781 9.55721 18.3641 9.60705 18.3641 9.60705H19.4345C19.3356 9.60705 19.2269 9.42156 19.2269 9.42156L18.7126 8.50524C19.4331 8.50524 19.6492 7.82283 19.6492 7.82283C20.0269 6.64351 18.8227 6.70165 18.8227 6.70165H17.6101C17.6993 6.79992 17.6296 7.00478 17.6296 7.00478C17.6296 7.00478 16.8394 9.16826 16.7795 9.33436C16.7209 9.50046 16.6067 9.60705 16.6067 9.60705H17.6143H17.6157ZM18.3209 7.95295C18.3209 7.95295 18.6833 7.98063 18.7934 7.69826C18.9244 7.36606 18.5983 7.37574 18.5983 7.37574H18.3307L18.1342 7.95295H18.3209ZM10.2638 9.66933C11.33 9.66933 11.9655 8.62981 11.9655 7.88512C11.9655 7.10306 11.6422 6.61583 10.9021 6.61583C9.95858 6.61583 9.34395 7.32591 9.18506 8.21041C9.03872 9.02292 9.50144 9.67072 10.2638 9.67072V9.66933ZM10.3307 8.98278C10.5969 9.03123 10.8896 8.84159 11.0415 8.23394C11.2729 7.31484 10.8464 7.30653 10.7683 7.29685C10.5328 7.26778 10.2178 7.53769 10.0896 8.10106C10.0311 8.35851 9.96834 8.91495 10.3307 8.98278ZM12.2178 6.70165C12.2178 6.70165 12.2917 6.7404 12.2917 6.92727V9.44371C12.2917 9.44371 12.2819 9.58074 12.229 9.60981H13.022C13.022 9.60981 13.022 9.55029 13.1 9.4534C13.1795 9.35512 14.8255 7.16258 14.8255 7.16258C14.8255 7.16258 15.2004 6.70303 15.2993 6.70303H14.1648C14.1648 6.70303 14.254 6.76117 14.1844 6.86913C14.1147 6.9771 13.107 8.47478 13.107 8.47478L13.1195 6.96464C13.1195 6.96464 13.1182 6.72241 13.2157 6.70165H12.2178ZM17.0094 7.3882L17.2659 6.70165H15.3439C15.3439 6.70165 15.4122 6.76255 15.3244 7.00755C15.2352 7.25255 14.4575 9.33713 14.4575 9.33713C14.4575 9.33713 14.3195 9.6112 14.2805 9.6112C14.2415 9.6112 16.261 9.6112 16.261 9.6112L16.4979 8.91634C16.4979 8.91634 16.4687 8.95509 16.2805 8.95509H15.4429L15.6199 8.48586H16.2708C16.2708 8.48586 16.4087 8.47617 16.438 8.51493L16.7042 7.77162C16.7042 7.77162 16.6847 7.83945 16.5063 7.83945H15.8749L16.0631 7.32038H16.8617C16.8617 7.32038 16.9704 7.30515 17.0094 7.3882ZM6.98995 6.05523H7.93768C7.93768 6.05523 7.93489 5.98326 7.95998 5.9362C8.00458 5.85176 8.12305 5.6469 8.12305 5.6469H9.07775V5.90159C9.07775 5.90159 9.08472 5.99018 9.01364 6.058H9.95998C9.95998 6.058 9.89029 6.01925 9.87635 5.90297L9.75788 3.34778C9.75788 3.34778 9.75231 3.18444 9.83036 3.14984H8.89099C8.89099 3.14984 8.95649 3.23012 8.83106 3.41422C8.70562 3.59831 7.10144 5.95973 7.10144 5.95973C7.10144 5.95973 7.06939 6.02063 6.98855 6.05523H6.98995ZM9.05824 4.13953L8.53141 4.9908H9.0652L9.05824 4.13953Z" />
</symbol>

<symbol viewBox="0 0 18 18"  xmlns="http://www.w3.org/2000/svg" id="skoda" >
<path d="M8.06892 17.2969C5.97243 17.0631 4.25111 16.2376 2.7946 14.791C1.48522 13.4833 0.698114 12.0149 0.345021 10.1957C0.190543 9.39941 0.205253 7.82138 0.374443 7.02505C0.573058 6.11184 0.76432 5.57121 1.16891 4.77489C3.12563 0.939381 7.59813 -0.887052 11.7102 0.479119C14.6011 1.43617 16.6829 3.74478 17.4553 6.84241C17.5804 7.3392 17.5951 7.52915 17.5951 8.65423C17.5951 10.0204 17.5583 10.2761 17.1978 11.4012C16.4181 13.8632 14.3437 15.96 11.8058 16.8586C10.776 17.2165 9.12084 17.4138 8.06892 17.2969ZM9.68726 16.5371C13.5198 16.1791 16.6167 13.0523 16.8448 9.30444C16.9698 7.36112 16.4696 5.57852 15.3882 4.08084C14.4319 2.75851 12.9681 1.69187 11.3939 1.17316C10.1948 0.778654 8.59121 0.676374 7.39952 0.932075C4.1849 1.6042 1.84567 3.90551 1.13212 7.0835C0.940866 7.94557 0.940866 9.39941 1.13212 10.2907C1.36752 11.3647 1.83095 12.424 2.47093 13.3153C2.87552 13.8851 3.85388 14.8276 4.43502 15.2075C6.07543 16.2741 7.79675 16.7124 9.68726 16.5371ZM3.54492 13.1034C3.15505 12.6139 2.85345 12.161 2.65483 11.7519C2.56656 11.5765 2.50036 11.4231 2.50036 11.4158C2.50036 11.4085 2.99322 11.3939 3.59642 11.3939H4.69248L5.30303 11.6569C5.75911 11.8541 5.98715 11.9199 6.20783 11.9199C6.43587 11.9199 6.50208 11.898 6.50208 11.8322C6.50208 11.6569 6.31817 10.8459 6.22254 10.6122C5.86945 9.72087 5.08235 8.94646 4.03778 8.46428C3.62584 8.27433 2.39002 7.88713 2.20611 7.88713C2.13991 7.88713 2.07371 7.84329 2.05164 7.79946C1.96336 7.58029 2.28703 6.45521 2.65483 5.69541L2.86816 5.24976L3.08149 5.28629C3.78032 5.39587 5.42073 6.02417 6.14163 6.46251C6.33289 6.5794 6.51679 6.66707 6.55357 6.66707C6.94344 6.66707 5.64141 5.59313 4.25111 4.76758C3.86859 4.5411 3.55964 4.34385 3.55964 4.32193C3.55964 4.30001 3.77296 4.07354 4.03043 3.81053C4.56742 3.27721 5.39866 2.69276 5.61199 2.69276C5.79589 2.69276 6.39909 3.02151 6.96551 3.43794C7.21561 3.62058 7.77468 4.11737 8.21604 4.54841C8.91487 5.22784 9.20912 5.44701 9.20912 5.27898C9.20912 5.25707 9.09142 5.03059 8.95165 4.7895C8.59121 4.16121 7.99537 3.41602 7.31125 2.7512C6.98758 2.43705 6.75219 2.16674 6.78897 2.14483C7.0023 2.01332 7.92181 1.86721 8.70155 1.83068L9.56957 1.79415L10.1948 2.40053C11.6881 3.85437 12.4017 5.48354 12.4973 7.62412C12.5561 8.95376 12.2693 10.6195 11.7764 11.8176C11.7396 11.9053 11.7764 11.9199 12.0854 11.9199H12.4311L12.5267 11.6715C12.6076 11.4523 12.6371 11.4231 12.7915 11.4377C13.3138 11.4889 14.0715 11.8395 14.6085 12.2925C14.763 12.4167 14.7703 12.4532 14.6968 12.5336C14.4982 12.7674 13.8288 13.1765 13.3874 13.3299C12.718 13.5637 12.6591 13.5564 12.5267 13.2349L12.4164 12.9719H9.20912H6.00186L5.47222 13.2349C4.96465 13.4906 4.92787 13.4979 4.4203 13.4979H3.89066L3.54492 13.1034ZM10.673 10.9044C11.1364 10.488 11.0261 9.75739 10.467 9.509C9.73141 9.18755 9.01051 9.91812 9.3636 10.6414C9.599 11.1382 10.2684 11.2697 10.673 10.9044Z" />
</symbol>

<symbol  viewBox="0 0 18 17"  xmlns="http://www.w3.org/2000/svg" id="tesla" >
<path d="M8.84133 16.7613L11.1304 3.97694C13.3124 3.97694 14.0001 4.21466 14.0995 5.18413C14.0995 5.18413 15.5627 4.64205 16.3015 3.54123C13.4208 2.2155 10.5265 2.15591 10.5265 2.15591L8.83746 4.19864H8.84133L7.15226 2.15527C7.15226 2.15527 4.25802 2.21486 1.37796 3.54059C2.11539 4.64141 3.57929 5.18349 3.57929 5.18349C3.67929 4.21338 4.3664 3.9763 6.53354 3.97438L8.84068 16.7607" />
<path d="M8.84047 1.56623C11.1689 1.54829 13.8341 1.92377 16.5626 3.10469C16.9271 2.45304 17.0213 2.1647 17.0213 2.1647C14.038 0.993396 11.245 0.592283 8.83982 0.582031C6.43462 0.592283 3.64166 0.993396 0.659668 2.16534C0.659668 2.16534 0.792574 2.52032 1.11774 3.10533C3.84554 1.92377 6.51139 1.54829 8.83982 1.56623" />
</symbol>

<symbol  viewBox="0 0 21 13"  xmlns="http://www.w3.org/2000/svg" id="Toyota" >
<path d="M16.1971 1.17486C14.9534 0.624371 13.1996 0.274513 11.1201 0.245672C11.1163 0.245672 11.1125 0.245672 11.1087 0.245672C11.0216 0.245672 10.9332 0.243164 10.8448 0.243164H10.8398C8.62264 0.243164 6.75649 0.604307 5.456 1.1874C2.66688 2.2934 0.971191 4.26464 0.971191 6.51426C0.971191 10.1583 5.13277 13.0061 10.8411 13.0061C16.5493 13.0061 20.7109 10.1583 20.7109 6.51426C20.7109 4.25586 19.0039 2.27961 16.1971 1.17486ZM16.5569 2.99312C16.5569 4.02012 14.966 4.6772 13.11 4.96812C12.8158 2.33729 11.8814 1.00432 10.8537 1.00432C9.82591 1.00432 8.89031 2.33855 8.59612 4.97188C6.72871 4.68347 5.12393 4.02513 5.12393 2.99312C5.12393 2.39497 5.87393 1.8821 6.97366 1.5197C7.99133 1.20872 9.10496 1.01937 10.2388 0.970466C10.2388 0.970466 10.24 0.970466 10.2413 0.970466C10.3676 0.964196 10.4951 0.961688 10.6226 0.95918C10.6352 0.95918 10.6479 0.95918 10.6605 0.95918C10.7198 0.95918 10.7804 0.95918 10.8411 0.95918H10.8448C10.9017 0.95918 10.9585 0.95918 11.0153 0.95918C11.033 0.95918 11.0506 0.95918 11.0683 0.95918C11.1226 0.95918 11.1782 0.961688 11.2325 0.962942C11.2489 0.962942 11.2666 0.962942 11.283 0.964196C11.3246 0.96545 11.3676 0.966704 11.4105 0.969212C11.4294 0.969212 11.4496 0.970466 11.4686 0.97172C11.5254 0.974228 11.5822 0.976736 11.639 0.980498C11.6453 0.980498 11.6529 0.980498 11.6592 0.980498C12.6933 1.04194 13.7072 1.2175 14.6415 1.49839C15.7766 1.86078 16.5582 2.38118 16.5582 2.99186L16.5569 2.99312ZM12.3751 6.58574C12.3751 8.97831 11.5443 10.2147 10.8524 10.2147C10.1605 10.2147 9.3297 8.97706 9.3297 6.58574C9.3297 6.57696 9.3297 6.56944 9.3297 6.56191C9.81328 6.60204 10.3183 6.62336 10.8398 6.62336C11.3612 6.62336 11.884 6.60204 12.3751 6.5594C12.3751 6.56818 12.3751 6.57571 12.3751 6.58448V6.58574ZM10.8398 5.14242C10.3802 5.14242 9.90293 5.11985 9.43071 5.07596C9.6845 3.3179 10.365 2.5442 10.8524 2.5442C11.3398 2.5442 12.0203 3.3179 12.2741 5.07345C11.7931 5.11985 11.3082 5.14242 10.8398 5.14242ZM2.34239 6.18196C2.34239 5.16625 2.76158 4.27091 3.47117 3.52229C3.59743 4.92548 5.58352 6.07036 8.50269 6.47037C8.50016 6.58072 8.50016 6.69233 8.50016 6.80518C8.50016 10.3113 9.52162 12.1007 10.6302 12.3114C6.77417 12.2324 2.34239 10.0166 2.34239 6.18196ZM11.0784 12.3114C12.1857 12.0982 13.2059 10.3088 13.2059 6.80518C13.2059 6.69107 13.2059 6.57821 13.2034 6.46661C16.1112 6.06283 18.0859 4.91921 18.2084 3.51728C18.9193 4.2684 19.341 5.16374 19.341 6.18071C19.341 10.0066 14.9281 12.2211 11.0784 12.3101V12.3114Z" />
</symbol>

<symbol  viewBox="0 0 18 19"  xmlns="http://www.w3.org/2000/svg" id="volkswagen" >
<path d="M8.86815 0.982028C3.98712 0.959805 0.0499038 4.85948 0.0268555 9.73798C0.031929 14.5963 3.93029 18.4909 8.80161 18.5149C13.6825 18.539 17.6194 14.6497 17.6378 9.75876C17.6561 4.92615 13.7577 1.0044 8.86815 0.982028ZM6.3134 2.19404C6.93832 1.98191 7.57773 1.84367 8.23715 1.79533C8.44052 1.78032 8.64317 1.77527 8.84684 1.77397C9.69948 1.77209 10.5282 1.91005 11.3348 2.18697C11.4306 2.21987 11.4325 2.25292 11.3952 2.33604C10.5827 4.15254 9.77327 5.97019 8.96237 7.78756C8.93541 7.84846 8.92033 7.93692 8.84162 7.93966C8.75465 7.94283 8.73638 7.85091 8.70797 7.78756C7.89359 5.9637 7.08052 4.13926 6.26571 2.31569C6.23687 2.2509 6.23295 2.22146 6.31326 2.19418L6.3134 2.19404ZM2.16803 5.4025C2.90297 4.31257 3.83375 3.43332 4.99515 2.78901C5.15736 3.14674 5.31943 3.50274 5.48033 3.85917C6.28891 5.64926 7.09806 7.43936 7.90461 9.2306C7.9568 9.3459 8.03116 9.39785 8.16061 9.39627C8.60606 9.3915 9.05181 9.38891 9.49712 9.39771C9.65092 9.40045 9.7321 9.34388 9.794 9.20607C10.4508 7.74326 11.1125 6.28261 11.7733 4.82153C12.0658 4.17389 12.3603 3.52727 12.6495 2.87833C12.6832 2.80228 12.7077 2.79463 12.7784 2.83562C13.8873 3.47921 14.7959 4.33364 15.5132 5.39254C15.5577 5.45849 15.5468 5.50351 15.5152 5.56643C14.1674 8.24703 12.8212 10.9285 11.4748 13.61C11.4526 13.6541 11.4359 13.7065 11.3743 13.7062C11.3072 13.7059 11.2878 13.6479 11.2668 13.6011C11.0743 13.1713 10.8834 12.7405 10.6929 12.3095C10.378 11.5973 10.0616 10.8856 9.75181 10.1712C9.69412 10.0384 9.60772 9.98849 9.46856 9.98965C9.03065 9.99311 8.59273 9.99614 8.1551 9.9882C7.98869 9.98546 7.89751 10.0498 7.83373 10.2012C7.36029 11.3246 6.88077 12.4458 6.40299 13.5675C6.38965 13.599 6.37777 13.632 6.35849 13.6597C6.31239 13.7245 6.26035 13.7299 6.21237 13.6612C6.18859 13.6271 6.16845 13.5899 6.14975 13.5527C4.82193 10.8877 3.49484 8.22278 2.16658 5.55835C2.13933 5.50366 2.12846 5.46094 2.16803 5.40236V5.4025ZM13.9056 15.8777C11.0633 18.2309 6.99137 18.3239 4.068 16.1159C1.0004 13.7994 0.20153 9.97666 1.37047 6.96734C1.52311 7.27369 1.6717 7.57212 1.82086 7.87068C3.22594 10.6843 4.63131 13.498 6.03639 16.3116C6.08712 16.4132 6.14699 16.5067 6.2705 16.5276C6.4085 16.5509 6.51562 16.483 6.58969 16.3213C6.72306 16.0311 6.85221 15.7392 6.98282 15.4481C7.56961 14.141 8.1564 12.8342 8.74319 11.5271C8.76508 11.4783 8.78451 11.4184 8.84568 11.4161C8.92135 11.4134 8.9399 11.4852 8.96411 11.5388C9.22562 12.117 9.48553 12.6961 9.74601 13.2749C10.1977 14.2798 10.65 15.2849 11.1011 16.2903C11.1279 16.35 11.1567 16.4073 11.2036 16.4536C11.3107 16.5591 11.4667 16.5591 11.5736 16.4536C11.6235 16.4044 11.6531 16.3424 11.684 16.281C13.2276 13.1886 14.7717 10.0963 16.3157 7.00413C16.3189 6.9975 16.3239 6.99144 16.3339 6.97657C17.4281 9.71431 16.8362 13.4515 13.9057 15.8777H13.9056Z" />
</symbol>

</svg>

