<svg width="26" height="26" viewBox="0 0 26 26" fill="none" xmlns="http://www.w3.org/2000/svg">
<path d="M20.4765 0.488281C21.7783 0.488281 22.8903 0.948439 23.8153 1.87029C24.7388 2.79061 25.2021 3.90022 25.2021 5.19758V20.8937C25.2021 22.1911 24.7404 23.2992 23.8153 24.221C22.8918 25.1413 21.7783 25.603 20.4765 25.603H17.3924V15.8751H20.6571L21.1498 12.0815H17.3924V9.66219C17.3924 9.05121 17.5206 8.59413 17.7785 8.28941C18.0348 7.98469 18.5352 7.83233 19.2796 7.83233L21.2811 7.8154V4.43117C20.5923 4.33267 19.6178 4.28343 18.3607 4.28343C16.8735 4.28343 15.6844 4.71896 14.7917 5.59156C13.9006 6.46417 13.4543 7.69536 13.4543 9.28667V12.083H10.1726V15.8766H13.4543V25.6046H4.72569C3.42381 25.6046 2.31188 25.1444 1.38682 24.2226C0.463303 23.3022 0 22.1926 0 20.8953V5.19758C0 3.90022 0.461759 2.79215 1.38682 1.87029C2.31034 0.948439 3.42381 0.488281 4.72569 0.488281H20.4765Z" fill="#2E3548"/>
</svg>
