<svg width="165" height="53" viewBox="0 0 165 53" fill="none" xmlns="http://www.w3.org/2000/svg">
<path d="M76.3657 31.8422C75.8049 31.4117 75.0748 31.1964 74.1738 31.1964H63.1832C62.2821 31.1964 61.5615 31.4117 61.0214 31.8422C60.541 32.198 60.3008 32.5821 60.3008 32.9938V36.645H77.0561V32.9938C77.0561 32.5821 76.826 32.198 76.3657 31.8422Z" fill="#2E3548"/>
<path d="M77.8701 14.3783H64.771C62.7381 14.3783 60.7946 13.6705 59.2967 12.385L52.5214 5.50205C49.5591 2.49277 45.3527 0.767334 40.98 0.767334H8.45963C3.79527 0.767334 0 4.31671 0 8.68011V45.0399C0 49.4033 3.79527 52.9527 8.45963 52.9527H77.6654C82.3303 52.9527 86.125 49.4033 86.125 45.0399V22.0996C86.125 17.8419 82.422 14.3783 77.8701 14.3783ZM22.4657 35.887C23.0461 35.887 23.4963 36.0552 23.817 36.3928C24.1371 36.7298 24.2974 37.1327 24.2974 37.6003C24.2974 38.0679 24.1371 38.4707 23.817 38.8078C23.4963 39.1448 23.0461 39.3135 22.4657 39.3135H8.62291V43.33C8.62291 43.7422 8.85306 44.1263 9.31334 44.4816C9.87361 44.9126 10.5942 45.1273 11.4751 45.1273H27.21C27.7702 45.1273 28.211 45.2961 28.531 45.6331C28.8511 45.9701 29.0114 46.373 29.0114 46.8406C29.0114 47.3082 28.8511 47.7111 28.531 48.0486C28.2104 48.3856 27.7702 48.5544 27.21 48.5544H11.4757C9.77421 48.5544 8.29279 48.0868 7.03145 47.1499C5.67012 46.1389 4.98975 44.8656 4.98975 43.33V27.77H27.2105C27.7708 27.77 28.2116 27.9388 28.5316 28.2758C28.8517 28.6128 29.012 29.0157 29.012 29.4833C29.012 29.9509 28.8517 30.3538 28.5316 30.6908C28.211 31.0278 27.7708 31.1966 27.2105 31.1966H8.62291V35.887H22.4657ZM54.8654 35.1289C54.8654 37.2826 53.9644 39.1923 52.1629 40.8586L42.9442 49.2567L33.6356 40.8304C32.5145 39.8193 31.7335 38.6113 31.2933 37.2074C30.9727 36.1399 30.8129 34.7736 30.8129 33.1068C30.8129 32.7134 30.823 32.0958 30.8431 31.253C30.8626 30.4102 30.8733 29.7644 30.8733 29.3151C30.8733 28.791 31.0537 28.3743 31.414 28.065C31.7743 27.7562 32.2044 27.6018 32.7049 27.6018C33.2055 27.6018 33.606 27.7518 33.9663 28.0512C34.3266 28.3511 34.507 28.7628 34.507 29.2869L34.5674 35.213C34.5473 35.2883 34.5473 35.363 34.5674 35.4377C34.6473 36.524 35.1779 37.5068 36.1588 38.3866L42.9152 44.5098L49.6414 38.3866C50.7021 37.4132 51.2328 36.3458 51.2328 35.1848V29.3145C51.2328 28.7717 51.4174 28.3505 51.7884 28.0506C52.1587 27.7512 52.5841 27.6013 53.0645 27.6013C53.5449 27.6013 53.9401 27.7512 54.3105 28.0506C54.6808 28.3505 54.866 28.7717 54.866 29.3145V35.1283L54.8654 35.1289ZM80.6892 46.9253C80.6892 47.4687 80.5093 47.8898 80.1484 48.1892C79.7881 48.4891 79.3675 48.6385 78.8871 48.6385C78.4067 48.6385 77.9565 48.4891 77.5962 48.1892C77.2359 47.8898 77.0554 47.4687 77.0554 46.9253V40.044H60.3V46.9253C60.3 47.4687 60.1196 47.8898 59.7593 48.1892C59.399 48.4891 58.9784 48.6385 58.498 48.6385C58.0176 48.6385 57.5673 48.4891 57.207 48.1892C56.8467 47.8898 56.6663 47.4687 56.6663 46.9253V32.9939C56.6663 31.4589 57.3567 30.1855 58.7382 29.174C59.9995 28.2376 61.4803 27.7695 63.1824 27.7695H74.173C75.8745 27.7695 77.366 28.2376 78.6469 29.174C80.0082 30.185 80.6886 31.4589 80.6886 32.9939V46.9253H80.6892Z" fill="#2E3548"/>
<path d="M112.711 46.0534C112.91 46.3533 113.01 46.6621 113.01 46.9803C113.01 47.4485 112.82 47.8469 112.44 48.1739C112.06 48.5015 111.619 48.6653 111.119 48.6653C110.478 48.6653 109.978 48.3942 109.618 47.8508L105.834 42.0087C105.393 41.3535 104.583 40.7448 103.402 40.1831C102.141 39.6032 100.93 39.3127 99.7687 39.3127H92.5918V46.9521C92.5918 47.4955 92.4113 47.9166 92.051 48.216C91.6907 48.5159 91.2701 48.6653 90.7897 48.6653C90.3093 48.6653 89.8591 48.5159 89.4988 48.216C89.1385 47.9166 88.958 47.4955 88.958 46.9521V29.3696C88.958 28.8455 89.1385 28.4332 89.4988 28.1339C89.8591 27.8345 90.2892 27.6845 90.7897 27.6845C91.2902 27.6845 91.6907 27.8345 92.051 28.1339C92.4113 28.4338 92.5918 28.8455 92.5918 29.3696V35.8856H99.7687C101.21 35.8856 102.581 35.4645 103.882 34.6217C104.883 33.9665 105.934 32.9837 107.035 31.6727C107.916 30.5682 108.796 29.4636 109.677 28.3585C110.057 27.9092 110.528 27.6845 111.089 27.6845C111.569 27.6845 112.005 27.8533 112.395 28.1903C112.786 28.5273 112.981 28.9302 112.981 29.3978C112.981 29.7724 112.841 30.1188 112.56 30.437C111.519 31.7103 110.468 32.9837 109.407 34.257C108.106 35.7362 106.865 36.8319 105.684 37.543C107.205 38.3481 108.286 39.238 108.927 40.2114L112.711 46.0534Z" fill="#2E3548"/>
<path d="M138.836 43.3303C138.836 44.8659 138.155 46.1392 136.795 47.1503C135.513 48.0866 134.022 48.5547 132.32 48.5547H121.33C119.628 48.5547 118.147 48.0871 116.885 47.1503C115.504 46.1392 114.813 44.8659 114.813 43.3303V33.0225C114.813 31.4874 115.504 30.2135 116.885 29.2025C118.147 28.2662 119.628 27.798 121.33 27.798H132.32C134.022 27.798 135.513 28.2662 136.795 29.2025C138.156 30.2135 138.836 31.4874 138.836 33.0225V43.3303ZM135.203 43.3303V33.0225C135.203 32.6108 134.973 32.2267 134.513 31.8709C133.952 31.4404 133.222 31.2251 132.321 31.2251H121.33C120.429 31.2251 119.709 31.4404 119.168 31.8709C118.688 32.2267 118.448 32.6108 118.448 33.0225V43.3303C118.448 43.7426 118.688 44.1266 119.168 44.4819C119.709 44.913 120.43 45.1277 121.33 45.1277H132.321C133.222 45.1277 133.952 44.9124 134.513 44.4819C134.973 44.1266 135.203 43.7426 135.203 43.3303Z" fill="#2E3548"/>
<path d="M164.661 47.0097C164.661 47.5531 164.481 47.9742 164.12 48.2736C163.76 48.573 163.339 48.723 162.858 48.723C162.378 48.723 161.928 48.573 161.568 48.2736C161.207 47.9742 161.027 47.5531 161.027 47.0097V42.8245C161.027 42.431 160.787 42.0476 160.306 41.6729C159.745 41.2424 159.015 41.0271 158.114 41.0271H144.271V47.0097C144.271 47.5531 144.091 47.9742 143.731 48.2736C143.37 48.573 142.95 48.723 142.469 48.723C141.989 48.723 141.539 48.573 141.178 48.2736C140.818 47.9742 140.638 47.5531 140.638 47.0097V27.798H158.144C159.845 27.798 161.337 28.2662 162.618 29.2025C163.979 30.2135 164.659 31.4874 164.659 33.0225V35.8591C164.659 37.226 164.089 38.3587 162.948 39.2574C164.089 40.119 164.659 41.3077 164.659 42.8245V47.0097H164.661ZM161.027 35.8591V33.0225C161.027 32.6108 160.797 32.2267 160.337 31.8709C159.776 31.4404 159.046 31.2251 158.145 31.2251H144.272V37.6011H158.115C159.035 37.6011 159.776 37.3953 160.337 36.983C160.797 36.6278 161.027 36.2526 161.027 35.8597V35.8591Z" fill="#2E3548"/>
</svg>
