<svg width="22" height="22" viewBox="0 0 22 22" fill="none" xmlns="http://www.w3.org/2000/svg">
<path d="M21.1116 16.5936L15.5167 10.9988L21.1116 5.40396C21.8505 4.66497 21.8513 3.46603 21.1116 2.7263L19.2718 0.886504C18.5328 0.147509 17.3338 0.146777 16.5941 0.886504L10.9993 6.48133L5.40517 0.887236C4.66618 0.148242 3.46724 0.147509 2.72751 0.887236L0.887714 2.72703C0.148719 3.46603 0.147986 4.66497 0.887713 5.4047L6.48254 10.9995L0.887714 16.5943C0.148719 17.3333 0.147987 18.5323 0.887714 19.272L2.72751 21.1118C3.4665 21.8508 4.66545 21.8515 5.40518 21.1118L11 15.517L16.5948 21.1118C17.3338 21.8508 18.5328 21.8515 19.2725 21.1118L21.1123 19.272C21.8513 18.533 21.852 17.3341 21.1123 16.5943L21.1116 16.5936Z" fill="white"/>
</svg>
