<svg width="34" height="34" viewBox="0 0 34 34" fill="none" xmlns="http://www.w3.org/2000/svg">
<rect x="0.5" y="0.5" width="32.7281" height="32.3588" rx="9.5" stroke="#2E3548" stroke-opacity="0.2"/>
<path d="M8.56951 15.1118L7.9726 16.1402L7.94434 16.1381C7.94399 16.1381 7.71932 16.135 7.42697 16.1388C7.07113 16.1436 6.7568 16.1689 6.56457 16.2091L6.45921 16.2348L7.10881 15.1122H5.7259L4.01331 18.1612H5.39691L5.77334 17.4654C5.94394 17.1543 6.31618 16.803 6.73028 16.7607C6.86739 16.7468 7.02229 16.7406 7.19009 16.7406C7.39523 16.7406 7.54873 16.752 7.55047 16.752L7.62478 16.7538L6.85623 18.1608H8.24123L9.95382 15.1118H8.56951Z" fill="#2E3548"/>
<path d="M8.56951 15.1118L7.9726 16.1402L7.94434 16.1381C7.94399 16.1381 7.71932 16.135 7.42697 16.1388C7.07113 16.1436 6.7568 16.1689 6.56457 16.2091L6.45921 16.2348L7.10881 15.1122H5.7259L4.01331 18.1612H5.39691L5.77334 17.4654C5.94394 17.1543 6.31618 16.803 6.73028 16.7607C6.86739 16.7468 7.02229 16.7406 7.19009 16.7406C7.39523 16.7406 7.54873 16.752 7.55047 16.752L7.62478 16.7538L6.85623 18.1608H8.24123L9.95382 15.1118H8.56951Z" fill="#2E3548"/>
<path d="M19.2917 15.1119L17.1738 16.8363L17.111 15.1001L15.7947 15.0876L15.8512 18.1609H17.3649L21.0008 15.1119H19.2917Z" fill="#2E3548"/>
<path d="M19.2917 15.1119L17.1738 16.8363L17.111 15.1001L15.7947 15.0876L15.8512 18.1609H17.3649L21.0008 15.1119H19.2917Z" fill="#2E3548"/>
<path d="M12.05 15.5868C11.7782 15.7728 11.46 16.015 11.3777 16.0916L9.05981 18.1684H10.3095L10.6943 17.7959C10.8802 17.6258 11.3114 17.446 11.7464 17.446H11.7677C12.2143 17.4519 12.6211 17.4799 12.6249 17.4803L12.694 17.4851L12.3831 18.1684H13.4534L14.9044 15.1045H13.7974C13.0606 15.1045 12.2956 15.4184 12.05 15.5868ZM12.9588 16.8757H11.692L12.2132 16.3813C12.2366 16.3608 12.7515 15.9118 12.9902 15.7722C13.1447 15.6817 13.3055 15.6627 13.4133 15.6627C13.4747 15.6627 13.5138 15.6689 13.5155 15.6693L13.5808 15.68L12.9588 16.8757Z" fill="#2E3548"/>
<path d="M12.05 15.5868C11.7782 15.7728 11.46 16.015 11.3777 16.0916L9.05981 18.1684H10.3095L10.6943 17.7959C10.8802 17.6258 11.3114 17.446 11.7464 17.446H11.7677C12.2143 17.4519 12.6211 17.4799 12.6249 17.4803L12.694 17.4851L12.3831 18.1684H13.4534L14.9044 15.1045H13.7974C13.0606 15.1045 12.2956 15.4184 12.05 15.5868ZM12.9588 16.8757H11.692L12.2132 16.3813C12.2366 16.3608 12.7515 15.9118 12.9902 15.7722C13.1447 15.6817 13.3055 15.6627 13.4133 15.6627C13.4747 15.6627 13.5138 15.6689 13.5155 15.6693L13.5808 15.68L12.9588 16.8757Z" fill="#2E3548"/>
<path d="M23.7091 15.1045C22.9726 15.1045 22.2075 15.4187 21.9619 15.5868C21.6902 15.7725 21.372 16.015 21.2897 16.0916L18.9718 18.1684H20.2214L20.6062 17.7959C20.7922 17.6258 21.2234 17.446 21.6588 17.446H21.6801C22.1266 17.4519 22.5334 17.4799 22.5372 17.4803L22.6063 17.4851L22.2955 18.1684H23.3658L24.8167 15.1045H23.7091ZM22.8707 16.8757H21.604L22.1252 16.3813C22.1486 16.3608 22.6635 15.9118 22.9021 15.7722C23.0567 15.6817 23.2175 15.6627 23.3253 15.6627C23.3867 15.6627 23.4261 15.6689 23.4275 15.6693L23.4931 15.68L22.8707 16.8757Z" fill="#2E3548"/>
<path d="M23.7091 15.1045C22.9726 15.1045 22.2075 15.4187 21.9619 15.5868C21.6902 15.7725 21.372 16.015 21.2897 16.0916L18.9718 18.1684H20.2214L20.6062 17.7959C20.7922 17.6258 21.2234 17.446 21.6588 17.446H21.6801C22.1266 17.4519 22.5334 17.4799 22.5372 17.4803L22.6063 17.4851L22.2955 18.1684H23.3658L24.8167 15.1045H23.7091ZM22.8707 16.8757H21.604L22.1252 16.3813C22.1486 16.3608 22.6635 15.9118 22.9021 15.7722C23.0567 15.6817 23.2175 15.6627 23.3253 15.6627C23.3867 15.6627 23.4261 15.6689 23.4275 15.6693L23.4931 15.68L22.8707 16.8757Z" fill="#2E3548"/>
<path d="M26.5891 17.4334L26.5783 17.4361C26.5745 17.4341 26.4803 17.3862 26.4538 17.2885C26.4381 17.23 26.4492 17.1714 26.4873 17.1101C26.4928 17.1004 27.1309 15.9719 27.2719 15.7339C27.4554 15.4234 27.7212 15.2162 27.8887 15.1123H26.2504C26.1248 15.3202 25.1888 16.9784 25.044 17.2314C24.8933 17.495 24.8734 17.8429 25.1689 18.0387C25.3238 18.1412 25.7857 18.1613 25.9507 18.1613H28.9904L29.6578 17.4337H26.5891V17.4334Z" fill="#2E3548"/>
</svg>
