<svg width="34" height="34" viewBox="0 0 34 34" fill="none" xmlns="http://www.w3.org/2000/svg">
<rect x="0.5" y="0.5" width="32.7281" height="32.3588" rx="9.5" stroke="#2E3548" stroke-opacity="0.2"/>
<path fill-rule="evenodd" clip-rule="evenodd" d="M8.2748 16.2796C8.28824 16.6586 8.31176 17.055 8.34401 17.4547C8.41859 18.5371 8.54827 19.6268 8.81368 20.6792C8.89968 21.0195 9.00651 21.3605 9.15568 21.6801C9.26587 21.9451 9.3848 22.1626 9.51381 22.3161C9.75368 22.601 10.0527 22.8232 10.4048 22.9994C10.4666 23.0314 10.5291 23.0628 10.5929 23.0915C11.584 23.5413 12.7282 23.58 13.7986 23.6454C14.8488 23.7101 15.9057 23.7488 16.964 23.7541C18.0216 23.7488 19.0792 23.7101 20.1294 23.6454C21.1997 23.5793 22.344 23.5413 23.335 23.0915C23.3982 23.0628 23.46 23.0321 23.5212 23.0001C23.8739 22.8239 24.1743 22.6017 24.4141 22.3161C24.5431 22.1626 24.6627 21.9444 24.7729 21.6788C24.9214 21.3592 25.0283 21.0188 25.1143 20.6785C25.3777 19.6342 25.5073 18.5538 25.5819 17.4801C25.6155 17.071 25.6397 16.666 25.6531 16.2782C25.6545 16.2442 25.6552 16.2108 25.6565 16.1768C25.6928 15.3854 25.7062 14.5939 25.6585 13.8005C25.639 13.4762 25.6101 13.1425 25.5544 12.8142C25.4865 12.2817 25.1936 10.9578 23.9438 10.4373C23.9142 10.4253 23.884 10.4132 23.8531 10.4012C23.3115 10.1623 22.7034 10.0569 22.1222 9.98016C20.634 9.78463 19.1645 9.71123 17.6715 9.69388C17.3443 9.68921 17.0963 9.68921 16.964 9.68921C16.8316 9.68921 16.585 9.68921 16.2585 9.69388C14.7641 9.71123 13.294 9.78397 11.8057 9.98149C11.2245 10.0589 10.6157 10.1637 10.0742 10.4032C10.0433 10.4152 10.0137 10.4273 9.98415 10.4393C8.73103 10.9618 8.43942 12.2911 8.37223 12.8209C8.31713 13.1479 8.28824 13.4802 8.26875 13.8032C8.22038 14.6033 8.23449 15.4014 8.27144 16.2002C8.27211 16.2269 8.27279 16.2536 8.27413 16.2809L8.2748 16.2796ZM23.3821 21.915C23.1845 22.0805 22.6349 22.4122 22.1726 22.573C21.963 22.6257 21.7802 22.6544 21.6734 22.6611C21.5431 22.6451 21.4597 22.5743 21.4564 22.4248C21.4638 22.3601 21.4745 22.26 21.49 22.1105C21.6741 20.6705 21.8125 19.2278 21.9254 17.7824C21.9287 17.747 21.9328 17.7083 21.9368 17.6669C21.9408 17.6229 21.9455 17.5788 21.9502 17.5335C21.9516 17.5174 21.9529 17.5021 21.9549 17.4861C21.9637 17.3947 21.9724 17.3046 21.9811 17.2145C21.9858 17.1651 21.9906 17.1164 21.9953 17.0677C22.0013 17.0016 22.0073 16.9362 22.0134 16.8708C22.0208 16.7861 22.0288 16.7027 22.0356 16.6192C22.0389 16.5799 22.0423 16.5412 22.0456 16.5018C22.0638 16.2916 22.0806 16.0874 22.0967 15.8892C22.0987 15.8672 22.1001 15.8452 22.1021 15.8231C22.1182 15.6189 22.133 15.4207 22.1464 15.2286C22.1478 15.2125 22.1484 15.1965 22.1498 15.1805C22.1579 15.0624 22.1659 14.9463 22.1733 14.8328C22.174 14.8215 22.1747 14.8095 22.1753 14.7975C22.1794 14.7348 22.1834 14.6727 22.1874 14.6113C22.1874 14.6093 22.1874 14.6073 22.1874 14.606C22.1948 14.4838 22.2022 14.3644 22.2089 14.2476C22.2089 14.2396 22.2096 14.2316 22.2103 14.2236C22.3252 12.217 22.3023 11.0852 22.299 10.9438C22.3285 10.895 22.3756 10.8623 22.4495 10.8597C22.6443 10.9157 22.8459 10.9724 23.0407 11.0432C23.2134 11.1092 23.3975 11.192 23.5568 11.2914C23.6408 11.3461 23.7207 11.4082 23.794 11.4783C23.8108 11.4943 23.8262 11.511 23.8423 11.5283C23.8464 11.5323 23.8504 11.5363 23.8538 11.5403C23.89 11.585 23.925 11.6271 23.9586 11.6678C23.974 11.6885 23.9895 11.7098 24.0043 11.7312C24.6144 12.6254 24.5411 13.92 24.5532 14.947C24.5694 16.3003 24.5062 17.6743 24.3194 19.0156C24.3127 19.0649 24.306 19.1163 24.2992 19.167C24.2945 19.2037 24.2898 19.2404 24.2845 19.2778C24.2623 19.4033 24.2401 19.5154 24.22 19.6101C24.1971 19.7409 24.0674 20.4443 24.05 20.5157C23.9841 20.7893 23.8618 21.173 23.8182 21.2844C23.7718 21.3818 23.7214 21.4759 23.6643 21.5654C23.5709 21.7055 23.4667 21.8209 23.3814 21.9144L23.3821 21.915ZM11.754 22.573C11.293 22.4122 10.7454 22.0825 10.5472 21.9164C10.4605 21.8223 10.355 21.7048 10.2603 21.562C10.2045 21.4746 10.1548 21.3818 10.1098 21.2864C10.0668 21.1763 9.94383 20.7906 9.87731 20.5157C9.86051 20.4449 9.73084 19.7416 9.70732 19.6101C9.68649 19.5134 9.66432 19.3986 9.64147 19.2705C9.63744 19.2398 9.63341 19.2084 9.62938 19.1784C9.62199 19.123 9.61459 19.0683 9.6072 19.0149C9.42108 17.6736 9.35792 16.2996 9.37338 14.9463C9.38547 13.9193 9.31156 12.6247 9.92233 11.7305C9.93711 11.7085 9.95257 11.6871 9.96869 11.6665C10.0016 11.6264 10.0359 11.585 10.0722 11.541C10.0769 11.5357 10.0822 11.5303 10.0869 11.5257C10.1024 11.5096 10.1172 11.4936 10.1333 11.4783C10.2072 11.4075 10.2872 11.3455 10.3718 11.2908C10.5311 11.1913 10.7152 11.1086 10.8872 11.0432C11.0821 10.9724 11.2836 10.9157 11.4785 10.8597C11.5524 10.863 11.5994 10.895 11.6297 10.9444C11.625 11.1233 11.592 12.8242 11.8272 15.8298C11.8285 15.8492 11.8306 15.8685 11.8319 15.8885C11.8474 16.0861 11.8642 16.2889 11.8823 16.4978C11.8863 16.5418 11.8897 16.5865 11.8937 16.6313C11.8998 16.704 11.9065 16.7767 11.9132 16.8508C11.9199 16.9249 11.9266 16.9989 11.934 17.0743C11.9381 17.1204 11.9428 17.1664 11.9468 17.2125C11.9555 17.3039 11.9643 17.396 11.9737 17.4894C11.975 17.5048 11.9764 17.5194 11.9777 17.5348C11.9831 17.5875 11.9878 17.6396 11.9932 17.6909C11.9959 17.7203 11.9985 17.7483 12.0012 17.775C12.1148 19.2251 12.2532 20.6725 12.438 22.1172C12.4534 22.2627 12.4642 22.3608 12.4709 22.4248C12.4682 22.5757 12.3856 22.6464 12.2545 22.6631C12.1477 22.6564 11.9643 22.6277 11.7546 22.575L11.754 22.573ZM16.964 22.8172H14.4329C14.4194 22.8059 14.4107 22.7912 14.408 22.7719C14.408 22.7719 14.408 22.7712 14.408 22.7705C14.408 22.7472 14.4161 22.7185 14.4188 22.7091C14.4329 22.6571 14.447 22.6064 14.4618 22.555C14.5921 22.1279 14.9261 21.0602 14.9261 21.0602C14.9308 21.0442 14.9361 21.0288 14.9408 21.0128C14.9852 20.8867 15.0349 20.7552 15.0947 20.6078C15.215 20.3108 15.4213 20.0946 15.5886 19.9878C15.682 19.9278 15.7821 19.8824 15.8929 19.8477C15.9494 19.8357 16.0099 19.823 16.0757 19.8103C16.1859 19.789 16.3028 19.7716 16.4231 19.7569C16.5823 19.7456 16.7604 19.7416 16.9633 19.7416C17.1662 19.7416 17.3449 19.7456 17.5042 19.7569C17.6245 19.771 17.7414 19.7883 17.8516 19.8103C17.9181 19.823 17.9786 19.8357 18.0343 19.8477C18.1452 19.8824 18.246 19.9284 18.3394 19.9878C18.5067 20.0953 18.713 20.3115 18.8332 20.6078C18.8924 20.7546 18.9414 20.8854 18.9858 21.0108C18.9911 21.0275 18.9958 21.0435 19.0012 21.0602C19.0012 21.0602 19.3392 22.1419 19.4682 22.563C19.4816 22.6117 19.4951 22.6597 19.5085 22.7085C19.5112 22.7178 19.5186 22.7452 19.5193 22.7685C19.5172 22.7892 19.5085 22.8045 19.4944 22.8166H16.964V22.8172ZM14.6365 10.536C15.9803 10.492 16.9136 10.4833 16.9633 10.4833C17.0137 10.4833 17.9463 10.492 19.2908 10.536C19.3909 10.5394 19.4836 10.5434 19.571 10.5467C20.1878 10.5861 20.597 10.6335 20.7072 10.6581C20.7448 10.6728 20.7623 10.6955 20.763 10.7342C20.73 10.8623 20.6743 11.0832 20.6051 11.3535C20.2926 12.5219 19.9513 13.9086 19.6362 15.0457C19.4252 15.7824 19.1383 16.6773 18.8037 17.1885C18.8037 17.1885 18.8037 17.1885 18.8037 17.1891C18.5604 17.5188 18.2406 17.7704 17.8005 17.8698C17.5741 17.9038 17.3046 17.9105 16.9653 17.9105C16.626 17.9105 16.3566 17.9038 16.1308 17.8698C15.6947 17.7717 15.3762 17.5241 15.1344 17.1998C15.1317 17.1958 15.129 17.1925 15.127 17.1885C14.789 16.6726 14.5001 15.7671 14.2884 15.0264C13.976 13.8959 13.6373 12.5226 13.3269 11.3628C13.257 11.0886 13.1999 10.8643 13.167 10.7342C13.1677 10.6955 13.1858 10.6728 13.2228 10.6581C13.3336 10.6335 13.7422 10.5861 14.3583 10.5467C14.445 10.5427 14.5384 10.5394 14.6385 10.536H14.6365Z" fill="#2E3548"/>
</svg>
