<svg width="34" height="34" viewBox="0 0 34 34" fill="none" xmlns="http://www.w3.org/2000/svg">
<rect x="0.5" y="0.5" width="32.7281" height="32.3588" rx="9.5" stroke="#2E3548" stroke-opacity="0.2"/>
<path fill-rule="evenodd" clip-rule="evenodd" d="M19.0771 17.9448C19.235 18.7548 18.8074 19.4273 18.4525 20.0805C18.058 20.6878 17.4069 21.21 16.6245 21.1319C14.8685 21.1054 13.1523 20.8382 11.5614 20.3612C11.4892 20.3419 11.417 20.296 11.3774 20.2308C11.3443 20.1392 11.3904 20.0546 11.4561 19.9959C12.9092 18.827 14.6385 18.2849 16.3483 17.7169C16.9858 17.5342 17.6636 17.3381 18.3804 17.4297C18.6761 17.469 18.9724 17.6711 19.0776 17.9454L19.0771 17.9448ZM25.0675 14.4835C25.8831 15.1495 26.6194 16.0576 26.3692 17.1542C25.9617 18.7736 24.1863 19.6358 22.7722 20.1844C22.0028 20.4394 21.2268 20.7001 20.3853 20.7789C20.3326 20.7724 20.2469 20.7853 20.2339 20.7072L20.2534 20.6156C21.4504 19.277 22.3576 17.7751 23.1531 16.2532C23.5209 15.5677 23.8634 14.8623 24.1786 14.1698C24.2247 14.1175 24.2709 14.0917 24.3235 14.0717C24.6192 14.0976 24.8297 14.3266 25.0663 14.4829L25.0675 14.4835ZM13.5929 12.7596L13.5668 12.8576C11.8375 14.81 10.7003 17.0761 9.62151 19.3292C9.41097 19.5248 9.20693 19.264 9.0165 19.1789C8.05663 18.5521 7.18843 17.5401 7.4386 16.3384C7.83958 14.7713 9.46361 13.9355 10.8185 13.3669C11.6205 13.0662 12.4556 12.8248 13.3368 12.6879C13.429 12.6879 13.5473 12.675 13.5935 12.7596H13.5929ZM22.1743 13.0732C22.2731 13.1255 22.3913 13.1449 22.4505 13.243C22.5031 13.354 22.3979 13.4256 22.3387 13.4979C20.9779 14.5557 19.4195 15.1437 17.828 15.6594C17.0189 15.855 16.204 16.208 15.3032 16.0118C15.0927 15.9595 14.9023 15.8227 14.784 15.62C14.5604 15.0062 14.8632 14.3666 15.1258 13.8309C15.4742 13.1584 16.0922 12.3684 16.9474 12.3549C18.7884 12.3419 20.5242 12.6162 22.1749 13.0732H22.1743ZM24.4495 13.1255C25.8434 13.8832 27.4219 15.2153 27.2575 16.9915C27.0665 18.6373 25.5217 19.7868 24.1407 20.4787C20.1097 22.3923 14.4486 22.4511 10.2863 20.7789C8.87929 20.1974 7.3008 19.1983 6.70939 17.6964C6.25577 16.4623 6.80815 15.1754 7.73549 14.3202C9.67415 12.5704 12.1463 11.9695 14.6911 11.623C17.453 11.29 20.3592 11.5836 22.8314 12.4259C23.3837 12.6286 23.9296 12.8506 24.4489 13.1249L24.4495 13.1255Z" fill="#2E3548"/>
</svg>
