<svg width="26" height="26" viewBox="0 0 26 26" fill="none" xmlns="http://www.w3.org/2000/svg">
<path d="M25.2543 13.0003C25.2543 12.9118 25.2574 12.4251 25.2636 11.5403C25.2698 10.6568 25.2698 9.9858 25.2636 9.52714C25.2574 9.06995 25.2373 8.45495 25.2032 7.68658C25.1691 6.91673 25.1026 6.26191 25.0034 5.72214C24.9028 5.18088 24.7804 4.72664 24.6333 4.35794C24.3669 3.7223 23.9782 3.16187 23.4718 2.67961C22.9638 2.19587 22.3769 1.82717 21.7094 1.5735C21.3222 1.43339 20.8452 1.31541 20.2769 1.22102C19.7085 1.12516 19.0209 1.06174 18.214 1.03077C17.4072 0.999801 16.7614 0.980629 16.2813 0.973254C15.8012 0.96588 15.0965 0.967355 14.1673 0.973254C13.2381 0.979154 12.7286 0.982103 12.6341 0.982103C12.5397 0.982103 12.0301 0.979154 11.1009 0.973254C10.1733 0.967355 9.46863 0.967355 8.98699 0.973254C8.5069 0.979154 7.8611 0.998326 7.05424 1.03077C6.24583 1.06322 5.55821 1.12663 4.99139 1.22102C4.42458 1.31541 3.94604 1.43339 3.55887 1.5735C2.89139 1.82717 2.30289 2.19734 1.79647 2.67961C1.2885 3.16334 0.901332 3.7223 0.634959 4.35794C0.487834 4.72664 0.36394 5.18088 0.264824 5.72214C0.16416 6.26339 0.0975668 6.9182 0.0650445 7.68658C0.0309736 8.45643 0.0123894 9.06995 0.00464604 9.52714C-0.00154868 9.98433 -0.00154868 10.6554 0.00464604 11.5403C0.0108408 12.4237 0.0139381 12.9103 0.0139381 13.0003C0.0139381 13.0903 0.0108408 13.5755 0.00464604 14.4604C-0.00154868 15.3438 -0.00154868 16.0148 0.00464604 16.4735C0.0108408 16.9307 0.0309736 17.5457 0.0650445 18.314C0.0991155 19.0839 0.165709 19.7387 0.264824 20.2785C0.365488 20.8197 0.487834 21.274 0.634959 21.6427C0.901332 22.2783 1.29005 22.8388 1.79647 23.321C2.30444 23.8048 2.89139 24.1735 3.55887 24.4271C3.94604 24.5672 4.42303 24.6852 4.99139 24.7796C5.55976 24.874 6.24737 24.9389 7.05424 24.9698C7.86265 25.0023 8.5069 25.02 8.98699 25.0274C9.46708 25.0333 10.1717 25.0333 11.1009 25.0274C12.0286 25.0215 12.5397 25.0185 12.6341 25.0185C12.7286 25.0185 13.2381 25.0215 14.1673 25.0274C15.095 25.0333 15.7996 25.0333 16.2813 25.0274C16.7629 25.0215 17.4072 25.0023 18.214 24.9698C19.0209 24.9374 19.71 24.874 20.2769 24.7796C20.8452 24.6837 21.3222 24.5672 21.7094 24.4271C22.3769 24.1735 22.9654 23.8033 23.4718 23.321C23.9798 22.8373 24.3669 22.2783 24.6333 21.6427C24.7804 21.274 24.9043 20.8197 25.0034 20.2785C25.1041 19.7372 25.1707 19.0824 25.2032 18.314C25.2373 17.5442 25.2574 16.9307 25.2636 16.4735C25.2698 16.0163 25.2698 15.3453 25.2636 14.4604C25.2574 13.577 25.2543 13.0903 25.2543 13.0003ZM18.2233 18.3229C16.687 19.7859 14.824 20.5174 12.6341 20.5174C10.4443 20.5174 8.58123 19.7859 7.04494 18.3229C5.50865 16.8599 4.74051 15.0857 4.74051 13.0003C4.74051 10.9149 5.50865 9.14074 7.04494 7.67773C8.58123 6.21472 10.4443 5.48322 12.6341 5.48322C14.824 5.48322 16.687 6.21472 18.2233 7.67773C19.7596 9.14074 20.5278 10.9149 20.5278 13.0003C20.5278 15.0857 19.7596 16.8599 18.2233 18.3229ZM22.1492 6.41824C21.7884 6.76187 21.3547 6.93295 20.8468 6.93295C20.3388 6.93295 19.9052 6.76187 19.5443 6.41824C19.1835 6.07461 19.0039 5.66167 19.0039 5.17793C19.0039 4.69419 19.1835 4.28125 19.5443 3.93762C19.9052 3.59399 20.3388 3.42291 20.8468 3.42291C21.3547 3.42291 21.7884 3.59399 22.1492 3.93762C22.5101 4.28125 22.6897 4.69419 22.6897 5.17793C22.6897 5.66167 22.5101 6.07461 22.1492 6.41824Z" fill="#2E3548"/>
<path d="M12.6326 8.11719C11.2171 8.11719 10.0075 8.59355 9.0071 9.54775C8.00511 10.502 7.50488 11.6523 7.50488 13.0003C7.50488 14.3482 8.00511 15.5001 9.0071 16.4528C10.0091 17.407 11.2171 17.8834 12.6326 17.8834C14.0481 17.8834 15.2576 17.407 16.258 16.4528C17.26 15.4986 17.7602 14.3482 17.7602 13.0003C17.7602 11.6523 17.26 10.5005 16.258 9.54775C15.256 8.59355 14.0481 8.11719 12.6326 8.11719Z" fill="#2E3548"/>
</svg>
