<svg width="34" height="34" viewBox="0 0 34 34" fill="none" xmlns="http://www.w3.org/2000/svg">
<rect x="0.5" y="0.5" width="32.7281" height="32.3588" rx="9.5" stroke="#2E3548" stroke-opacity="0.2"/>
<path d="M18.6236 18.7464C18.6236 18.7899 18.6354 18.8135 18.6633 18.8135C18.6832 18.8135 18.699 18.8055 18.7189 18.7937L25.8826 14.1657C26.0097 14.0829 26.1249 14.0394 26.2956 14.0394H27.8722C28.1144 14.0394 28.2772 14.2012 28.2772 14.4419V17.4287C28.2772 17.7877 28.1978 17.9969 27.8722 18.1901L25.9621 19.3304C25.9382 19.3462 25.9145 19.3541 25.8985 19.3541C25.8746 19.3541 25.8548 19.3383 25.8548 19.2713V15.7834C25.8548 15.7439 25.8429 15.7164 25.815 15.7164C25.7952 15.7164 25.7793 15.7243 25.7594 15.7361L20.5216 19.1175C20.3747 19.2122 20.2556 19.2398 20.1205 19.2398H16.6458C16.4035 19.2398 16.2407 19.078 16.2407 18.8373V14.5365C16.2407 14.505 16.2248 14.4773 16.201 14.4773C16.1811 14.4773 16.1652 14.4852 16.1454 14.497L12.6905 16.5605C12.6548 16.5803 12.6468 16.6 12.6468 16.6158C12.6468 16.6315 12.6508 16.6433 12.6785 16.667L15.1446 19.1172C15.1763 19.1488 15.2002 19.1765 15.2002 19.2C15.2002 19.2276 15.1644 19.2435 15.1207 19.2435H12.8889C12.7142 19.2435 12.5792 19.2159 12.4838 19.1212L10.9867 17.6337C10.9709 17.618 10.959 17.61 10.943 17.61C10.9311 17.61 10.9113 17.618 10.8954 17.6258L8.39362 19.1212C8.24269 19.212 8.13949 19.2395 7.98855 19.2395H5.68584C5.44356 19.2395 5.28076 19.0778 5.28076 18.837V15.9055C5.28076 15.5426 5.36023 15.3373 5.68584 15.1441L7.60774 13.996C7.62761 13.9842 7.64348 13.9802 7.65934 13.9802C7.68708 13.9802 7.70308 14.0118 7.70308 14.0749V17.9969C7.70308 18.0363 7.71494 18.0561 7.74281 18.0561C7.75868 18.0561 7.77855 18.0443 7.79841 18.0324L14.2911 14.1538C14.446 14.063 14.5412 14.0355 14.7199 14.0355H18.2145C18.4568 14.0355 18.6196 14.1972 18.6196 14.4379L18.6236 18.7464Z" fill="#2E3548"/>
</svg>
