<svg width="34" height="34" viewBox="0 0 34 34" fill="none" xmlns="http://www.w3.org/2000/svg">
<rect x="0.5" y="0.5" width="32.7281" height="32.3588" rx="9.5" stroke="#2E3548" stroke-opacity="0.2"/>
<path fill-rule="evenodd" clip-rule="evenodd" d="M6.12598 16.7354C6.12598 14.3727 10.9487 12.4578 16.8953 12.4578C22.8419 12.4578 27.6646 14.3727 27.6646 16.7354C27.6646 19.098 22.8434 21.013 16.8953 21.013C10.9472 21.013 6.12598 19.098 6.12598 16.7354ZM19.2959 17.1095C19.2928 17.0941 19.2804 17.0834 19.2665 17.0819C18.9701 17.039 18.6583 17.0022 18.3325 16.9761C18.314 16.973 18.3017 16.9562 18.3125 16.9163C19.3082 15.8768 19.6864 14.5521 19.1832 13.5172C19.1847 13.4973 19.2032 13.4835 19.2233 13.485C22.6489 13.8974 25.1483 15.1961 25.1483 16.7354C25.1483 18.6059 21.4525 20.1222 16.8922 20.1222C12.3319 20.1222 8.63614 18.6059 8.63614 16.7354C8.63614 15.1133 11.4149 13.7579 15.1246 13.4267C15.1431 13.4267 15.157 13.4405 15.1586 13.4697L14.3527 17.8745C14.3465 17.9067 14.3434 17.942 14.3434 17.9757C14.3434 18.2716 14.5843 18.5108 14.8822 18.5108H14.9116C15.6294 18.4756 16.4028 18.2532 17.1315 17.8347C17.3414 17.7136 17.5406 17.5817 17.7274 17.4407C17.7382 17.4315 17.7552 17.4299 17.7675 17.4376C18.0099 17.5986 18.1504 17.7856 18.1504 17.988C18.1504 18.2609 17.8926 18.5108 17.468 18.6994C16.9756 18.9187 16.2577 19.0566 15.458 19.0566C14.7803 19.0566 14.1628 18.957 13.6827 18.7914C13.6626 18.7883 13.6441 18.8006 13.641 18.8205L13.5731 19.1946C13.57 19.213 13.5824 19.2299 13.6009 19.2345C14.5781 19.4599 15.7004 19.5887 16.8953 19.5887C18.3819 19.5887 19.5876 19.1103 19.5876 18.5185C19.5876 18.2885 19.4055 18.0754 19.0952 17.9021C18.8235 17.7703 18.6521 17.5986 18.6953 17.4836C18.7386 17.364 18.9994 17.3456 19.3067 17.4284C19.3236 17.4315 19.3406 17.4207 19.3468 17.3885L19.2959 17.111V17.1095ZM16.8938 14.4126C16.8938 14.4356 16.8938 14.4586 16.8922 14.4816C16.9308 15.2666 16.443 16.3168 15.5491 17.2045C15.367 17.3855 15.1771 17.551 14.9841 17.6967C14.9764 17.7013 14.9671 17.7028 14.9579 17.7013C14.9393 17.6967 14.927 17.6798 14.9301 17.6584L15.8054 12.8733C15.8054 12.8549 15.79 12.8411 15.7714 12.8395C10.9487 13.0649 7.20353 14.7238 7.20353 16.7354C7.20353 18.9018 11.5431 20.6573 16.8953 20.6573C22.2475 20.6573 26.5871 18.9018 26.5871 16.7354C26.5871 14.569 22.2475 12.815 16.8953 12.815C16.7255 12.815 16.5572 12.8165 16.3874 12.8211C16.3704 12.8211 16.3565 12.8319 16.3519 12.8487L16.25 13.4068C16.2469 13.4221 16.2546 13.4359 16.267 13.4436C16.6375 13.6123 16.8938 13.9848 16.8938 14.4157V14.4126Z" fill="#2E3548"/>
</svg>
