<svg width="34" height="34" viewBox="0 0 34 34" fill="none" xmlns="http://www.w3.org/2000/svg">
<rect x="0.5" y="0.5" width="32.7281" height="32.3588" rx="9.5" stroke="#2E3548" stroke-opacity="0.2"/>
<path fill-rule="evenodd" clip-rule="evenodd" d="M28.5573 16.6531C28.5573 19.8879 23.2988 22.5096 16.8124 22.5096C10.326 22.5096 5.06885 19.8879 5.06885 16.6531C5.06885 13.4183 10.3274 10.7966 16.8138 10.7966C23.3002 10.7966 28.5587 13.4183 28.5587 16.6531H28.5573ZM16.8138 11.2576C10.581 11.2576 5.52878 13.673 5.52878 16.6531C5.52878 19.6332 10.581 22.0486 16.8124 22.0486C23.0437 22.0486 28.096 19.6332 28.096 16.6531C28.096 13.673 23.0451 11.2576 16.8138 11.2576Z" fill="#2E3548"/>
<path fill-rule="evenodd" clip-rule="evenodd" d="M27.8045 16.6532C27.8045 19.4728 22.8833 21.7594 16.8122 21.7594C10.7411 21.7594 5.82129 19.4728 5.82129 16.6532C5.82129 13.8336 10.7425 11.5483 16.8136 11.5483C22.8847 11.5483 27.8059 13.8336 27.8059 16.6532H27.8045ZM23.8575 14.2627H21.9718L21.7418 14.9147H22.9627L21.5704 15.3936L21.4784 15.658L23.6206 14.9603L23.8575 14.2627ZM11.838 15.4074H11.0701C11.0701 15.4074 11.7823 13.5236 11.8394 13.381C11.9411 13.1291 12.0011 13.1457 12.0011 13.1457H10.9404C11.0715 13.208 10.9558 13.4544 10.9558 13.4544C10.9558 13.4544 10.1056 15.8033 10.0471 15.921C9.98853 16.0386 9.94393 16.0539 9.94393 16.0539H11.7809L12.0373 15.3576C12.015 15.424 11.838 15.4074 11.838 15.4074ZM15.0603 16.0511H15.9258C15.9258 16.0511 15.8659 15.9639 15.9035 15.8684C15.9551 15.7355 16.4136 14.4953 16.4136 14.4953L16.6129 16.0511H17.3962L18.4234 13.2841C18.4234 13.2841 18.4652 13.154 18.5223 13.154L17.6903 13.1512C17.6903 13.1512 17.7139 13.2467 17.6847 13.3201C17.6554 13.3935 17.1815 14.6489 17.1815 14.6489L16.9962 13.1512H16.1014C16.1014 13.1512 16.1474 13.2246 16.1181 13.3049C16.0944 13.3699 15.1704 15.8891 15.1704 15.8891C15.1704 15.8891 15.1119 16.0497 15.0589 16.0497L15.0603 16.0511ZM19.0157 13.1526C19.0157 13.1526 19.0896 13.2703 18.9934 13.5416C18.8972 13.8129 18.1432 15.8324 18.1432 15.8324C18.1432 15.8324 18.0833 16.022 18.0024 16.0594H19.1857C19.1857 16.0594 20.6199 16.1106 21.0631 14.6143C21.0631 14.6143 21.6247 13.1388 19.9983 13.1526H19.0157ZM19.1411 15.3894C19.1411 15.3894 19.1453 15.3894 19.2777 15.3894C19.4784 15.3894 19.8519 15.3451 20.1028 14.7403C20.5139 13.745 19.9397 13.7783 19.9397 13.7783H19.7181L19.1411 15.3908V15.3894ZM8.62128 18.3945H10.507L10.737 17.7426H9.51745L10.9098 17.2636L11.0018 16.9992L8.85961 17.6969L8.62268 18.3945H8.62128ZM11.9244 19.5974C11.8951 19.5974 11.8951 19.5032 11.8951 19.5032L12.2422 18.5897C12.2422 18.5897 12.6742 19.4313 12.7035 19.4908C12.7328 19.5489 12.7188 19.5987 12.7188 19.5987H13.7516C13.6526 19.5987 13.5509 19.4133 13.5509 19.4133L13.0366 18.4969C13.7558 18.4969 13.9857 17.7882 13.9857 17.7882C14.3411 16.6629 13.1467 16.692 13.1467 16.692H11.9244C12.0136 16.7902 11.9439 16.9951 11.9439 16.9951C11.9439 16.9951 11.1843 19.1503 11.1258 19.3164C11.0673 19.4825 10.9586 19.5987 10.9586 19.5987C10.9586 19.5987 11.9746 19.5987 11.9244 19.5987V19.5974ZM12.6561 17.3577L12.4554 17.9419H12.6422C12.6422 17.9419 13.0073 17.9737 13.1411 17.6858C13.1411 17.6858 13.2986 17.3564 12.8582 17.3564C12.762 17.3564 12.6547 17.3577 12.6547 17.3577H12.6561ZM22.6157 19.607C22.5418 19.6084 22.5934 19.4285 22.5934 19.4285L22.9028 18.598C22.9028 18.598 23.3195 19.4396 23.3488 19.4991C23.378 19.5572 23.3641 19.607 23.3641 19.607H24.4345C24.3355 19.607 24.2268 19.4216 24.2268 19.4216L23.7125 18.5052C24.4331 18.5052 24.6491 17.8228 24.6491 17.8228C25.0268 16.6435 23.8226 16.7016 23.8226 16.7016H22.6101C22.6993 16.7999 22.6296 17.0048 22.6296 17.0048C22.6296 17.0048 21.8394 19.1683 21.7794 19.3344C21.7209 19.5005 21.6066 19.607 21.6066 19.607H22.6143H22.6157ZM23.3209 17.9529C23.3209 17.9529 23.6833 17.9806 23.7934 17.6983C23.9244 17.3661 23.5983 17.3757 23.5983 17.3757H23.3307L23.1341 17.9529H23.3209ZM15.2638 19.6693C16.33 19.6693 16.9655 18.6298 16.9655 17.8851C16.9655 17.1031 16.6422 16.6158 15.9021 16.6158C14.9586 16.6158 14.3439 17.3259 14.185 18.2104C14.0387 19.0229 14.5014 19.6707 15.2638 19.6707V19.6693ZM15.3307 18.9828C15.5969 19.0312 15.8896 18.8416 16.0415 18.2339C16.2728 17.3148 15.8464 17.3065 15.7683 17.2968C15.5328 17.2678 15.2178 17.5377 15.0896 18.1011C15.031 18.3585 14.9683 18.915 15.3307 18.9828ZM17.2178 16.7016C17.2178 16.7016 17.2916 16.7404 17.2916 16.9273V19.4437C17.2916 19.4437 17.2819 19.5807 17.2289 19.6098H18.022C18.022 19.6098 18.022 19.5503 18.1 19.4534C18.1794 19.3551 19.8254 17.1626 19.8254 17.1626C19.8254 17.1626 20.2004 16.703 20.2993 16.703H19.1648C19.1648 16.703 19.254 16.7612 19.1843 16.8691C19.1146 16.9771 18.107 18.4748 18.107 18.4748L18.1195 16.9646C18.1195 16.9646 18.1181 16.7224 18.2157 16.7016H17.2178ZM22.0094 17.3882L22.2659 16.7016H20.3439C20.3439 16.7016 20.4122 16.7626 20.3244 17.0076C20.2352 17.2526 19.4575 19.3371 19.4575 19.3371C19.4575 19.3371 19.3195 19.6112 19.2805 19.6112C19.2415 19.6112 21.261 19.6112 21.261 19.6112L21.4979 18.9163C21.4979 18.9163 21.4686 18.9551 21.2805 18.9551H20.4429L20.6199 18.4859H21.2707C21.2707 18.4859 21.4087 18.4762 21.438 18.5149L21.7042 17.7716C21.7042 17.7716 21.6847 17.8394 21.5063 17.8394H20.8749L21.0631 17.3204H21.8617C21.8617 17.3204 21.9704 17.3052 22.0094 17.3882ZM11.9899 16.0552H12.9376C12.9376 16.0552 12.9349 15.9833 12.9599 15.9362C13.0045 15.8518 13.123 15.6469 13.123 15.6469H14.0777V15.9016C14.0777 15.9016 14.0847 15.9902 14.0136 16.058H14.9599C14.9599 16.058 14.8903 16.0192 14.8763 15.903L14.7579 13.3478C14.7579 13.3478 14.7523 13.1844 14.8303 13.1498H13.891C13.891 13.1498 13.9565 13.2301 13.831 13.4142C13.7056 13.5983 12.1014 15.9597 12.1014 15.9597C12.1014 15.9597 12.0694 16.0206 11.9885 16.0552H11.9899ZM14.0582 14.1395L13.5314 14.9908H14.0652L14.0582 14.1395Z" fill="#2E3548"/>
</svg>
