<svg width="34" height="34" viewBox="0 0 34 34" fill="none" xmlns="http://www.w3.org/2000/svg">
<rect x="0.5" y="0.5" width="32.7281" height="32.3588" rx="9.5" stroke="#2E3548" stroke-opacity="0.2"/>
<path fill-rule="evenodd" clip-rule="evenodd" d="M17.1837 11.3338C16.2621 12.4639 13.6311 16.1071 13.3325 16.5801C12.7559 17.4852 12.7044 17.9224 12.6889 18.2138C12.6709 18.5002 12.6709 19.0166 13.142 19.4385C13.9272 20.1339 15.0316 20.0214 16.0098 20.0214H24.07C24.415 20.0214 24.5179 19.9192 24.7033 19.6737C25.3469 18.6971 25.6352 17.636 25.6352 16.6849C25.6352 14.6524 24.3068 12.0906 20.9422 10.9324L20.5638 11.4719C23.2333 12.7298 24.3351 14.3763 24.3351 16.6773C24.3532 17.296 24.1884 17.9633 23.7817 18.582H15.9429C15.4744 18.582 15.4048 18.0528 15.5747 17.7562C16.2698 16.5315 16.9829 15.4475 17.8196 14.3354C18.6124 13.2846 19.3925 12.3028 20.2111 11.275C20.4325 10.9886 20.2857 10.7125 19.843 10.623C18.9265 10.4313 17.9714 10.2983 16.8104 10.2983C10.3798 10.2983 8.02686 13.9672 8.02686 16.6849C8.02686 19.6328 10.3952 23.0537 16.8259 23.0537C20.3939 23.0537 22.7313 21.9134 24.0829 20.4484H22.7211C21.5394 21.5324 19.5083 22.302 16.8284 22.302C11.3812 22.302 9.3758 19.2621 9.3758 16.6466C9.41441 14.3098 11.5691 11.0858 16.9649 10.9784C17.1683 10.9733 17.3279 11.1574 17.1863 11.3312L17.1837 11.3338Z" fill="#2E3548"/>
</svg>
