<svg class="hidden">
    <symbol id="left_2" width="50" height="50" viewBox="0 0 50 50" fill="none" xmlns="http://www.w3.org/2000/svg">
        <path d="M0 15C0 6.71573 6.71573 0 15 0H47C48.6569 0 50 1.34315 50 3V47C50 48.6569 48.6569 50 47 50H3C1.34315 50 0 48.6569 0 47V15Z" fill="#FF3600"/>
    </symbol>
    <symbol id="right_2" width="50" height="50" viewBox="0 0 50 50" fill="none" xmlns="http://www.w3.org/2000/svg">
        <path d="M50 15C50 6.71573 43.2843 0 35 0H3C1.34315 0 0 1.34315 0 3V47C0 48.6569 1.34315 50 3 50H47C48.6569 50 50 48.6569 50 47V15Z" fill="#FF3600"/>
    </symbol>
    <symbol id="left_1" width="50" height="63" viewBox="0 0 50 63" fill="none" xmlns="http://www.w3.org/2000/svg">
        <path d="M0 15C0 6.71573 6.71573 0 15 0H47C48.6569 0 50 1.34315 50 3V60C50 61.6569 48.6569 63 47 63H3C1.34315 63 0 61.6569 0 60V15Z" fill="#FF3600"/>
    </symbol>
    <symbol id="right_1" width="50" height="63" viewBox="0 0 50 63" fill="none" xmlns="http://www.w3.org/2000/svg">
        <path d="M50 15C50 6.71573 43.2843 0 35 0H3C1.34315 0 0 1.34315 0 3V60C0 61.6569 1.34315 63 3 63H47C48.6569 63 50 61.6569 50 60V15Z" fill="#FF3600"/>
    </symbol>
    <symbol id="small_2" width="22" height="26" viewBox="0 0 22 26" fill="none" xmlns="http://www.w3.org/2000/svg">
        <path d="M22 23C22 24.6569 20.6569 26 19 26H3C1.34315 26 0 24.6569 0 23V3C0 1.34315 1.34315 0 3 0H19C20.6569 0 22 1.34315 22 3V23Z" fill="#FF3600"/>
    </symbol>
    <symbol id="full_2" width="106" height="50" viewBox="0 0 106 50" fill="none" xmlns="http://www.w3.org/2000/svg">
        <path d="M91 0H59C57.34 0 56 1.34 56 3V22C56 23.66 54.66 25 53 25C51.34 25 50 23.66 50 22V3C50 1.34 48.66 0 47 0H15C6.72 0 0 6.72 0 15V47C0 48.66 1.34 50 3 50H103C104.66 50 106 48.66 106 47V15C106 6.72 99.28 0 91 0Z" fill="#FF3600"/>
    </symbol>
    <symbol id="full_3" width="106" height="50" viewBox="0 0 106 50" fill="none" xmlns="http://www.w3.org/2000/svg">
        <path d="M91 0H59C57.34 0 56 1.34 56 3V22C56 23.66 54.66 25 53 25C51.34 25 50 23.66 50 22V3C50 1.34 48.66 0 47 0H15C6.72 0 0 6.72 0 15V47C0 48.66 1.34 50 3 50H103C104.66 50 106 48.66 106 47V15C106 6.72 99.28 0 91 0Z" fill="#FF3600"/>
    </symbol>
    <symbol id="left_big_1" width="50" height="119" viewBox="0 0 50 119" fill="none" xmlns="http://www.w3.org/2000/svg">
        <path d="M0 15C0 6.71573 6.71573 0 15 0H47C48.6569 0 50 1.34315 50 3V116C50 117.657 48.6569 119 47 119H3C1.34315 119 0 117.657 0 116V15Z" fill="#FF3600"/>
    </symbol>
    <symbol id="right_big_1" width="50" height="119" viewBox="0 0 50 119" fill="none" xmlns="http://www.w3.org/2000/svg">
        <path d="M49.5 15C49.5 6.99187 43.0081 0.5 35 0.5H3C1.61929 0.5 0.5 1.61929 0.5 3V116C0.5 117.381 1.61929 118.5 3 118.5H47C48.3807 118.5 49.5 117.381 49.5 116V15Z" stroke="#2E3548" stroke-opacity="0.2"/>
    </symbol>
    <symbol id="bag" width="106" height="50" viewBox="0 0 106 50" fill="none" xmlns="http://www.w3.org/2000/svg">
        <path d="M106 15C106 6.71573 99.2843 0 91 0H15C6.71573 0 0 6.71573 0 15V47C0 48.6569 1.34315 50 3 50H103C104.657 50 106 48.6569 106 47V15Z" fill="#FF3600"/>
    </symbol>
</svg>
