<svg width="34" height="34" viewBox="0 0 34 34" fill="none" xmlns="http://www.w3.org/2000/svg">
<rect x="0.5" y="0.5" width="32.7281" height="32.3588" rx="9.5" stroke="#2E3548" stroke-opacity="0.2"/>
<path fill-rule="evenodd" clip-rule="evenodd" d="M10.9707 21.2806C10.4481 20.9567 10.2806 20.5577 9.49234 20.2263C8.6965 19.2033 8.39302 17.9227 8.39302 16.6433C8.39302 15.7104 8.55924 14.7774 8.81739 13.9332L9.61322 15.514C9.56034 15.8604 9.54522 16.2444 9.54522 16.6433C9.54522 21.8671 13.0308 22.9201 16.7065 22.9051C20.3822 22.9201 23.8678 21.8671 23.8678 16.6433C23.8678 16.1093 23.83 15.6203 23.762 15.1676L24.3299 14.0008C24.6334 14.7461 24.792 15.6941 24.7769 16.6496C24.7467 18.1928 24.2392 19.7498 23.0719 20.4877L22.8906 20.7666L22.6866 21.0155L22.4738 21.2568L22.2459 21.4757L22.0028 21.6783L21.7522 21.8584L21.4865 22.031L21.2133 22.181L20.9325 22.3161L20.6366 22.4437L20.3406 22.5487L20.0372 22.6463L19.7186 22.7363L19.4 22.8113L19.0814 22.8714L18.7477 22.9239L18.414 22.9689L18.0728 22.9989L17.7391 23.0214L17.3903 23.0364L17.049 23.0514H16.3514L16.0101 23.0364L15.6613 23.0214L15.3201 22.9989L14.9864 22.9689L14.6527 22.9239L14.319 22.8714L13.9928 22.8113L13.6743 22.7363L13.3632 22.6463L13.0597 22.5487L12.7563 22.4437L12.4679 22.3161L12.1871 22.181L11.9138 22.031L11.6481 21.8584L11.3976 21.6783L11.1545 21.4757L10.9581 21.2806H10.9707ZM8.81865 11.8797L8.71287 11.7747C7.77222 12.9027 7.18164 14.476 7.18164 16.6433C7.18164 23.229 12.585 24.2971 16.7078 24.2971C20.8305 24.2971 26.2339 23.2278 26.2339 16.6433C26.2339 14.476 25.6433 12.9027 24.7026 11.7734L24.5969 11.8785C24.5742 12.45 24.476 13.0453 24.3929 13.6093C24.8021 14.4898 24.9986 15.5365 25.0212 16.6421C25.0817 19.9162 23.4144 23.3478 16.7078 23.5742C12.4944 23.5367 9.8424 22.2498 8.7582 19.5472C8.04548 19.0958 7.68911 18.2679 7.36423 17.455L7.34156 17.2361L7.32645 16.6421L7.34156 16.0555L7.3869 15.4915L7.46245 14.965L7.56823 14.461L7.68911 13.9945L7.84778 13.5505L8.02155 13.1366L8.21799 12.7452L8.43836 12.3837L8.64235 12.0973C8.71791 12.6539 8.81613 13.3917 8.99116 13.5343C11.1205 15.3102 14.8793 15.0851 16.6826 18.6668C18.6457 14.6924 22.1162 15.1901 24.2455 13.413L24.442 11.7121C21.9562 14.376 18.5765 13.473 16.6813 17.47C14.6426 13.5493 11.3082 14.5123 8.81487 11.8785L8.81865 11.8797ZM10.4934 12.8352C11.7665 10.8705 14.1918 10.3815 16.7078 10.389C19.1784 10.3815 21.5583 10.848 22.8616 12.7602L24.4004 11.6008L24.4911 11.5333C22.5582 9.44854 19.3673 8.99707 16.7078 8.99707C14.0482 8.99707 10.7125 9.46355 8.80354 11.6609L8.83376 11.6909L8.88664 11.7359L8.91687 11.7584C9.32612 12.1574 9.78826 12.5788 10.2504 12.8202C10.326 12.8577 10.4091 12.8727 10.4934 12.8352ZM24.2632 11.5033L23.5655 11.9398C21.5117 10.1414 19.3144 9.69741 16.7078 9.71992C14.0709 9.69741 11.759 10.1639 9.72781 12.0836L9.01509 11.6546L9.21153 11.4433L9.50745 11.1719L9.81092 10.923L10.1371 10.6891L10.4708 10.4778L10.8196 10.2902L11.1835 10.1176L11.555 9.96004L11.934 9.82498L12.3206 9.69741L12.7072 9.59236L13.1089 9.49481L13.5106 9.41227L13.9123 9.34474L14.3215 9.29221L14.7232 9.24719L15.1249 9.20967L15.5266 9.17966L15.9283 9.16465L16.3224 9.14965H17.0956L17.4897 9.16465L17.8839 9.17966L18.2856 9.20967L18.6948 9.24719L19.0965 9.29221L19.5058 9.34474L19.9075 9.41227L20.3092 9.49481L20.7033 9.59236L21.0974 9.69741L21.484 9.82498L21.8631 9.96004L22.2345 10.1176L22.5909 10.2902L22.9397 10.4778L23.281 10.6891L23.5995 10.923L23.9106 11.1719L24.2065 11.4433L24.2669 11.5033H24.2632ZM16.6851 19.8799C15.8061 17.9977 14.8441 17.1548 13.3733 16.5458L9.69759 15.3189L9.19012 13.927C10.0917 14.6123 11.4253 15.0788 12.6983 15.5678C14.6539 16.3132 15.7218 17.2611 16.6851 19.1958V19.8811V19.8799ZM16.6851 19.8799C17.564 17.9977 18.5261 17.0348 19.9969 16.4257L23.6348 15.1388L24.1423 13.7919C23.2331 14.4773 21.8077 15.0038 20.5346 15.4852C18.5714 16.2306 17.6471 17.2611 16.6851 19.1958V19.8811V19.8799ZM23.0958 13.9795L23.3238 13.8595L23.5441 13.7319L23.7557 13.6043L23.9597 13.4618L24.1108 13.3417L24.2468 12.1148L24.073 12.2874L23.8149 12.4913L23.5643 12.6864L23.3061 12.859L23.0404 13.0165L22.7823 13.1666L22.5166 13.3092L22.2509 13.4367L21.7208 13.6781C21.2813 13.8657 20.8418 14.0395 20.4023 14.2271L19.8873 14.461L19.6367 14.5886L19.4013 14.7161C18.8031 15.2276 18.4996 15.7166 18.3788 16.2444L18.545 16.1093L18.7956 15.9292L19.0462 15.7566L19.3043 15.5991L19.5624 15.4565L19.8206 15.3214L20.0863 15.2014L20.3444 15.0888L20.867 14.8699C21.3745 14.6748 21.8819 14.4935 22.3907 14.2909L22.6262 14.1934L22.8692 14.0883L23.0971 13.9833L23.0958 13.9795ZM18.7011 15.1763L18.6709 15.1914L18.443 15.3714L18.2151 15.574L18.0035 15.7854L17.9355 15.8529C17.7315 16.2444 17.632 16.6058 17.6471 16.9522L17.8209 16.7571L18.0564 16.5233L18.1622 16.4332C18.2226 16.0193 18.4052 15.6053 18.6999 15.1763H18.7011ZM13.3884 14.551H13.3809L12.8658 14.3322C12.4264 14.1521 11.9869 13.9783 11.5474 13.8057L11.0173 13.5718L10.7516 13.4442L10.4859 13.3167L10.2202 13.1666L9.96203 13.009L9.70389 12.8364L9.44574 12.6564L9.19516 12.4525L8.95212 12.2262L8.77835 12.0536C8.81613 12.2724 8.84635 12.4825 8.87657 12.6939L8.9219 12.9127L8.95968 13.1078L9.00501 13.2654L9.0579 13.378L9.09568 13.4305L9.28456 13.5731L9.48982 13.7231L9.71018 13.8582L9.93055 13.9858L10.166 14.1058L10.4015 14.2259L10.6445 14.3384L11.152 14.5498C11.6821 14.7599 12.2211 14.9562 12.7512 15.1751L13.2889 15.409L13.5622 15.529L13.8279 15.6641L14.0936 15.8067L14.3593 15.9567L14.4953 16.0468C14.1842 15.5353 13.7977 15.0463 13.3884 14.5485V14.551Z" fill="#2E3548"/>
</svg>
