<svg width="34" height="34" viewBox="0 0 34 34" fill="none" xmlns="http://www.w3.org/2000/svg">
<rect x="0.5" y="0.5" width="32.7281" height="32.3588" rx="9.5" stroke="#2E3548" stroke-opacity="0.2"/>
<path d="M23.0197 10.445C21.3617 8.79601 19.1558 7.88989 16.8094 7.88989C14.463 7.88989 12.2595 8.79601 10.5991 10.445C8.94112 12.0916 8.02637 14.2824 8.02637 16.6128C8.02637 18.9431 8.94112 21.1339 10.5991 22.7806C12.2571 24.4272 14.463 25.3357 16.8094 25.3357C19.1558 25.3357 21.3593 24.4296 23.0197 22.7806C24.6777 21.1339 25.5924 18.9431 25.5924 16.6128C25.5924 14.2824 24.6801 12.094 23.0197 10.445ZM10.6205 22.5629C8.52662 20.3508 7.52611 16.9487 8.57426 13.8708C8.7291 13.3526 8.94826 12.8511 9.21983 12.3732C10.592 9.97184 13.3076 8.17616 16.0423 8.01292C19.7585 7.71245 23.2174 9.7873 24.6729 13.1232C25.0279 13.9323 25.1756 14.5687 25.2875 15.6144C25.0922 14.3439 24.6277 13.4236 24.206 12.6453C23.4985 11.3937 22.3646 10.2179 21.0711 9.48211C18.8104 8.02711 15.2729 7.91355 12.9265 9.23843C11.4638 10.0144 10.2847 11.1571 9.49616 12.5246C8.66717 13.9607 8.26935 15.6404 8.42419 17.3982C8.60047 19.3524 9.55333 21.3847 11.0327 22.8799L10.6182 22.5629H10.6205ZM23.7582 20.5567L18.3268 15.9835L17.9576 16.2082C17.9576 16.2082 23.5628 20.4171 23.7391 20.5543C23.7439 20.559 23.7463 20.5614 23.751 20.5661C23.8987 20.6939 23.7439 20.7601 23.67 20.7081C23.67 20.7081 23.6653 20.7081 23.6653 20.7057L17.0309 16.7737V18.1884L23.5676 20.8027C23.5771 20.8074 23.589 20.8122 23.6009 20.8193C23.2817 21.3256 22.9054 21.8011 22.4694 22.234C20.9591 23.734 18.9486 24.562 16.8118 24.562C14.675 24.562 12.6644 23.7364 11.1541 22.234C10.6872 21.7703 10.2847 21.2569 9.95116 20.7081C9.96545 20.7885 9.9988 20.8642 10.0155 20.895L9.72247 20.5212L9.55572 20.1119C9.60336 20.1994 9.65577 20.2491 9.70817 20.2775C9.12216 19.1608 8.8101 17.9116 8.8101 16.6152C8.8101 14.493 9.64147 12.4962 11.1541 10.9963C12.6478 9.51287 14.6273 8.68955 16.7356 8.67062L15.5945 15.6712L15.9637 15.9125L16.7498 8.67062L16.757 8.59492C16.7689 8.46006 16.8165 8.36543 16.9047 8.36543C17.0214 8.36543 17.0476 8.53104 17.0476 8.62331V8.67536L17.1119 16.388L18.203 15.7492L17.0976 8.67772C19.1296 8.74633 21.0282 9.56255 22.4742 10.9986C23.9845 12.4986 24.8182 14.4953 24.8182 16.6175C24.8182 18.0228 24.4514 19.3737 23.7653 20.5614L23.7582 20.5567ZM9.40326 20.3295C9.1031 19.5677 8.64097 18.6829 8.60047 16.9393C8.77675 18.6096 9.27224 19.6979 9.62718 20.3958C9.71056 20.5496 9.56286 20.6797 9.40326 20.3295ZM19.4512 24.5597C16.271 25.551 12.8336 24.6567 10.6849 22.208C10.2751 21.7609 10.0584 21.4604 9.68197 20.8382C9.57001 20.6773 9.69388 20.5638 9.78917 20.6844C11.4614 23.4619 14.6631 25.0187 18.0172 24.5833C20.3136 24.2403 22.4218 22.8894 23.7272 20.876C23.8225 20.9139 23.9249 20.9328 23.9726 20.8595C24.0274 20.7767 24.0321 20.7459 23.8963 20.6205C23.894 20.6158 23.8916 20.6134 23.8892 20.6087C24.5014 19.6434 24.8373 18.4534 24.9159 17.2255C25.0255 15.5103 24.63 13.7264 23.7844 12.4039C23.4556 11.9095 22.8982 11.2044 22.5028 10.736C24.4609 12.5175 25.309 14.8384 25.2661 17.3249C25.0636 20.5472 22.5576 23.6299 19.456 24.562L19.4512 24.5597Z" fill="#2E3548"/>
<path d="M14.6776 17.6159L16.631 16.627L16.2856 16.3999L14.6776 17.6159Z" fill="#2E3548"/>
<path d="M9.98 20.5826L16.7573 18.1766V16.7097L9.83231 20.4667L15.883 16.1278L15.4947 15.8699L9.93236 20.2491C9.87757 20.2916 9.79419 20.32 9.70605 20.2727C9.78228 20.4194 9.86328 20.5637 9.94904 20.7057C9.94904 20.6986 9.94665 20.6915 9.94427 20.6844L9.98 20.5826Z" fill="#2E3548"/>
<path d="M16.3141 16.1445L16.7429 16.4213L16.9144 8.66837L16.9192 8.50513L16.9049 8.66837L16.3141 16.1445Z" fill="#2E3548"/>
<path d="M17.2433 16.6271L23.5989 20.5733L17.5291 16.4543L17.2433 16.6271Z" fill="#2E3548"/>
<path d="M9.55359 20.1095L9.72034 20.5188L10.0133 20.8926C9.99667 20.8642 9.96332 20.7862 9.94903 20.7057C9.86327 20.5638 9.78228 20.4195 9.70605 20.2728C9.65602 20.2468 9.60361 20.1947 9.55359 20.1072V20.1095Z" fill="#2E3548"/>
</svg>
