<svg width="34" height="34" viewBox="0 0 34 34" fill="none" xmlns="http://www.w3.org/2000/svg">
<rect x="0.5" y="0.5" width="32.7281" height="32.3588" rx="9.5" stroke="#2E3548" stroke-opacity="0.2"/>
<path d="M18.7314 17.3912C18.7133 17.3957 18.6412 17.3957 18.6097 17.3957H16.2838V17.9329H18.6502C18.6682 17.9329 18.808 17.9329 18.835 17.9284C19.3173 17.8836 19.5382 17.4852 19.5382 17.136C19.5382 16.7779 19.3083 16.3929 18.8711 16.3526C18.7854 16.3437 18.7133 16.3437 18.6818 16.3437H17.1357C17.0681 16.3437 16.9915 16.3392 16.9644 16.3302C16.8427 16.2989 16.7976 16.1915 16.7976 16.1019C16.7976 16.0213 16.8427 15.9139 16.9689 15.8781C17.005 15.8691 17.0456 15.8647 17.1312 15.8647H19.3624V15.3364H17.0951C17.0005 15.3364 16.9284 15.3409 16.8698 15.3499C16.4821 15.4036 16.2117 15.7125 16.2117 16.1064C16.2117 16.4287 16.4145 16.8048 16.8607 16.8674C16.9419 16.8764 17.0546 16.8764 17.1042 16.8764H18.6097C18.6367 16.8764 18.7043 16.8764 18.7178 16.8809C18.8891 16.9032 18.9477 17.0286 18.9477 17.1405C18.9477 17.2479 18.8801 17.3643 18.7314 17.3912Z" fill="#2E3548"/>
<path d="M14.3228 17.3912C14.3048 17.3957 14.2326 17.3957 14.2056 17.3957H11.8752V17.9329H14.2416C14.2597 17.9329 14.3994 17.9329 14.4265 17.9284C14.9088 17.8836 15.1296 17.4852 15.1296 17.136C15.1296 16.7779 14.8997 16.3929 14.4625 16.3526C14.3769 16.3437 14.3048 16.3437 14.2732 16.3437H12.7271C12.6595 16.3437 12.5829 16.3392 12.5559 16.3302C12.4341 16.2989 12.3891 16.1915 12.3891 16.1019C12.3891 16.0213 12.4341 15.9139 12.5604 15.8781C12.5964 15.8691 12.637 15.8647 12.7226 15.8647H14.9538V15.3364H12.6866C12.5919 15.3364 12.5198 15.3409 12.4612 15.3499C12.0735 15.4036 11.8031 15.7125 11.8031 16.1064C11.8031 16.4287 12.0059 16.8048 12.4522 16.8674C12.5333 16.8764 12.646 16.8764 12.6956 16.8764H14.2011C14.2281 16.8764 14.2957 16.8764 14.3093 16.8809C14.4805 16.9032 14.5391 17.0286 14.5391 17.1405C14.5391 17.2479 14.476 17.3643 14.3228 17.3912Z" fill="#2E3548"/>
<path d="M10.6629 15.3184H10.0769V17.9461H10.6629V15.3184Z" fill="#2E3548"/>
<path d="M8.78314 17.9461V15.3184H8.19717V17.2791L6.24543 15.3184H5.49268V17.9461H6.07865V15.9764L8.04391 17.9461H8.78314Z" fill="#2E3548"/>
<path d="M27.6288 15.3184V17.2791L25.6771 15.3184H24.9243V17.9461H25.5103V15.9764L27.471 17.9461H28.2103V15.3184H27.6288Z" fill="#2E3548"/>
<path d="M21.8731 15.3184L20.2234 17.9461H20.9356L21.2286 17.4761H23.1533L23.4462 17.9461H24.1539L22.5042 15.3184H21.8731ZM22.8513 16.9792H21.5306L22.1932 15.9227L22.8513 16.9792Z" fill="#2E3548"/>
<path d="M8.75184 13.8276C9.9328 10.403 13.1872 8.10203 16.8563 8.10203C20.5254 8.10203 23.7843 10.403 24.9608 13.8276L24.9698 13.8545H27.5526V13.5456L26.4798 13.4203C25.8172 13.3442 25.6774 13.0532 25.4971 12.6861L25.4521 12.5966C23.9015 9.31967 20.5254 7.19775 16.8563 7.19775C13.1827 7.19775 9.8111 9.31967 8.26052 12.6055L8.21545 12.695C8.03515 13.0621 7.89542 13.3531 7.23282 13.4292L6.16003 13.5546V13.8634H8.73832L8.75184 13.8276Z" fill="#2E3548"/>
<path d="M24.9695 19.4146L24.9605 19.4415C23.7796 22.8661 20.5252 25.1626 16.8561 25.1626C13.187 25.1626 9.92806 22.8616 8.7516 19.437L8.74259 19.4102H6.16431V19.719L7.23709 19.8444C7.89969 19.9205 8.03942 20.2115 8.21972 20.5786L8.26479 20.6681C9.81537 23.9539 13.1915 26.0758 16.8606 26.0758C20.5297 26.0758 23.9058 23.9539 25.4563 20.6726L25.5014 20.583C25.6817 20.2159 25.8214 19.925 26.484 19.8489L27.5568 19.7235V19.4146H24.9695Z" fill="#2E3548"/>
</svg>
