<svg width="183" height="248" viewBox="0 0 183 248" fill="none" xmlns="http://www.w3.org/2000/svg">
<path d="M90.8563 248C73.3944 248 57.8425 244.975 44.2004 238.924C30.6362 232.795 19.9174 224.387 12.044 213.7C4.24854 202.934 0.233864 190.518 0 176.452H50.9824C51.2942 182.346 53.2041 187.532 56.7121 192.011C60.298 196.412 65.0533 199.83 70.9778 202.266C76.9024 204.702 83.5675 205.92 90.9732 205.92C98.6908 205.92 105.512 204.545 111.436 201.795C117.361 199.044 121.999 195.233 125.351 190.361C128.703 185.489 130.379 179.871 130.379 173.506C130.379 167.062 128.586 161.365 125.001 156.414C121.493 151.385 116.425 147.456 109.799 144.627C103.251 141.798 95.4556 140.384 86.4129 140.384H64.0788V102.901H86.4129C94.0525 102.901 100.796 101.565 106.642 98.8935C112.567 96.2218 117.166 92.5285 120.44 87.8137C123.714 83.0203 125.351 77.4411 125.351 71.0761C125.351 65.0254 123.909 59.7212 121.025 55.1635C118.218 50.5272 114.243 46.9126 109.098 44.3194C104.031 41.7262 98.1061 40.4297 91.324 40.4297C84.464 40.4297 78.1887 41.687 72.498 44.2015C66.8073 46.6375 62.2469 50.1343 58.8169 54.692C55.3869 59.2497 53.5549 64.5931 53.3211 70.7224H4.79422C5.02808 56.8137 8.9648 44.5551 16.6044 33.9468C24.2439 23.3384 34.534 15.0482 47.4745 9.07605C60.4929 3.02535 75.1874 0 91.5579 0C108.084 0 122.545 3.02535 134.94 9.07605C147.335 15.1267 156.962 23.2991 163.822 33.5932C170.76 43.8086 174.19 55.2814 174.112 68.0114C174.19 81.5272 170.019 92.8035 161.6 101.84C153.259 110.877 142.384 116.613 128.976 119.049V120.935C146.594 123.214 160.002 129.383 169.201 139.441C178.477 149.421 183.077 161.915 182.999 176.924C183.077 190.676 179.14 202.895 171.189 213.582C163.315 224.269 152.441 232.677 138.565 238.806C124.689 244.935 108.786 248 90.8563 248Z" fill="#F0F3F8"/>
</svg>
