<svg width="175" height="243" viewBox="0 0 175 243" fill="none" xmlns="http://www.w3.org/2000/svg">
<path d="M2.36487 243V206.48L88.5642 127.47C95.8953 120.447 102.044 114.126 107.01 108.507C112.055 102.889 115.878 97.3873 118.48 92.0029C121.081 86.5405 122.382 80.6488 122.382 74.328C122.382 67.3049 120.766 61.2572 117.534 56.185C114.302 51.0347 109.887 47.0939 104.291 44.3627C98.6937 41.5535 92.348 40.1488 85.2534 40.1488C77.8435 40.1488 71.3795 41.6315 65.8615 44.5968C60.3435 47.5621 56.0867 51.815 53.0912 57.3555C50.0957 62.8959 48.598 69.4899 48.598 77.1373H0C0 61.4523 3.58671 47.8353 10.7601 36.2861C17.9336 24.737 27.9842 15.802 40.9122 9.48121C53.8401 3.1604 68.7387 0 85.6081 0C102.95 0 118.046 3.04335 130.895 9.13006C143.823 15.1387 153.874 23.4884 161.047 34.1792C168.221 44.8699 171.807 57.1214 171.807 70.9335C171.807 79.9855 169.994 88.9205 166.368 97.7384C162.821 106.556 156.475 116.35 147.331 127.118C138.187 137.809 125.298 150.646 108.666 165.629L73.3108 199.925V201.564H175V243H2.36487Z" fill="#F0F3F8"/>
</svg>
