<svg width="20" height="28" viewBox="0 0 20 28" fill="none" xmlns="http://www.w3.org/2000/svg">
<path fill-rule="evenodd" clip-rule="evenodd" d="M19.1148 9.03172C19.1148 4.04392 14.8355 0 9.55738 0C4.27928 0 0 4.04392 0 9.03172C0 10.4608 0.351145 11.8117 0.976963 13.0122L1.43267 13.7895L9.53553 27.0981L17.4979 14.0593L18.155 12.9827H18.1534C18.7683 11.7896 19.1148 10.449 19.1148 9.03172ZM9.5605 13.8101C6.6062 13.8101 4.21218 11.5477 4.21218 8.75593C4.21218 5.96412 6.6062 3.70177 9.5605 3.70177C12.5148 3.70177 14.9088 5.96412 14.9088 8.75593C14.9088 11.5477 12.5148 13.8101 9.5605 13.8101Z" fill="#2E3548"/>
</svg>
