<?xml version="1.0" standalone="no"?>
<!DOCTYPE svg PUBLIC "-//W3C//DTD SVG 20010904//EN"
 "http://www.w3.org/TR/2001/REC-SVG-20010904/DTD/svg10.dtd">
<svg version="1.0" xmlns="http://www.w3.org/2000/svg"
 width="2640.000000pt" height="2640.000000pt" viewBox="0 0 2640.000000 2640.000000"
 preserveAspectRatio="xMidYMid meet">
<metadata>
Created by potrace 1.14, written by Peter Selinger 2001-2017
</metadata>
<g transform="translate(0.000000,2640.000000) scale(0.100000,-0.100000)"
fill="#000000" stroke="none">
<path d="M3960 17325 c0 -7 -460 -10 -1358 -10 -1232 -1 -1419 -3 -1489 -19
-11 -2 -42 -8 -67 -11 -26 -4 -49 -11 -52 -16 -3 -5 -9 -7 -14 -4 -23 14 -350
-131 -400 -177 -11 -10 -20 -16 -20 -13 0 4 -7 0 -15 -7 -8 -7 -35 -29 -61
-48 -114 -86 -295 -295 -318 -368 -4 -11 -13 -26 -21 -32 -8 -7 -15 -20 -15
-30 0 -10 -7 -23 -15 -30 -9 -7 -13 -15 -10 -18 3 -3 1 -10 -4 -16 -12 -15
-58 -152 -70 -206 -5 -25 -13 -58 -18 -75 -4 -16 -9 -1400 -10 -3075 -2 -2927
-2 -3049 16 -3145 10 -55 31 -134 46 -175 15 -41 29 -84 33 -95 3 -11 8 -22
11 -25 4 -3 21 -34 39 -69 19 -35 58 -98 89 -140 59 -81 247 -271 269 -271 7
0 14 -3 16 -7 5 -13 75 -62 102 -73 14 -5 26 -14 26 -20 0 -5 7 -10 16 -10 9
0 28 -9 42 -19 15 -10 30 -19 35 -20 4 0 24 -8 45 -17 45 -19 111 -44 132 -49
8 -2 40 -11 70 -19 71 -20 157 -36 228 -42 85 -7 11288 -7 11352 1 30 3 67 8
83 11 15 2 42 6 60 9 42 7 194 52 232 69 118 53 159 73 225 114 41 25 93 60
115 76 49 38 214 202 237 236 10 14 31 45 49 69 95 135 179 351 198 511 9 77
8 3956 -1 4005 -4 22 -10 56 -14 75 -3 19 -17 69 -30 110 -75 224 -216 428
-399 575 -28 22 -52 42 -55 45 -12 13 -157 98 -177 104 -13 4 -23 12 -23 17 0
5 -8 9 -18 9 -10 0 -22 4 -28 8 -10 9 -89 42 -114 47 -8 2 -34 10 -57 19 -24
8 -43 13 -43 11 0 -3 -11 0 -26 5 -14 6 -42 12 -62 15 -20 2 -48 7 -62 11 -14
3 -87 7 -163 10 -77 2 -142 6 -147 9 -4 2 -10 2 -13 -1 -5 -5 -99 -8 -144 -5
-5 1 -451 2 -993 4 -854 3 -1075 7 -1075 16 0 2 -13 5 -30 7 -16 3 -43 9 -60
14 -16 5 -41 11 -55 14 -79 13 -301 121 -407 197 -34 24 -216 201 -405 393
-707 718 -875 885 -974 966 -170 139 -439 294 -659 381 -106 41 -252 89 -274
89 -10 0 -21 3 -25 8 -4 4 -11 7 -14 8 -4 0 -23 4 -42 8 -19 4 -42 8 -50 10
-8 2 -26 6 -40 9 -14 4 -38 9 -55 11 -16 3 -41 7 -55 10 -72 15 -243 29 -362
30 -51 1 -88 5 -88 11 0 7 -3 7 -8 0 -4 -7 -442 -10 -1277 -10 -835 0 -1273 3
-1277 10 -5 7 -8 7 -8 0z m1376 -4320 c88 -25 164 -108 177 -192 3 -17 8 -37
12 -42 3 -6 1 -11 -5 -11 -6 0 -8 -5 -4 -11 3 -6 8 -232 10 -503 4 -457 9
-564 34 -621 4 -11 14 -35 21 -54 34 -92 126 -204 268 -331 41 -36 90 -81 111
-100 20 -19 65 -60 100 -90 34 -30 84 -75 110 -100 27 -25 81 -74 121 -110 40
-36 85 -76 99 -90 15 -14 64 -59 110 -100 47 -41 99 -88 116 -105 18 -16 51
-47 75 -68 24 -21 64 -57 89 -80 91 -84 83 -80 116 -52 16 14 32 25 37 25 4 0
7 7 7 15 0 8 3 15 8 15 8 0 46 33 167 145 50 45 107 98 129 116 21 19 53 48
70 64 18 17 74 68 126 115 51 47 105 96 120 110 15 14 62 57 105 95 164 147
192 173 290 271 116 118 134 140 177 226 61 124 60 113 63 710 2 501 4 551 21
598 21 58 61 103 118 133 45 23 130 45 161 42 65 -7 112 -18 126 -31 8 -8 20
-14 26 -14 18 0 90 -76 109 -116 18 -37 19 -72 19 -594 0 -484 -3 -613 -18
-680 -18 -80 -52 -182 -87 -256 -27 -59 -102 -186 -125 -210 -26 -30 -45 -55
-45 -61 0 -9 -204 -208 -294 -288 -37 -33 -82 -73 -100 -90 -61 -58 -174 -161
-251 -230 -43 -38 -93 -83 -111 -100 -17 -16 -64 -59 -104 -95 -39 -36 -89
-81 -110 -100 -109 -101 -154 -142 -234 -215 -49 -44 -101 -91 -116 -105 -15
-14 -65 -59 -111 -100 -45 -41 -92 -84 -103 -95 -12 -11 -39 -35 -60 -53 l-38
-33 -57 53 c-31 29 -94 87 -140 128 -46 41 -100 91 -121 110 -20 19 -55 51
-77 70 -34 30 -144 129 -233 210 -15 14 -63 57 -106 97 -44 39 -90 81 -104 93
-13 12 -63 57 -110 100 -47 43 -96 88 -109 99 -13 12 -60 53 -103 93 -44 40
-93 84 -108 98 -15 14 -60 54 -101 90 -152 134 -319 312 -319 339 0 5 -4 11
-8 13 -4 2 -22 26 -39 55 -29 47 -40 69 -92 186 -22 48 -58 173 -67 232 -3 22
-7 42 -9 45 -2 3 -6 33 -10 65 -4 33 -9 71 -12 85 -9 36 -9 861 -1 866 4 3 4
15 -1 27 -5 12 -5 31 -1 42 4 11 5 23 3 28 -11 19 32 110 73 152 82 84 189
108 320 70z m-892 -19 c40 -10 76 -30 111 -63 47 -43 62 -71 82 -153 32 -133
-75 -292 -213 -315 -22 -3 -709 -6 -1529 -6 -819 0 -1497 -2 -1505 -4 -13 -4
-14 -24 -10 -131 3 -69 3 -128 1 -130 -3 -2 -4 -23 -3 -47 3 -60 1 -141 -3
-145 -2 -2 0 -14 5 -27 5 -14 5 -26 -3 -34 -8 -8 -7 -11 3 -11 9 0 10 -3 4 -9
-5 -6 -7 -53 -4 -112 l5 -102 1124 0 c618 0 1141 -4 1163 -8 69 -16 112 -41
148 -85 92 -114 87 -272 -12 -373 -30 -31 -108 -78 -108 -66 0 4 -6 3 -12 -2
-18 -11 52 -10 -1177 -12 l-1129 -1 -4 -61 c-1 -33 0 -68 3 -77 4 -9 4 -21 1
-26 -7 -13 -7 -69 1 -89 4 -10 2 -17 -3 -17 -6 0 -6 -9 0 -24 5 -13 6 -27 3
-30 -6 -6 -6 -40 0 -119 1 -21 -1 -41 -5 -43 -5 -3 -3 -14 2 -25 6 -10 7 -19
3 -19 -5 0 -6 -40 -2 -89 7 -97 20 -127 88 -189 51 -46 142 -92 221 -110 24
-5 495 -9 2080 -15 l675 -2 45 -23 c170 -88 203 -314 65 -446 -27 -25 -51 -43
-55 -41 -4 3 -12 -1 -18 -8 -6 -7 -26 -15 -44 -17 -59 -9 -2742 -5 -2793 3
-140 24 -240 56 -365 120 -112 57 -183 108 -266 193 -60 61 -124 144 -124 161
0 5 -6 15 -12 22 -7 6 -13 15 -14 19 0 4 -6 21 -13 37 -25 58 -40 121 -46 184
-3 36 -7 67 -10 69 -2 3 0 13 6 23 6 13 6 19 0 19 -7 0 -7 9 -1 25 5 14 6 25
2 25 -5 0 -7 15 -5 33 2 17 4 37 3 42 0 6 -1 35 -3 65 -1 30 1 61 6 68 6 7 6
12 0 12 -10 0 -9 83 2 100 3 5 3 10 -2 10 -4 0 -8 18 -8 40 0 22 4 40 8 40 5
0 5 5 1 11 -9 16 -11 119 -1 119 5 0 5 6 0 13 -10 16 -11 98 0 120 4 9 4 17 0
17 -4 0 -8 31 -8 70 0 38 4 70 9 70 5 0 4 6 -1 13 -5 6 -8 23 -6 37 4 31 4 39
0 70 -2 14 1 33 5 43 5 9 5 17 1 17 -4 0 -8 29 -8 65 0 36 4 65 8 65 5 0 5 5
1 12 -11 18 -11 78 -1 78 6 0 6 5 0 13 -5 6 -8 23 -6 37 2 14 3 30 3 35 0 6
-1 47 -2 93 -2 45 1 82 5 82 5 0 5 5 2 11 -11 16 -13 59 -4 65 5 2 5 15 1 27
-9 27 -9 48 1 65 5 6 5 12 0 12 -10 0 -10 121 1 138 4 7 3 12 -2 12 -9 0 -7
83 3 100 3 5 3 10 -2 10 -4 0 -8 18 -8 40 0 22 4 40 8 40 5 0 5 5 1 12 -10 16
-11 78 -1 78 5 0 5 5 1 12 -11 18 -11 78 -1 78 6 0 6 5 0 13 -5 6 -8 23 -6 37
4 28 4 23 1 111 l-3 65 1810 -2 c996 -1 1823 -4 1839 -8z m7601 0 c22 -3 74
-13 115 -23 86 -19 79 -17 105 -27 141 -54 147 -56 253 -119 28 -18 52 -35 52
-39 0 -5 5 -8 11 -8 15 0 125 -102 174 -161 25 -31 67 -96 82 -129 35 -78 45
-104 49 -126 2 -13 7 -36 11 -51 4 -16 9 -566 10 -1225 3 -1183 3 -1197 -17
-1251 -30 -80 -118 -150 -202 -161 -18 -3 -34 -5 -35 -6 -4 -2 -62 -2 -65 0
-2 1 -18 3 -36 6 -51 6 -126 49 -164 93 -57 67 -58 76 -58 701 0 536 -1 570
-17 571 -118 5 -2656 2 -2660 -4 -2 -4 -5 -264 -5 -578 -1 -642 1 -626 -75
-706 -24 -24 -43 -42 -43 -39 0 3 -17 -4 -37 -15 -21 -12 -54 -23 -73 -24 -19
-2 -36 -4 -37 -5 -8 -5 -63 -2 -93 5 -91 20 -169 80 -202 155 -20 44 -20 70
-21 1215 0 644 3 1195 7 1225 7 64 56 220 68 220 4 0 8 5 8 12 0 36 161 224
230 266 14 9 32 22 40 29 25 23 90 63 90 56 0 -3 8 0 18 8 16 13 52 32 125 63
27 12 91 32 132 42 89 21 119 26 170 31 33 3 61 6 62 7 7 5 1994 -2 2028 -8z"/>
<path d="M10000 12442 c-163 -26 -314 -130 -345 -239 -7 -26 -10 -608 -2 -619
4 -7 2613 -11 2670 -5 12 1 8 623 -5 638 -6 7 -7 13 -4 13 11 0 -46 72 -78
100 -53 45 -145 90 -216 106 -35 7 -1974 14 -2020 6z"/>
<path d="M14446 13000 c-16 -5 -33 -7 -38 -4 -4 3 -8 2 -8 -3 0 -4 -12 -14
-27 -20 -61 -27 -145 -135 -128 -164 4 -5 2 -9 -3 -9 -4 0 -8 -644 -7 -1472 1
-1325 2 -1477 17 -1509 66 -149 266 -210 423 -127 73 38 116 93 132 166 4 15
7 312 7 660 l1 633 642 -1 c388 -1 645 -5 649 -11 3 -5 9 -7 14 -4 4 3 30 0
56 -5 27 -6 62 -13 78 -16 89 -17 375 -133 384 -156 2 -4 9 -8 14 -8 11 0 93
-49 133 -80 43 -33 165 -162 165 -174 0 -3 23 -39 50 -80 28 -42 50 -80 50
-86 0 -5 4 -10 8 -10 5 0 15 -12 23 -27 8 -16 18 -32 22 -38 11 -14 198 -303
227 -350 13 -22 28 -41 32 -43 4 -2 8 -7 8 -12 0 -16 198 -306 226 -330 16
-14 45 -32 64 -39 19 -8 40 -17 45 -21 12 -7 119 -5 160 5 35 7 101 44 130 73
32 31 65 72 59 72 -4 0 -2 6 4 13 24 28 30 128 12 172 -7 17 -14 35 -15 41 -2
6 -19 36 -39 65 -20 30 -41 61 -46 69 -5 8 -21 32 -35 53 -14 21 -25 41 -25
44 0 4 -8 16 -18 27 -10 12 -54 77 -98 146 -43 69 -82 127 -86 128 -5 2 -8 8
-8 13 0 6 -9 22 -19 37 -37 52 -211 323 -211 328 0 5 -48 72 -60 84 -3 3 -21
25 -40 50 -74 96 -208 206 -359 295 -88 52 -99 61 -81 69 11 5 20 13 20 18 0
4 6 8 13 8 6 0 31 15 54 33 22 17 53 41 68 51 70 52 335 297 335 312 0 1 19
22 43 47 41 43 60 65 122 142 17 21 37 46 47 57 9 10 31 37 50 60 18 23 38 46
43 52 6 6 28 34 50 61 22 28 46 54 53 58 6 4 12 15 12 22 0 8 4 15 8 15 4 0
34 34 66 75 33 41 62 76 65 77 7 4 66 81 66 88 1 3 7 16 14 29 23 42 20 132
-6 187 -25 54 -99 127 -147 144 -17 7 -38 15 -46 19 -29 14 -120 12 -175 -4
-59 -17 -128 -75 -196 -165 -18 -25 -36 -47 -39 -50 -3 -3 -19 -23 -36 -45
-16 -22 -37 -49 -47 -60 -10 -11 -44 -53 -75 -94 -31 -41 -66 -85 -77 -97 -11
-12 -25 -28 -30 -36 -76 -100 -155 -188 -273 -305 -57 -56 -117 -112 -133
-125 -17 -13 -45 -35 -62 -50 -18 -15 -43 -33 -57 -40 -14 -7 -34 -21 -44 -30
-16 -15 -220 -121 -236 -124 -3 0 -36 -10 -74 -22 -38 -12 -83 -24 -100 -27
-17 -3 -42 -8 -56 -10 -14 -3 -45 -8 -70 -11 -67 -8 -1249 -8 -1258 0 -4 4 -8
251 -8 549 -1 298 -4 552 -7 564 -12 46 -78 138 -91 126 -3 -4 -6 -1 -6 6 0
36 -194 74 -264 51z"/>
<path d="M19407 12993 c-1 0 -36 -2 -77 -4 -41 -1 -79 -5 -84 -7 -5 -3 -25 -6
-45 -8 -42 -3 -52 -5 -146 -32 -279 -79 -530 -280 -628 -502 -11 -25 -28 -79
-38 -120 -17 -70 -18 -139 -18 -985 0 -930 0 -945 37 -1062 17 -53 61 -135
105 -193 48 -64 124 -140 132 -132 3 3 5 1 5 -5 0 -12 121 -97 200 -140 52
-28 156 -71 190 -78 8 -2 15 -4 15 -5 0 -1 11 -4 25 -7 14 -2 30 -6 35 -7 35
-9 65 -16 100 -23 54 -9 2089 -10 2145 0 168 30 373 100 418 144 7 7 19 13 27
13 7 0 15 3 17 8 2 4 26 23 53 42 28 19 55 39 61 45 7 6 25 22 40 36 80 67
195 250 210 334 3 16 7 32 10 36 3 5 8 36 11 71 9 86 8 1814 -1 1858 -4 19 -8
42 -10 50 -1 9 -5 21 -10 28 -4 6 -5 12 -2 12 11 0 -55 143 -90 195 -52 80
-153 176 -250 241 -82 55 -244 134 -275 134 -8 0 -20 5 -27 12 -7 7 -12 9 -12
5 0 -3 -11 -2 -26 3 -37 14 -91 24 -201 36 -50 5 -1891 13 -1896 7z m1873
-557 c163 -26 279 -98 335 -207 16 -31 18 -96 18 -894 0 -813 -1 -864 -19
-901 -37 -80 -165 -176 -253 -189 -14 -3 -44 -9 -66 -15 -26 -6 -385 -9 -1035
-7 l-995 3 -58 23 c-33 13 -70 29 -84 36 -47 25 -128 102 -150 143 l-21 41 0
863 c0 821 1 865 19 899 52 103 199 190 347 205 31 4 58 7 59 8 7 5 1868 -2
1903 -8z"/>
<path d="M22524 12992 l-22 -3 1 -1557 c0 -929 3 -1569 9 -1587 5 -16 10 -36
12 -43 8 -44 96 -118 166 -140 65 -21 230 -15 230 9 0 5 3 8 8 7 27 -8 130 90
137 132 1 3 5 21 10 40 4 19 9 258 9 530 l1 495 1140 -1 c627 0 1160 -3 1185
-7 110 -16 220 -68 280 -134 51 -55 60 -68 66 -94 4 -13 7 -197 9 -409 2 -421
3 -427 63 -489 35 -37 111 -86 119 -78 3 4 12 2 19 -4 20 -17 194 -14 194 3 0
4 3 7 8 6 11 -3 71 31 103 60 17 14 39 47 51 72 20 43 21 59 22 440 0 454 -5
523 -44 615 -51 122 -78 161 -173 257 l-49 48 64 64 c34 34 69 71 75 82 7 10
25 37 39 59 15 22 27 44 28 50 1 5 4 15 7 20 15 25 35 96 46 160 8 52 8 616 0
678 -12 86 -66 225 -105 270 -8 9 -12 17 -8 17 8 0 -32 46 -97 113 -50 52
-160 137 -177 137 -6 0 -10 4 -10 10 0 5 -11 12 -25 16 -14 3 -25 11 -25 17 0
6 -3 7 -6 4 -4 -4 -19 2 -33 12 -14 10 -44 24 -66 31 -22 7 -44 16 -50 20 -29
21 -206 58 -317 66 -77 6 -2854 12 -2894 6z m2954 -571 c128 -33 228 -105 267
-191 17 -38 19 -68 20 -289 1 -135 -4 -264 -9 -286 -6 -26 -26 -56 -61 -91
-49 -50 -138 -104 -170 -104 -8 0 -15 -4 -15 -8 0 -4 -10 -8 -22 -9 -13 0 -39
-4 -58 -8 -19 -5 -555 -9 -1190 -9 l-1155 -1 -1 505 c0 278 0 507 2 510 1 3
521 5 1156 4 l1153 0 83 -23z"/>
</g>
</svg>
