<svg width="29" height="29" viewBox="0 0 29 29" fill="none" xmlns="http://www.w3.org/2000/svg">
<path d="M28.2522 26.6074L19.8944 18.2496C23.376 13.9806 23.1246 7.6672 19.1497 3.68753C17.0958 1.62892 14.3636 0.5 11.456 0.5C8.54828 0.5 5.82085 1.62892 3.76698 3.68753C-0.478317 7.92809 -0.478317 14.8297 3.76698 19.0702C5.82085 21.1241 8.55302 22.2578 11.4607 22.2578C13.9936 22.2578 16.3938 21.3992 18.3291 19.8149L26.6869 28.1727C26.905 28.3909 27.1896 28.5 27.4695 28.5C27.7494 28.5 28.0387 28.3909 28.2522 28.1727C28.6838 27.7411 28.6838 27.0343 28.2522 26.6027V26.6074ZM5.33703 17.5002C1.95977 14.1229 1.95977 8.6301 5.33703 5.25758C6.97349 3.62112 9.14594 2.71989 11.4607 2.71989C13.7755 2.71989 15.9479 3.62112 17.5844 5.25758C20.9616 8.63485 20.9616 14.1276 17.5844 17.5002C15.9479 19.1366 13.7755 20.0379 11.4607 20.0379C9.14594 20.0379 6.97349 19.1366 5.33703 17.5002Z" fill="#2E3548"/>
<path d="M7.53756 5.34784C6.98259 5.60398 6.73594 6.26331 6.99682 6.82302C7.25296 7.378 7.91229 7.61991 8.472 7.36377C8.5052 7.34954 11.9204 5.82218 15.108 8.74408C15.3214 8.93856 15.5918 9.03817 15.8574 9.03817C16.1562 9.03817 16.4551 8.91484 16.678 8.67767C17.0907 8.22705 17.0622 7.52504 16.6116 7.10762C12.3473 3.1991 7.74153 5.25772 7.54705 5.34784H7.53756Z" fill="#2E3548"/>
</svg>
