<svg width="34" height="34" viewBox="0 0 34 34" fill="none" xmlns="http://www.w3.org/2000/svg">
<rect x="0.5" y="0.5" width="32.7281" height="32.3588" rx="9.5" stroke="#2E3548" stroke-opacity="0.2"/>
<path d="M16.0689 25.2969C13.9724 25.0631 12.2511 24.2376 10.7946 22.791C9.48522 21.4833 8.69811 20.0149 8.34502 18.1957C8.19054 17.3994 8.20525 15.8214 8.37444 15.0251C8.57306 14.1118 8.76432 13.5712 9.16891 12.7749C11.1256 8.93938 15.5981 7.11295 19.7102 8.47912C22.6011 9.43617 24.6829 11.7448 25.4553 14.8424C25.5804 15.3392 25.5951 15.5291 25.5951 16.6542C25.5951 18.0204 25.5583 18.2761 25.1978 19.4012C24.4181 21.8632 22.3437 23.96 19.8058 24.8586C18.776 25.2165 17.1208 25.4138 16.0689 25.2969ZM17.6873 24.5371C21.5198 24.1791 24.6167 21.0523 24.8448 17.3044C24.9698 15.3611 24.4696 13.5785 23.3882 12.0808C22.4319 10.7585 20.9681 9.69187 19.3939 9.17316C18.1948 8.77865 16.5912 8.67637 15.3995 8.93207C12.1849 9.6042 9.84567 11.9055 9.13212 15.0835C8.94087 15.9456 8.94087 17.3994 9.13212 18.2907C9.36752 19.3647 9.83095 20.424 10.4709 21.3153C10.8755 21.8851 11.8539 22.8276 12.435 23.2075C14.0754 24.2741 15.7967 24.7124 17.6873 24.5371ZM11.5449 21.1034C11.1551 20.6139 10.8534 20.161 10.6548 19.7519C10.5666 19.5765 10.5004 19.4231 10.5004 19.4158C10.5004 19.4085 10.9932 19.3939 11.5964 19.3939H12.6925L13.303 19.6569C13.7591 19.8541 13.9872 19.9199 14.2078 19.9199C14.4359 19.9199 14.5021 19.898 14.5021 19.8322C14.5021 19.6569 14.3182 18.8459 14.2225 18.6122C13.8695 17.7209 13.0824 16.9465 12.0378 16.4643C11.6258 16.2743 10.39 15.8871 10.2061 15.8871C10.1399 15.8871 10.0737 15.8433 10.0516 15.7995C9.96336 15.5803 10.287 14.4552 10.6548 13.6954L10.8682 13.2498L11.0815 13.2863C11.7803 13.3959 13.4207 14.0242 14.1416 14.4625C14.3329 14.5794 14.5168 14.6671 14.5536 14.6671C14.9434 14.6671 13.6414 13.5931 12.2511 12.7676C11.8686 12.5411 11.5596 12.3438 11.5596 12.3219C11.5596 12.3 11.773 12.0735 12.0304 11.8105C12.5674 11.2772 13.3987 10.6928 13.612 10.6928C13.7959 10.6928 14.3991 11.0215 14.9655 11.4379C15.2156 11.6206 15.7747 12.1174 16.216 12.5484C16.9149 13.2278 17.2091 13.447 17.2091 13.279C17.2091 13.2571 17.0914 13.0306 16.9517 12.7895C16.5912 12.1612 15.9954 11.416 15.3112 10.7512C14.9876 10.4371 14.7522 10.1667 14.789 10.1448C15.0023 10.0133 15.9218 9.86721 16.7016 9.83068L17.5696 9.79415L18.1948 10.4005C19.6881 11.8544 20.4017 13.4835 20.4973 15.6241C20.5561 16.9538 20.2693 18.6195 19.7764 19.8176C19.7396 19.9053 19.7764 19.9199 20.0854 19.9199H20.4311L20.5267 19.6715C20.6076 19.4523 20.6371 19.4231 20.7915 19.4377C21.3138 19.4889 22.0715 19.8395 22.6085 20.2925C22.763 20.4167 22.7703 20.4532 22.6968 20.5336C22.4982 20.7674 21.8288 21.1765 21.3874 21.3299C20.718 21.5637 20.6591 21.5564 20.5267 21.2349L20.4164 20.9719H17.2091H14.0019L13.4722 21.2349C12.9647 21.4906 12.9279 21.4979 12.4203 21.4979H11.8907L11.5449 21.1034ZM18.673 18.9044C19.1364 18.488 19.0261 17.7574 18.467 17.509C17.7314 17.1875 17.0105 17.9181 17.3636 18.6414C17.599 19.1382 18.2684 19.2697 18.673 18.9044Z" fill="#2E3548"/>
</svg>
