<svg width="34" height="34" viewBox="0 0 34 34" fill="none" xmlns="http://www.w3.org/2000/svg">
<rect x="0.5" y="0.5" width="32.7281" height="32.3588" rx="9.5" stroke="#2E3548" stroke-opacity="0.2"/>
<path d="M22.1971 11.1749C20.9534 10.6244 19.1996 10.2745 17.1201 10.2457C17.1163 10.2457 17.1125 10.2457 17.1087 10.2457C17.0216 10.2457 16.9332 10.2432 16.8448 10.2432H16.8398C14.6226 10.2432 12.7565 10.6043 11.456 11.1874C8.66688 12.2934 6.97119 14.2646 6.97119 16.5143C6.97119 20.1583 11.1328 23.0061 16.8411 23.0061C22.5493 23.0061 26.7109 20.1583 26.7109 16.5143C26.7109 14.2559 25.0039 12.2796 22.1971 11.1749ZM22.5569 12.9931C22.5569 14.0201 20.966 14.6772 19.11 14.9681C18.8158 12.3373 17.8814 11.0043 16.8537 11.0043C15.8259 11.0043 14.8903 12.3385 14.5961 14.9719C12.7287 14.6835 11.1239 14.0251 11.1239 12.9931C11.1239 12.395 11.8739 11.8821 12.9737 11.5197C13.9913 11.2087 15.105 11.0194 16.2388 10.9705C16.2388 10.9705 16.24 10.9705 16.2413 10.9705C16.3676 10.9642 16.4951 10.9617 16.6226 10.9592C16.6352 10.9592 16.6479 10.9592 16.6605 10.9592C16.7198 10.9592 16.7804 10.9592 16.8411 10.9592H16.8448C16.9017 10.9592 16.9585 10.9592 17.0153 10.9592C17.033 10.9592 17.0506 10.9592 17.0683 10.9592C17.1226 10.9592 17.1782 10.9617 17.2325 10.9629C17.2489 10.9629 17.2666 10.9629 17.283 10.9642C17.3246 10.9655 17.3676 10.9667 17.4105 10.9692C17.4294 10.9692 17.4496 10.9705 17.4686 10.9717C17.5254 10.9742 17.5822 10.9767 17.639 10.9805C17.6453 10.9805 17.6529 10.9805 17.6592 10.9805C18.6933 11.0419 19.7072 11.2175 20.6415 11.4984C21.7766 11.8608 22.5582 12.3812 22.5582 12.9919L22.5569 12.9931ZM18.3751 16.5857C18.3751 18.9783 17.5443 20.2147 16.8524 20.2147C16.1605 20.2147 15.3297 18.9771 15.3297 16.5857C15.3297 16.577 15.3297 16.5694 15.3297 16.5619C15.8133 16.602 16.3183 16.6234 16.8398 16.6234C17.3612 16.6234 17.884 16.602 18.3751 16.5594C18.3751 16.5682 18.3751 16.5757 18.3751 16.5845V16.5857ZM16.8398 15.1424C16.3802 15.1424 15.9029 15.1198 15.4307 15.076C15.6845 13.3179 16.365 12.5442 16.8524 12.5442C17.3398 12.5442 18.0203 13.3179 18.2741 15.0735C17.7931 15.1198 17.3082 15.1424 16.8398 15.1424ZM8.34239 16.182C8.34239 15.1662 8.76158 14.2709 9.47117 13.5223C9.59743 14.9255 11.5835 16.0704 14.5027 16.4704C14.5002 16.5807 14.5002 16.6923 14.5002 16.8052C14.5002 20.3113 15.5216 22.1007 16.6302 22.3114C12.7742 22.2324 8.34239 20.0166 8.34239 16.182ZM17.0784 22.3114C18.1857 22.0982 19.2059 20.3088 19.2059 16.8052C19.2059 16.6911 19.2059 16.5782 19.2034 16.4666C22.1112 16.0628 24.0859 14.9192 24.2084 13.5173C24.9193 14.2684 25.341 15.1637 25.341 16.1807C25.341 20.0066 20.9281 22.2211 17.0784 22.3101V22.3114Z" fill="#2E3548"/>
</svg>
