<svg width="26" height="22" viewBox="0 0 26 22" fill="none" xmlns="http://www.w3.org/2000/svg">
<path fill-rule="evenodd" clip-rule="evenodd" d="M25.1079 2.55332C24.2688 8.14585 23.4282 13.7384 22.5891 19.3309C22.4763 20.0836 22.2962 20.9393 21.6386 21.3171C21.0412 21.6596 20.287 21.4641 19.6529 21.1951C18.537 20.7217 17.5148 20.0513 16.5116 19.3691C14.9227 18.2885 13.3602 17.1668 11.8269 16.0068C11.4388 15.7128 11.02 15.36 10.9746 14.8748C10.9248 14.3426 11.3436 13.8957 11.7288 13.5281C13.6853 11.664 15.6418 9.79979 17.5983 7.93414C18.1064 7.44898 18.6234 6.95501 18.969 6.34195C19.0524 6.19493 19.1242 6.00528 19.0319 5.86267C18.9133 5.6789 18.6365 5.72595 18.433 5.80534C17.6246 6.12436 16.9012 6.62128 16.1865 7.11526C13.883 8.70304 11.5809 10.2894 9.27732 11.8771C8.34155 12.5225 7.34426 13.1885 6.21079 13.2576C5.42585 13.3061 4.65702 13.0592 3.91015 12.8151C2.80011 12.4534 1.65492 12.1403 0.565377 11.7213C0.237343 11.5963 -0.00575411 11.4405 0.000103641 11.0568C0.00889027 10.5246 0.461402 10.2702 0.886089 10.0732C8.08527 6.73007 15.4499 3.7618 22.8102 0.796466C23.5292 0.506843 24.4855 0.273086 24.9673 0.881736C25.2748 1.27133 25.2177 1.82706 25.143 2.31956L25.1079 2.55332Z" fill="#2E3548"/>
</svg>
