<svg width="34" height="34" viewBox="0 0 34 34" fill="none" xmlns="http://www.w3.org/2000/svg">
<rect x="0.5" y="0.5" width="32.7281" height="32.3588" rx="9.5" stroke="#2E3548" stroke-opacity="0.2"/>
<path d="M16.8413 24.7613L19.1304 11.9769C21.3124 11.9769 22.0001 12.2147 22.0995 13.1841C22.0995 13.1841 23.5627 12.642 24.3014 11.5412C21.4207 10.2155 18.5265 10.1559 18.5265 10.1559L16.8374 12.1986H16.8413L15.1522 10.1553C15.1522 10.1553 12.258 10.2149 9.37793 11.5406C10.1154 12.6414 11.5793 13.1835 11.5793 13.1835C11.6793 12.2134 12.3664 11.9763 14.5335 11.9744L16.8407 24.7607" fill="#2E3548"/>
<path d="M16.8405 9.56623C19.1689 9.54829 21.8341 9.92377 24.5626 11.1047C24.9271 10.453 25.0213 10.1647 25.0213 10.1647C22.038 8.9934 19.245 8.59228 16.8398 8.58203C14.4346 8.59228 11.6417 8.9934 8.65967 10.1653C8.65967 10.1653 8.79257 10.5203 9.11774 11.1053C11.8455 9.92377 14.5114 9.54829 16.8398 9.56623" fill="#2E3548"/>
</svg>
