<svg width="25" height="26" viewBox="0 0 25 26" fill="none" xmlns="http://www.w3.org/2000/svg">
<path fill-rule="evenodd" clip-rule="evenodd" d="M20.0441 22.8655C19.105 22.8655 17.4807 23.1139 17.4807 21.7629V20.312C17.4807 19.7116 18.0594 19.2094 18.6459 19.2094H19.9859C20.5886 19.2094 21.151 19.7696 21.151 20.3701V21.7048C21.151 22.2859 20.6337 22.8655 20.0441 22.8655ZM3.78759 21.7048V20.3701C3.78759 19.7696 4.34998 19.2094 4.95277 19.2094H6.29272C6.87608 19.2094 7.45789 19.7247 7.45789 20.312C7.45789 21.2475 7.70724 22.8655 6.35098 22.8655H4.89451C4.30493 22.8655 3.78759 22.2852 3.78759 21.7048ZM10.6046 21.5307C10.6046 20.6625 10.433 19.2094 11.8863 19.2094C12.8728 19.2094 14.3332 18.9912 14.3332 20.5442C14.3332 21.2413 14.4295 21.9416 14.0528 22.4128C13.5401 23.0543 12.8099 22.8663 11.6525 22.8663C11.369 22.8663 11.0575 22.6094 10.9068 22.4484C10.7134 22.2426 10.6039 21.9107 10.6039 21.5315L10.6046 21.5307ZM19.9859 16.0748H18.6459C18.0625 16.0748 17.4807 15.5595 17.4807 14.9722C17.4807 14.0367 17.2314 12.4187 18.5876 12.4187H20.0441C20.6337 12.4187 21.151 12.999 21.151 13.5794V14.9141C21.151 15.5146 20.5886 16.0748 19.9859 16.0748ZM3.78759 14.9141V13.5794C3.78759 12.9952 4.29173 12.4187 4.89451 12.4187C5.83364 12.4187 7.45789 12.1703 7.45789 13.5213V14.9722C7.45789 15.5595 6.87531 16.0748 6.29272 16.0748H4.95277C4.34998 16.0748 3.78759 15.5146 3.78759 14.9141ZM10.6046 14.74C10.6046 14.1311 10.5161 13.2784 10.8796 12.8659C11.4405 12.2307 12.0665 12.4179 13.2853 12.4179C13.7592 12.4179 14.334 12.9665 14.334 13.7527C14.334 14.6209 14.5056 16.074 13.0523 16.074C12.0658 16.074 10.6054 16.2922 10.6054 14.7393L10.6046 14.74ZM0 23.2137C0 24.8185 1.04477 26.0001 2.33035 26.0001H22.6075C23.3315 26.0001 23.9552 25.5428 24.3118 25.1443C24.7266 24.6808 24.9378 24.071 24.9378 23.2145V9.28333H0V23.2129V23.2137Z" fill="#2E3548"/>
<path fill-rule="evenodd" clip-rule="evenodd" d="M0 4.64066V8.06542H24.9378V4.64066C24.9378 3.03584 23.8931 1.85505 22.6075 1.85505H21.7919C21.7919 3.1078 21.5837 4.06342 20.4146 4.66233C18.7888 5.49492 16.8391 4.31413 16.8391 2.4942V1.85583H8.09874V2.4942C8.09874 4.34276 6.12027 5.46551 4.56205 4.68245C4.19074 4.49597 4.10452 4.40853 3.82954 4.13461C3.17005 3.47999 3.14597 2.80448 3.14597 1.85583C2.10664 1.85583 1.44637 1.7947 0.626087 2.71163C0.211285 3.17435 0 3.78409 0 4.64066Z" fill="#2E3548"/>
<path fill-rule="evenodd" clip-rule="evenodd" d="M4.37012 1.21587V2.4926C4.37012 4.12838 6.87524 4.07963 6.87524 2.55064V1.15783C6.87524 -0.371158 4.37012 -0.419906 4.37012 1.21587Z" fill="#2E3548"/>
<path fill-rule="evenodd" clip-rule="evenodd" d="M18.0625 1.15783V2.55064C18.0625 4.07963 20.5676 4.12838 20.5676 2.4926V1.21587C20.5676 -0.419906 18.0625 -0.371158 18.0625 1.15783Z" fill="#2E3548"/>
</svg>
