<svg width="27" height="27" viewBox="0 0 27 27" fill="none" xmlns="http://www.w3.org/2000/svg">
<path d="M13.5 0C6.04395 0 0 6.04395 0 13.5C0 20.9561 6.04395 27 13.5 27C20.9561 27 27 20.9561 27 13.5C27 6.04395 20.9561 0 13.5 0ZM16.9911 18.9L12.5456 14.4545C12.2918 14.2007 12.15 13.8578 12.15 13.5V6.75C12.15 6.0048 12.7548 5.4 13.5 5.4C14.2452 5.4 14.85 6.0048 14.85 6.75V12.9411L18.9 16.9911C19.4265 17.5176 19.4265 18.3735 18.9 18.9C18.3735 19.4265 17.5176 19.4265 16.9911 18.9Z" fill="#2E3548"/>
</svg>
