<svg width="34" height="34" viewBox="0 0 34 34" fill="none" xmlns="http://www.w3.org/2000/svg">
<rect x="0.5" y="0.5" width="32.7281" height="32.3588" rx="9.5" stroke="#2E3548" stroke-opacity="0.2"/>
<path d="M16.8681 7.98203C11.9871 7.95981 8.0499 11.8595 8.02686 16.738C8.03193 21.5963 11.9303 25.4909 16.8016 25.5149C21.6825 25.539 25.6194 21.6497 25.6378 16.7588C25.6561 11.9262 21.7577 8.0044 16.8681 7.98203ZM14.3134 9.19404C14.9383 8.98191 15.5777 8.84367 16.2371 8.79533C16.4405 8.78032 16.6432 8.77527 16.8468 8.77397C17.6995 8.77209 18.5282 8.91005 19.3348 9.18697C19.4306 9.21987 19.4325 9.25292 19.3952 9.33604C18.5827 11.1525 17.7733 12.9702 16.9624 14.7876C16.9354 14.8485 16.9203 14.9369 16.8416 14.9397C16.7546 14.9428 16.7364 14.8509 16.708 14.7876C15.8936 12.9637 15.0805 11.1393 14.2657 9.31569C14.2369 9.2509 14.233 9.22146 14.3133 9.19418L14.3134 9.19404ZM10.168 12.4025C10.903 11.3126 11.8337 10.4333 12.9952 9.78901C13.1574 10.1467 13.3194 10.5027 13.4803 10.8592C14.2889 12.6493 15.0981 14.4394 15.9046 16.2306C15.9568 16.3459 16.0312 16.3979 16.1606 16.3963C16.6061 16.3915 17.0518 16.3889 17.4971 16.3977C17.6509 16.4005 17.7321 16.3439 17.794 16.2061C18.4508 14.7433 19.1125 13.2826 19.7733 11.8215C20.0658 11.1739 20.3603 10.5273 20.6495 9.87833C20.6832 9.80228 20.7077 9.79463 20.7784 9.83562C21.8873 10.4792 22.7959 11.3336 23.5132 12.3925C23.5577 12.4585 23.5468 12.5035 23.5152 12.5664C22.1674 15.247 20.8212 17.9285 19.4748 20.61C19.4526 20.6541 19.4359 20.7065 19.3743 20.7062C19.3072 20.7059 19.2878 20.6479 19.2668 20.6011C19.0743 20.1713 18.8834 19.7405 18.6929 19.3095C18.378 18.5973 18.0616 17.8856 17.7518 17.1712C17.6941 17.0384 17.6077 16.9885 17.4686 16.9896C17.0306 16.9931 16.5927 16.9961 16.1551 16.9882C15.9887 16.9855 15.8975 17.0498 15.8337 17.2012C15.3603 18.3246 14.8808 19.4458 14.403 20.5675C14.3897 20.599 14.3778 20.632 14.3585 20.6597C14.3124 20.7245 14.2603 20.7299 14.2124 20.6612C14.1886 20.6271 14.1684 20.5899 14.1497 20.5527C12.8219 17.8877 11.4948 15.2228 10.1666 12.5584C10.1393 12.5037 10.1285 12.4609 10.168 12.4024V12.4025ZM21.9056 22.8777C19.0633 25.2309 14.9914 25.3239 12.068 23.1159C9.0004 20.7994 8.20153 16.9767 9.37047 13.9673C9.52311 14.2737 9.6717 14.5721 9.82086 14.8707C11.2259 17.6843 12.6313 20.498 14.0364 23.3116C14.0871 23.4132 14.147 23.5067 14.2705 23.5276C14.4085 23.5509 14.5156 23.483 14.5897 23.3213C14.7231 23.0311 14.8522 22.7392 14.9828 22.4481C15.5696 21.141 16.1564 19.8342 16.7432 18.5271C16.7651 18.4783 16.7845 18.4184 16.8457 18.4161C16.9213 18.4134 16.9399 18.4852 16.9641 18.5388C17.2256 19.117 17.4855 19.6961 17.746 20.2749C18.1977 21.2798 18.65 22.2849 19.1011 23.2903C19.1279 23.35 19.1567 23.4073 19.2036 23.4536C19.3107 23.5591 19.4667 23.5591 19.5736 23.4536C19.6235 23.4044 19.6531 23.3424 19.684 23.281C21.2276 20.1886 22.7717 17.0963 24.3157 14.0041C24.3189 13.9975 24.3239 13.9914 24.3339 13.9766C25.4281 16.7143 24.8362 20.4515 21.9057 22.8777H21.9056Z" fill="#2E3548"/>
</svg>
